<svg xmlns="http://www.w3.org/2000/svg" xmlns:xlink="http://www.w3.org/1999/xlink" height="48" width="48"><defs><linearGradient id="3300"><stop style="stop-color:#4c4c28"/><stop style="stop-color:#4c4c28;stop-opacity:0" offset="1"/></linearGradient><linearGradient id="3311"><stop style="stop-color:#d6d7a5"/><stop offset="1" style="stop-color:#8e8f6d"/></linearGradient><linearGradient id="3265"><stop style="stop-color:#929470"/><stop style="stop-color:#60614a" offset=".2647059"/><stop offset=".63235295" style="stop-color:#f3f5ba"/><stop offset="1" style="stop-color:#929470"/></linearGradient><linearGradient id="3175"><stop style="stop-color:#f1f3ff"/><stop offset="1" style="stop-color:#f1f3ff;stop-opacity:0"/></linearGradient><linearGradient id="2399"><stop style="stop-color:#929470"/><stop offset=".2647059" style="stop-color:#fcffc1"/><stop style="stop-color:#f3f5ba" offset=".63235295"/><stop style="stop-color:#929470" offset="1"/></linearGradient><linearGradient id="6339"><stop style="stop-color:#fff"/><stop style="stop-color:#fff;stop-opacity:0" offset="1"/></linearGradient><linearGradient id="20428"><stop style="stop-color:#a3a3a3"/><stop offset="1" style="stop-color:#b5b5b5;stop-opacity:0"/></linearGradient><linearGradient id="20393"><stop style="stop-color:#fff"/><stop style="stop-color:#fff;stop-opacity:0.44117647" offset=".41176471"/><stop offset="1" style="stop-opacity:0.48039216"/></linearGradient><linearGradient id="20210"><stop style="stop-opacity:0.51546389"/><stop style="stop-opacity:0.14432989" offset=".55172414"/><stop offset="1" style="stop-opacity:0"/></linearGradient><radialGradient gradientUnits="userSpaceOnUse" fy="11.4873" fx="17.8335" r="22.7093" cy="11.4873" cx="17.8335" id="aigrd7"><stop style="stop-color:#fff;stop-opacity:0.17525773"/><stop style="stop-color:#709ac8" offset=".88200003"/><stop style="stop-color:#6f96dd" offset="1"/></radialGradient><linearGradient y2="43.165" x2="26.4785" y1="43.165" x1="23.124" gradientUnits="userSpaceOnUse" id="aigrd1"><stop style="stop-color:#686868" offset=".005618"/><stop style="stop-color:#777" offset=".03012137"/><stop style="stop-color:#929292" offset=".08366583"/><stop style="stop-color:#A7A7A7" offset=".1422"/><stop style="stop-color:#B6B6B6" offset=".2074"/><stop style="stop-color:#BEBEBE" offset=".2846"/><stop style="stop-color:#C1C1C1" offset=".4045"/><stop style="stop-color:#BCBCBC" offset=".4962"/><stop style="stop-color:#ADADAD" offset=".6057"/><stop style="stop-color:#959595" offset=".7245"/><stop style="stop-color:#747474" offset=".8497"/><stop style="stop-color:#494949" offset=".9789"/><stop style="stop-color:#414141" offset="1"/></linearGradient><linearGradient id="19894" gradientUnits="userSpaceOnUse" x1="18.9951" y1="37.226601" x2="30.169901" y2="37.226601"><stop offset=".005618" style="stop-color:#A3A349"/><stop offset=".02078677" style="stop-color:#ACAC54"/><stop offset=".06600059" style="stop-color:#C1C172"/><stop offset=".1148" style="stop-color:#D4D68E"/><stop offset=".1677" style="stop-color:#E2E4A6"/><stop offset=".2265" style="stop-color:#EDF0B8"/><stop offset=".2963" style="stop-color:#F3F6C3"/><stop offset=".4045" style="stop-color:#F5F8C7"/><stop offset=".5239" style="stop-color:#EEF0BE"/><stop offset=".6666" style="stop-color:#DBDDA9"/><stop offset=".8211" style="stop-color:#BEBD88"/><stop offset=".9832" style="stop-color:#989564"/><stop offset="1" style="stop-color:#949160"/></linearGradient><linearGradient gradientTransform="matrix(1.639127,0,0,1.639127,-15.97035,-29.79355)" y2="43.165" x2="26.4785" y1="43.165" x1="23.124" gradientUnits="userSpaceOnUse" xlink:href="#aigrd1" href="#aigrd1"/><radialGradient gradientUnits="userSpaceOnUse" r="7.8289826" fy="74.209934" fx="14.772334" cy="74.209934" cx="14.772334" gradientTransform="scale(1.764278,0.566804)" id="radialGradient20216" xlink:href="#20210" href="#20210"/><linearGradient y2="36.726292" x2="32.096882" y1="10.061084" x1="16.998856" gradientTransform="matrix(1.140494,0,0,0.926002,0.27233,-3.24717)" gradientUnits="userSpaceOnUse" xlink:href="#6339" href="#6339"/><radialGradient r="33.93409" fy="29.869318" fx="68.137589" cy="29.869318" cx="68.137589" gradientTransform="matrix(0.55129,1.265592e-16,-1.355720e-16,0.766034,-10.48701,3.514312)" gradientUnits="userSpaceOnUse" xlink:href="#aigrd7" href="#aigrd7"/><linearGradient gradientUnits="userSpaceOnUse" y2="3.8557322" x2="-5.2517161" y1="16.651863" x1="37.940434" gradientTransform="matrix(0.894129,0,0,0.98523,1.515981,2.449800e-2)" xlink:href="#3175" href="#3175"/><linearGradient xlink:href="#20393" gradientUnits="userSpaceOnUse" gradientTransform="matrix(-0.6293,0,0,1.589068,50.68808,3.804378)" x1="30.620375" y1="10.313651" x2="32.16608" y2="18.162935" href="#20393"/><linearGradient xlink:href="#20393" gradientUnits="userSpaceOnUse" gradientTransform="matrix(0.6293,0,0,1.589068,1.411612,3.929378)" x1="30.620375" y1="10.313651" x2="32.16608" y2="18.162935" href="#20393"/><linearGradient xlink:href="#20428" gradientUnits="userSpaceOnUse" gradientTransform="matrix(1.985083,0,0,0.503757,1.786612,4.554378)" x1="14.637301" y1="31.504122" x2="9.3648205" y2="32.25098" href="#20428"/><linearGradient xlink:href="#19894" gradientUnits="userSpaceOnUse" gradientTransform="scale(1.02645,0.974232)" x1="-22.87417" y1="38.675991" x2="-4.3908315" y2="38.675991" href="#19894"/><linearGradient xlink:href="#2399" gradientUnits="userSpaceOnUse" gradientTransform="scale(1.02645,0.974232)" x1="-10.480865" y1="39.033951" x2="-23.851389" y2="39.142845" href="#2399"/><linearGradient xlink:href="#19894" gradientUnits="userSpaceOnUse" gradientTransform="scale(1.02645,0.974232)" x1="-22.87417" y1="38.675991" x2="-4.3908315" y2="38.675991" href="#19894"/><linearGradient xlink:href="#2399" gradientUnits="userSpaceOnUse" gradientTransform="scale(1.02645,0.974232)" x1="-10.480865" y1="39.033951" x2="-23.851389" y2="39.142845" href="#2399"/><linearGradient xlink:href="#3311" gradientUnits="userSpaceOnUse" gradientTransform="matrix(1.60344,0,0,0.549396,0.614167,2.449800e-2)" x1="17.879995" y1="55.362793" x2="11.906206" y2="54.863026" href="#3311"/><linearGradient xlink:href="#3265" gradientUnits="userSpaceOnUse" gradientTransform="matrix(-0.905728,-4.386156e-2,0.18951,-0.963437,0.614167,2.449800e-2)" x1="-29.007195" y1="-29.799353" x2="-37.641232" y2="-29.598314" href="#3265"/><linearGradient xlink:href="#19894" gradientUnits="userSpaceOnUse" gradientTransform="matrix(0.618682,-0.132027,6.262726e-2,0.741184,31.12021,8.30041)" x1="-22.87417" y1="38.675991" x2="-4.3908315" y2="38.675991" href="#19894"/><linearGradient xlink:href="#2399" gradientUnits="userSpaceOnUse" gradientTransform="matrix(0.618682,-0.132027,6.262726e-2,0.741184,31.12021,8.30041)" x1="-10.480865" y1="39.033951" x2="-23.851389" y2="39.142845" href="#2399"/><linearGradient xlink:href="#19894" gradientUnits="userSpaceOnUse" gradientTransform="matrix(0.566621,2.988977e-2,-0.118557,0.656541,36.18544,20.08311)" x1="-22.87417" y1="38.675991" x2="-4.3908315" y2="38.675991" href="#19894"/><linearGradient xlink:href="#2399" gradientUnits="userSpaceOnUse" gradientTransform="matrix(0.566621,2.988977e-2,-0.118557,0.656541,36.18544,20.08311)" x1="-10.480865" y1="39.033951" x2="-23.851389" y2="39.142845" href="#2399"/><linearGradient xlink:href="#3300" gradientTransform="scale(1.002656,0.997352)" x1="24.613028" y1="31.146202" x2="24.613028" y2="26.739624" gradientUnits="userSpaceOnUse" href="#3300"/><linearGradient xlink:href="#3311" gradientUnits="userSpaceOnUse" gradientTransform="matrix(1.60344,0,0,0.549396,0.614167,2.4498e-2)" x1="17.879995" y1="55.362793" x2="11.906206" y2="54.863026" href="#3311"/><linearGradient xlink:href="#3265" gradientUnits="userSpaceOnUse" gradientTransform="matrix(-0.905728,-4.386156e-2,0.18951,-0.963437,0.614167,2.4498e-2)" x1="-29.007195" y1="-29.799353" x2="-37.641232" y2="-29.598314" href="#3265"/><radialGradient xlink:href="#aigrd7" gradientUnits="userSpaceOnUse" gradientTransform="matrix(0.55129,1.265592e-16,-1.35572e-16,0.766034,-10.48701,3.514312)" cx="68.137589" cy="29.869318" fx="68.137589" fy="29.869318" r="33.93409" href="#aigrd7"/><linearGradient xlink:href="#6339" gradientUnits="userSpaceOnUse" gradientTransform="matrix(1.140494,0,0,0.926002,0.27233,-3.24717)" x1="16.998856" y1="10.061084" x2="32.096882" y2="36.726292" href="#6339"/><linearGradient xlink:href="#3175" gradientUnits="userSpaceOnUse" gradientTransform="matrix(0.894129,0,0,0.98523,1.515981,2.4498e-2)" x1="37.940434" y1="16.651863" x2="-5.2517161" y2="3.8557322" href="#3175"/><linearGradient xlink:href="#3311" gradientUnits="userSpaceOnUse" gradientTransform="matrix(1.60344,0,0,0.549396,0.614167,2.4498e-2)" x1="17.879995" y1="55.362793" x2="11.906206" y2="54.863026" href="#3311"/><linearGradient xlink:href="#3265" gradientUnits="userSpaceOnUse" gradientTransform="matrix(-0.905728,-4.386156e-2,0.18951,-0.963437,0.614167,2.4498e-2)" x1="-29.007195" y1="-29.799353" x2="-37.641232" y2="-29.598314" href="#3265"/><radialGradient xlink:href="#aigrd7" gradientUnits="userSpaceOnUse" gradientTransform="matrix(0.55129,1.265592e-16,-1.35572e-16,0.766034,-10.48701,3.514312)" cx="68.137589" cy="29.869318" fx="68.137589" fy="29.869318" r="33.93409" href="#aigrd7"/><linearGradient xlink:href="#3175" gradientUnits="userSpaceOnUse" gradientTransform="matrix(0.894129,0,0,0.98523,1.515981,2.4498e-2)" x1="37.940434" y1="16.651863" x2="-5.2517161" y2="3.8557322" href="#3175"/><linearGradient xlink:href="#20393" gradientUnits="userSpaceOnUse" gradientTransform="matrix(-0.6293,0,0,1.589068,50.68808,3.804378)" x1="30.620375" y1="10.313651" x2="32.16608" y2="18.162935" href="#20393"/><linearGradient xlink:href="#20393" gradientUnits="userSpaceOnUse" gradientTransform="matrix(0.6293,0,0,1.589068,1.411612,3.929378)" x1="30.620375" y1="10.313651" x2="32.16608" y2="18.162935" href="#20393"/><linearGradient xlink:href="#20428" gradientUnits="userSpaceOnUse" gradientTransform="matrix(1.985083,0,0,0.503757,1.786612,4.554378)" x1="14.637301" y1="31.504122" x2="9.3648205" y2="32.25098" href="#20428"/><linearGradient xlink:href="#6339" gradientUnits="userSpaceOnUse" gradientTransform="matrix(1.140494,0,0,0.926002,0.27233,-3.24717)" x1="16.998856" y1="10.061084" x2="32.096882" y2="36.726292" href="#6339"/><linearGradient xlink:href="#3300" gradientUnits="userSpaceOnUse" gradientTransform="scale(1.002656,0.997352)" x1="24.613028" y1="31.146202" x2="24.613028" y2="26.739624" href="#3300"/><linearGradient xlink:href="#19894" gradientUnits="userSpaceOnUse" gradientTransform="matrix(0.566621,2.988977e-2,-0.118557,0.656541,36.18544,20.08311)" x1="-22.87417" y1="38.675991" x2="-4.3908315" y2="38.675991" href="#19894"/><linearGradient xlink:href="#2399" gradientUnits="userSpaceOnUse" gradientTransform="matrix(0.566621,2.988977e-2,-0.118557,0.656541,36.18544,20.08311)" x1="-10.480865" y1="39.033951" x2="-23.851389" y2="39.142845" href="#2399"/><linearGradient xlink:href="#19894" gradientUnits="userSpaceOnUse" gradientTransform="scale(1.02645,0.974232)" x1="-22.87417" y1="38.675991" x2="-4.3908315" y2="38.675991" href="#19894"/><linearGradient xlink:href="#2399" gradientUnits="userSpaceOnUse" gradientTransform="scale(1.02645,0.974232)" x1="-10.480865" y1="39.033951" x2="-23.851389" y2="39.142845" href="#2399"/><linearGradient xlink:href="#19894" gradientUnits="userSpaceOnUse" gradientTransform="scale(1.02645,0.974232)" x1="-22.87417" y1="38.675991" x2="-4.3908315" y2="38.675991" href="#19894"/><linearGradient xlink:href="#2399" gradientUnits="userSpaceOnUse" gradientTransform="scale(1.02645,0.974232)" x1="-10.480865" y1="39.033951" x2="-23.851389" y2="39.142845" href="#2399"/><linearGradient xlink:href="#19894" gradientUnits="userSpaceOnUse" gradientTransform="matrix(0.618682,-0.132027,6.262726e-2,0.741184,31.12021,8.30041)" x1="-22.87417" y1="38.675991" x2="-4.3908315" y2="38.675991" href="#19894"/><linearGradient xlink:href="#2399" gradientUnits="userSpaceOnUse" gradientTransform="matrix(0.618682,-0.132027,6.262726e-2,0.741184,31.12021,8.30041)" x1="-10.480865" y1="39.033951" x2="-23.851389" y2="39.142845" href="#2399"/><linearGradient xlink:href="#aigrd1" id="4100" gradientUnits="userSpaceOnUse" gradientTransform="matrix(1.639127,0,0,1.639127,-15.97035,-29.79355)" x1="23.124" y1="43.165" x2="26.4785" y2="43.165" href="#aigrd1"/><linearGradient xlink:href="#3300" id="4102" gradientUnits="userSpaceOnUse" gradientTransform="scale(1.002656,0.997352)" x1="24.613028" y1="31.146202" x2="24.613028" y2="26.739624" href="#3300"/><linearGradient xlink:href="#19894" id="4104" gradientUnits="userSpaceOnUse" gradientTransform="matrix(0.566621,2.988977e-2,-0.118557,0.656541,36.18544,20.08311)" x1="-22.87417" y1="38.675991" x2="-4.3908315" y2="38.675991" href="#19894"/><linearGradient xlink:href="#2399" id="4106" gradientUnits="userSpaceOnUse" gradientTransform="matrix(0.566621,2.988977e-2,-0.118557,0.656541,36.18544,20.08311)" x1="-10.480865" y1="39.033951" x2="-23.851389" y2="39.142845" href="#2399"/><linearGradient xlink:href="#19894" id="4108" gradientUnits="userSpaceOnUse" gradientTransform="scale(1.02645,0.974232)" x1="-22.87417" y1="38.675991" x2="-4.3908315" y2="38.675991" href="#19894"/><linearGradient xlink:href="#2399" id="4110" gradientUnits="userSpaceOnUse" gradientTransform="scale(1.02645,0.974232)" x1="-10.480865" y1="39.033951" x2="-23.851389" y2="39.142845" href="#2399"/><linearGradient xlink:href="#19894" id="4112" gradientUnits="userSpaceOnUse" gradientTransform="scale(1.02645,0.974232)" x1="-22.87417" y1="38.675991" x2="-4.3908315" y2="38.675991" href="#19894"/><linearGradient xlink:href="#2399" id="4114" gradientUnits="userSpaceOnUse" gradientTransform="scale(1.02645,0.974232)" x1="-10.480865" y1="39.033951" x2="-23.851389" y2="39.142845" href="#2399"/><linearGradient xlink:href="#19894" id="4116" gradientUnits="userSpaceOnUse" gradientTransform="matrix(0.618682,-0.132027,6.262726e-2,0.741184,31.12021,8.30041)" x1="-22.87417" y1="38.675991" x2="-4.3908315" y2="38.675991" href="#19894"/><linearGradient xlink:href="#2399" id="4118" gradientUnits="userSpaceOnUse" gradientTransform="matrix(0.618682,-0.132027,6.262726e-2,0.741184,31.12021,8.30041)" x1="-10.480865" y1="39.033951" x2="-23.851389" y2="39.142845" href="#2399"/><linearGradient xlink:href="#3311" id="4120" gradientUnits="userSpaceOnUse" gradientTransform="matrix(1.60344,0,0,0.549396,0.614167,2.4498e-2)" x1="17.879995" y1="55.362793" x2="11.906206" y2="54.863026" href="#3311"/><linearGradient xlink:href="#3265" id="4122" gradientUnits="userSpaceOnUse" gradientTransform="matrix(-0.905728,-4.386156e-2,0.18951,-0.963437,0.614167,2.4498e-2)" x1="-29.007195" y1="-29.799353" x2="-37.641232" y2="-29.598314" href="#3265"/><radialGradient xlink:href="#aigrd7" id="radialGradient4124" gradientUnits="userSpaceOnUse" gradientTransform="matrix(0.55129,1.265592e-16,-1.35572e-16,0.766034,-10.48701,3.514312)" cx="68.137589" cy="29.869318" fx="68.137589" fy="29.869318" r="33.93409" href="#aigrd7"/><linearGradient xlink:href="#3175" id="4126" gradientUnits="userSpaceOnUse" gradientTransform="matrix(0.894129,0,0,0.98523,1.515981,2.4498e-2)" x1="37.940434" y1="16.651863" x2="-5.2517161" y2="3.8557322" href="#3175"/><linearGradient xlink:href="#20393" id="4128" gradientUnits="userSpaceOnUse" gradientTransform="matrix(-0.6293,0,0,1.589068,50.68808,3.804378)" x1="30.620375" y1="10.313651" x2="32.16608" y2="18.162935" href="#20393"/><linearGradient xlink:href="#20393" id="4130" gradientUnits="userSpaceOnUse" gradientTransform="matrix(0.6293,0,0,1.589068,1.411612,3.929378)" x1="30.620375" y1="10.313651" x2="32.16608" y2="18.162935" href="#20393"/><linearGradient xlink:href="#20428" id="4132" gradientUnits="userSpaceOnUse" gradientTransform="matrix(1.985083,0,0,0.503757,1.786612,4.554378)" x1="14.637301" y1="31.504122" x2="9.3648205" y2="32.25098" href="#20428"/><linearGradient xlink:href="#6339" id="4134" gradientUnits="userSpaceOnUse" gradientTransform="matrix(1.140494,0,0,0.926002,0.27233,-3.24717)" x1="16.998856" y1="10.061084" x2="32.096882" y2="36.726292" href="#6339"/></defs><path transform="matrix(1.197183,0,0,1.098591,-6.201582,-3.209507)" d="M39.9 42.1A13.8 4.4 0 1 1 12.3,42.1A13.8 4.4 0 1 1 39.9 42.1z" style="fill:url(#radialGradient20216);stroke-width:2;opacity:0.8" ry="4.4375" rx="13.8125" cy="42.0625" cx="26.0625"/><g transform="translate(0,1)"><path transform="matrix(1.075823,0,0,0.937493,-2.551335,3.047213)" d="M21.9,38.9L21.9,40.4C21.9,41.8 23.2,43.1 24.7,43.1C26.2,43.1 27.5,41.8 27.5,40.4L27.5,38.9L21.9,38.9z" style="fill:url(#4100);stroke:#565656"/><g transform="matrix(0.989073,0,0,0.993556,-0.408739,7.920479e-3)"><path d="M24.5,27.7C21.2,27.7 17.5,28.6 19.5,30.5C19,30.7 18.3,31.1 18.4,32.2C18.4,32.7 19,33.1 19.8,33.3C18.9,34 18.3,34.6 18.4,35.3C18.4,35.8 19,36.2 19.8,36.4C18.9,37.1 18.3,37.8 18.4,38.4C18.4,39.3 20.5,40.4 24.8,40.2C28,40.2 30.8,39.6 31,38.4C31.1,37.9 30.7,37.5 30.1,37.1C30.5,36.6 30.9,36.1 30.8,35.7C30.8,35.2 30.2,34.8 29.4,34.5C30.3,33.9 30.9,33.2 30.8,32.6C30.8,32 30.2,31.7 29.4,31.5C30.3,30.8 30.9,30.1 30.8,29.5C30.8,28.8 27.6,27.7 24.5,27.7z" style="fill:#aeae57;stroke:url(#4102);stroke-width:2.01752925"/><path d="M30.9,38.3C30.7,39.5 27.6,40.2 22.6,40C19.5,39.8 19.3,38.9 19.5,37.7C19.7,36.5 22.5,35.7 25.6,35.8C28.8,36 31.1,37.1 30.9,38.3z" style="fill:url(#4104);stroke:url(#4106);stroke-width:0.08906282"/><path style="fill:url(#4108);stroke:url(#4110);stroke-width:0.13035245" d="M -3.5 27.2A10.3 3.3 0 1 1-24.2,27.2A10.3 3.3 0 1 1-3.5 27.2z" transform="matrix(0.60274,-0.128625,6.428372e-2,0.760788,31.12021,14.49141)" cx="-13.87697" cy="27.228739" rx="10.341436" ry="3.2703688"/><path transform="matrix(0.60274,-0.128625,6.428372e-2,0.760788,31.12021,11.39591)" d="M -3.5 27.2A10.3 3.3 0 1 1-24.2,27.2A10.3 3.3 0 1 1-3.5 27.2z" style="fill:url(#4112);stroke:url(#4114);stroke-width:0.13035245" ry="3.2703688" rx="10.341436" cy="27.228739" cx="-13.87697" type="arc"/><path d="M30.7,29.6C30.7,31 28.2,32.6 24.7,33.3C21.3,34 18.4,33.5 18.3,32.1C18.2,30.8 20.5,29.2 24,29C27.4,28.8 30.7,28.9 30.7,29.6z" style="fill:url(#4116);stroke:url(#4118);stroke-width:0.08906286"/><path transform="matrix(0.335464,0,0,0.335464,11.74678,27.2261)" d="M31 22.4A3.3 3.3 0 1 1 24.5,22.4A3.3 3.3 0 1 1 31 22.4z" style="fill:#fff;stroke-width:2" ry="3.25" rx="3.25" cy="22.375" cx="27.75" type="arc"/><path d="M19.3,33.4C22.7,33.9 26.3,33.3 29.2,31.5C30,30.9 30.1,30.3 30.5,29.9C29.1,31 25.5,34 19.3,33.4z" style="fill-opacity:0.23391807;stroke-width:1px"/><path style="fill:#fff;stroke-width:2" d="M31 22.4A3.3 3.3 0 1 1 24.5,22.4A3.3 3.3 0 1 1 31 22.4z" transform="matrix(0.335464,0,0,0.335464,11.74678,30.23376)" cx="27.75" cy="22.375" rx="3.25" ry="3.25"/><path d="M19.5,39.5C22.9,40 26.4,39.5 29.3,37.6C30.2,37.1 30.3,36.5 30.6,36C29.2,37.1 25.6,40.2 19.5,39.5z" style="fill-opacity:0.23391807;stroke-width:1px"/><path style="fill-opacity:0.23391807;stroke-width:1px" d="M19.5,36.4C22.9,36.9 26.5,36.4 29.4,34.5C30.2,34 30.3,33.4 30.7,32.9C29.2,34 25.6,37.1 19.5,36.4z"/></g><g transform="translate(-0.988797,0)"><path transform="matrix(0.954439,0,0,0.989869,1.433222,0.639881)" d="M18.9,29.6C18.9,28.8 20.4,27.9 24.4,27.9C28.1,28 30.5,28.8 30.5,30.1C30.5,31.3 27.3,32.2 23.9,32C20.4,31.8 18.9,30.9 18.9,29.6z" style="fill:url(#4120);stroke:url(#4122);stroke-width:0.09083303"/><path transform="matrix(0.954439,0,0,0.989869,1.433222,0.639881)" d="M24.7,0.9C16.9,0.9 10.5,6.8 10.5,14.2C10.5,21.7 16.2,22.6 16.2,25.4C16.2,28.6 19.6,32.3 25.1,32.2C31,32 33.5,28.8 33.5,25.4C33.5,22.4 38.9,22.3 38.9,14.2C38.9,6.8 32.5,0.9 24.7,0.9z" style="fill:url(#radialGradient4124);stroke:#616471;stroke-width:1.01595449"/><path transform="matrix(0.954439,0,0,0.989869,1.433222,0.639881)" style="fill:none;stroke:url(#4126);stroke-width:0.94685698" d="M24.7,1.9C17.4,1.9 11.5,7.5 11.5,14.4C11.5,21.4 16.8,22.2 16.8,24.8C16.8,27.8 20,31.2 25.1,31.1C30.6,31 32.9,28 32.9,24.8C32.9,22 37.9,21.9 37.9,14.4C37.9,7.5 32,1.9 24.7,1.9z"/><g transform="matrix(0.9375,0,0,0.926938,0.569221,0.25176)"><path style="fill:url(#4128)" d="M31.9,19.2C32.3,19.3 32.5,19.6 32.4,20L28.5,31.5C28.4,31.8 28.1,32 27.8,31.9C27.5,31.8 27.3,31.5 27.4,31.2L31.2,19.6C31.3,19.3 31.6,19.1 31.9,19.2z"/><path d="M20.2,19.3C19.8,19.5 19.6,19.8 19.7,20.1L23.6,31.6C23.7,32 24,32.2 24.3,32.1C24.6,32 24.8,31.6 24.7,31.3L20.9,19.8C20.8,19.5 20.5,19.2 20.2,19.3z" style="fill:url(#4130)"/><path style="fill:#fff;stroke:url(#4132);stroke-width:0.21454535" d="M20.3,19.3C20,19.3 19.8,19.5 19.8,19.8C19.7,20 19.9,20.2 20.1,20.4C20.1,20.4 21.9,21.4 24.3,22C26.7,22.5 29.8,22.6 32.1,20.3C32.3,20.2 32.4,19.9 32.3,19.7C32.3,19.5 32.1,19.3 31.9,19.3C31.7,19.2 31.5,19.3 31.3,19.5C29.4,21.4 26.8,21.4 24.6,20.9C22.4,20.4 20.7,19.4 20.7,19.4C20.5,19.3 20.4,19.3 20.3,19.3z"/></g><path style="opacity:0.5977654;fill:url(#4134);stroke-width:0.98750001" d="M25,3.6C18.7,3.6 13.7,7.6 13.7,12.5C13.7,14.5 14.6,16.3 16,17.7C17.6,18.4 19.2,18.8 21.1,18.8C27.4,18.8 32.5,14.8 32.5,9.8C32.5,7.9 31.5,6.1 30.1,4.6C28.5,4 26.9,3.6 25,3.6z" transform="matrix(0.954439,0,0,0.989869,1.433222,0.639881)"/></g></g></svg>