<!DOCTYPE svg PUBLIC "-//W3C//DTD SVG 1.1//EN"
 "http://www.w3.org/Graphics/SVG/1.1/DTD/svg11.dtd">
<svg version="1.1"
 width="600px" height="218px"
 viewBox="0 0 600 218"
 xmlns="http://www.w3.org/2000/svg" shape-rendering="crispEdges"
 stroke-width="1" text-rendering="geometricPrecision">
<polygon fill="white" points="59,7 89,7 89,16 59,16"/>
<text x="75" y="16" textLength="28" font-family="Helvetica" font-size="12" fill="black" text-anchor="middle">

client
</text>
<polygon fill="white" points="203,7 245,7 245,16 203,16"/>
<text x="225" y="16" textLength="40" font-family="Helvetica" font-size="12" fill="black" text-anchor="middle">

server1
</text>
<polygon fill="white" points="353,7 395,7 395,16 353,16"/>
<text x="375" y="16" textLength="40" font-family="Helvetica" font-size="12" fill="black" text-anchor="middle">

server2
</text>
<polygon fill="white" points="503,7 545,7 545,16 503,16"/>
<text x="525" y="16" textLength="40" font-family="Helvetica" font-size="12" fill="black" text-anchor="middle">

server3
</text>
<line x1="75" y1="22" x2="75" y2="50" stroke="black"/>
<line x1="225" y1="22" x2="225" y2="50" stroke="black"/>
<line x1="375" y1="22" x2="375" y2="50" stroke="black"/>
<line x1="525" y1="22" x2="525" y2="50" stroke="black"/>
<line x1="75" y1="33" x2="225" y2="33" stroke="black"/>
<line x1="225" y1="33" x2="215" y2="39" stroke="black"/>
<line x1="75" y1="33" x2="375" y2="33" stroke="black"/>
<line x1="375" y1="33" x2="365" y2="39" stroke="black"/>
<line x1="75" y1="33" x2="525" y2="33" stroke="black"/>
<line x1="525" y1="33" x2="515" y2="39" stroke="black"/>
<polygon fill="white" points="279,23 320,23 320,32 279,32"/>
<text x="280" y="32" textLength="39" font-family="Helvetica" font-size="12" fill="black">
1 PING
</text>
<line x1="75" y1="50" x2="75" y2="78" stroke="black"/>
<line x1="225" y1="50" x2="225" y2="78" stroke="black"/>
<line x1="375" y1="50" x2="375" y2="78" stroke="black"/>
<line x1="525" y1="50" x2="525" y2="78" stroke="black"/>
<line x1="225" y1="61" x2="75" y2="61" stroke="black"/>
<line x1="75" y1="61" x2="85" y2="67" stroke="black"/>
<polygon fill="white" points="135,51 164,51 164,60 135,60"/>
<text x="136" y="60" textLength="27" font-family="Helvetica" font-size="12" fill="black">
1 OK
</text>
<line x1="75" y1="78" x2="75" y2="106" stroke="black"/>
<line x1="225" y1="78" x2="225" y2="106" stroke="black"/>
<line x1="375" y1="78" x2="375" y2="106" stroke="black"/>
<line x1="525" y1="78" x2="525" y2="106" stroke="black"/>
<line x1="75" y1="89" x2="225" y2="89" stroke="black"/>
<line x1="225" y1="89" x2="215" y2="95" stroke="black"/>
<polygon fill="white" points="131,79 168,79 168,88 131,88"/>
<text x="132" y="88" textLength="35" font-family="Helvetica" font-size="12" fill="black">
1 ACK
</text>
<line x1="75" y1="106" x2="75" y2="134" stroke="black"/>
<line x1="225" y1="106" x2="225" y2="134" stroke="black"/>
<line x1="375" y1="106" x2="375" y2="134" stroke="black"/>
<line x1="525" y1="106" x2="525" y2="134" stroke="black"/>
<line x1="375" y1="117" x2="75" y2="117" stroke="black"/>
<line x1="75" y1="117" x2="85" y2="123" stroke="black"/>
<polygon fill="white" points="210,107 239,107 239,116 210,116"/>
<text x="211" y="116" textLength="27" font-family="Helvetica" font-size="12" fill="black">
1 OK
</text>
<line x1="75" y1="134" x2="75" y2="162" stroke="black"/>
<line x1="225" y1="134" x2="225" y2="162" stroke="black"/>
<line x1="375" y1="134" x2="375" y2="162" stroke="black"/>
<line x1="525" y1="134" x2="525" y2="162" stroke="black"/>
<line x1="525" y1="145" x2="75" y2="145" stroke="black"/>
<line x1="75" y1="145" x2="85" y2="151" stroke="black"/>
<polygon fill="white" points="285,135 314,135 314,144 285,144"/>
<text x="286" y="144" textLength="27" font-family="Helvetica" font-size="12" fill="black">
1 OK
</text>
<line x1="75" y1="162" x2="75" y2="190" stroke="black"/>
<line x1="225" y1="162" x2="225" y2="190" stroke="black"/>
<line x1="375" y1="162" x2="375" y2="190" stroke="black"/>
<line x1="525" y1="162" x2="525" y2="190" stroke="black"/>
<line x1="75" y1="173" x2="375" y2="173" stroke="black"/>
<line x1="375" y1="173" x2="365" y2="179" stroke="black"/>
<polygon fill="white" points="206,163 243,163 243,172 206,172"/>
<text x="207" y="172" textLength="35" font-family="Helvetica" font-size="12" fill="black">
1 ACK
</text>
<line x1="75" y1="190" x2="75" y2="218" stroke="black"/>
<line x1="225" y1="190" x2="225" y2="218" stroke="black"/>
<line x1="375" y1="190" x2="375" y2="218" stroke="black"/>
<line x1="525" y1="190" x2="525" y2="218" stroke="black"/>
<line x1="75" y1="201" x2="525" y2="201" stroke="black"/>
<line x1="525" y1="201" x2="515" y2="207" stroke="black"/>
<polygon fill="white" points="281,191 318,191 318,200 281,200"/>
<text x="282" y="200" textLength="35" font-family="Helvetica" font-size="12" fill="black">
1 ACK
</text>
<line x1="75" y1="212" x2="75" y2="218" stroke="black"/>
<line x1="225" y1="212" x2="225" y2="218" stroke="black"/>
<line x1="375" y1="212" x2="375" y2="218" stroke="black"/>
<line x1="525" y1="212" x2="525" y2="218" stroke="black"/>
</svg>
