<!DOCTYPE svg PUBLIC "-//W3C//DTD SVG 1.1//EN"
 "http://www.w3.org/Graphics/SVG/1.1/DTD/svg11.dtd">
<svg version="1.1"
 width="600px" height="364px"
 viewBox="0 0 600 364"
 xmlns="http://www.w3.org/2000/svg" shape-rendering="crispEdges"
 stroke-width="1" text-rendering="geometricPrecision">
<polygon fill="white" points="59,7 89,7 89,16 59,16"/>
<text x="75" y="16" textLength="28" font-family="Helvetica" font-size="12" fill="black" text-anchor="middle">

client
</text>
<polygon fill="white" points="203,7 245,7 245,16 203,16"/>
<text x="225" y="16" textLength="40" font-family="Helvetica" font-size="12" fill="black" text-anchor="middle">

server1
</text>
<polygon fill="white" points="353,7 395,7 395,16 353,16"/>
<text x="375" y="16" textLength="40" font-family="Helvetica" font-size="12" fill="black" text-anchor="middle">

server2
</text>
<polygon fill="white" points="503,7 545,7 545,16 503,16"/>
<text x="525" y="16" textLength="40" font-family="Helvetica" font-size="12" fill="black" text-anchor="middle">

server3
</text>
<line x1="75" y1="22" x2="75" y2="50" stroke="black"/>
<line x1="225" y1="22" x2="225" y2="50" stroke="black"/>
<line x1="375" y1="22" x2="375" y2="50" stroke="black"/>
<line x1="525" y1="22" x2="525" y2="50" stroke="black"/>
<line x1="75" y1="33" x2="225" y2="33" stroke="black"/>
<line x1="225" y1="33" x2="215" y2="39" stroke="black"/>
<line x1="75" y1="33" x2="375" y2="33" stroke="black"/>
<line x1="375" y1="33" x2="365" y2="39" stroke="black"/>
<line x1="75" y1="33" x2="525" y2="33" stroke="black"/>
<line x1="525" y1="33" x2="515" y2="39" stroke="black"/>
<polygon fill="white" points="279,23 320,23 320,32 279,32"/>
<text x="280" y="32" textLength="39" font-family="Helvetica" font-size="12" fill="black">
2 PING
</text>
<line x1="75" y1="50" x2="75" y2="78" stroke="black"/>
<line x1="225" y1="50" x2="225" y2="78" stroke="black"/>
<line x1="375" y1="50" x2="375" y2="78" stroke="black"/>
<line x1="525" y1="50" x2="525" y2="78" stroke="black"/>
<line x1="225" y1="61" x2="75" y2="61" stroke="black"/>
<line x1="75" y1="61" x2="85" y2="67" stroke="black"/>
<polygon fill="white" points="135,51 164,51 164,60 135,60"/>
<text x="136" y="60" textLength="27" font-family="Helvetica" font-size="12" fill="black">
2 OK
</text>
<line x1="75" y1="78" x2="75" y2="106" stroke="black"/>
<line x1="225" y1="78" x2="225" y2="106" stroke="black"/>
<line x1="375" y1="78" x2="375" y2="106" stroke="black"/>
<line x1="525" y1="78" x2="525" y2="106" stroke="black"/>
<line x1="375" y1="89" x2="150" y2="89" stroke="black"/>
<line x1="146" y1="85" x2="154" y2="93" stroke="black"/>
<line x1="154" y1="85" x2="146" y2="93" stroke="black"/>
<polygon fill="white" points="210,79 239,79 239,88 210,88"/>
<text x="211" y="88" textLength="27" font-family="Helvetica" font-size="12" fill="black">
2 OK
</text>
<line x1="75" y1="106" x2="75" y2="134" stroke="black"/>
<line x1="225" y1="106" x2="225" y2="134" stroke="black"/>
<line x1="375" y1="106" x2="375" y2="134" stroke="black"/>
<line x1="525" y1="106" x2="525" y2="134" stroke="black"/>
<line x1="525" y1="117" x2="189" y2="117" stroke="black"/>
<line x1="185" y1="113" x2="193" y2="121" stroke="black"/>
<line x1="193" y1="113" x2="185" y2="121" stroke="black"/>
<polygon fill="white" points="285,107 314,107 314,116 285,116"/>
<text x="286" y="116" textLength="27" font-family="Helvetica" font-size="12" fill="black">
2 OK
</text>
<line x1="75" y1="134" x2="75" y2="162" stroke="black"/>
<line x1="225" y1="134" x2="225" y2="162" stroke="black"/>
<line x1="375" y1="134" x2="375" y2="162" stroke="black"/>
<line x1="525" y1="134" x2="525" y2="162" stroke="black"/>
<line x1="75" y1="145" x2="225" y2="145" stroke="black"/>
<line x1="225" y1="145" x2="215" y2="151" stroke="black"/>
<polygon fill="white" points="131,135 168,135 168,144 131,144"/>
<text x="132" y="144" textLength="35" font-family="Helvetica" font-size="12" fill="black">
2 ACK
</text>
<line x1="75" y1="162" x2="75" y2="179" stroke="black" stroke-dasharray="2,2"/>
<line x1="225" y1="162" x2="225" y2="179" stroke="black" stroke-dasharray="2,2"/>
<line x1="375" y1="162" x2="375" y2="179" stroke="black" stroke-dasharray="2,2"/>
<line x1="525" y1="162" x2="525" y2="179" stroke="black" stroke-dasharray="2,2"/>
<line x1="75" y1="179" x2="75" y2="207" stroke="black"/>
<line x1="225" y1="179" x2="225" y2="207" stroke="black"/>
<line x1="375" y1="179" x2="375" y2="207" stroke="black"/>
<line x1="525" y1="179" x2="525" y2="207" stroke="black"/>
<line x1="375" y1="190" x2="75" y2="190" stroke="black"/>
<line x1="75" y1="190" x2="85" y2="196" stroke="black"/>
<polygon fill="white" points="210,180 239,180 239,189 210,189"/>
<text x="211" y="189" textLength="27" font-family="Helvetica" font-size="12" fill="black">
2 OK
</text>
<line x1="75" y1="207" x2="75" y2="235" stroke="black"/>
<line x1="225" y1="207" x2="225" y2="235" stroke="black"/>
<line x1="375" y1="207" x2="375" y2="235" stroke="black"/>
<line x1="525" y1="207" x2="525" y2="235" stroke="black"/>
<line x1="525" y1="218" x2="75" y2="218" stroke="black"/>
<line x1="75" y1="218" x2="85" y2="224" stroke="black"/>
<polygon fill="white" points="285,208 314,208 314,217 285,217"/>
<text x="286" y="217" textLength="27" font-family="Helvetica" font-size="12" fill="black">
2 OK
</text>
<line x1="75" y1="235" x2="75" y2="263" stroke="black"/>
<line x1="225" y1="235" x2="225" y2="263" stroke="black"/>
<line x1="375" y1="235" x2="375" y2="263" stroke="black"/>
<line x1="525" y1="235" x2="525" y2="263" stroke="black"/>
<line x1="75" y1="246" x2="300" y2="246" stroke="black"/>
<line x1="296" y1="242" x2="304" y2="250" stroke="black"/>
<line x1="304" y1="242" x2="296" y2="250" stroke="black"/>
<polygon fill="white" points="206,236 243,236 243,245 206,245"/>
<text x="207" y="245" textLength="35" font-family="Helvetica" font-size="12" fill="black">
2 ACK
</text>
<line x1="75" y1="263" x2="75" y2="291" stroke="black"/>
<line x1="225" y1="263" x2="225" y2="291" stroke="black"/>
<line x1="375" y1="263" x2="375" y2="291" stroke="black"/>
<line x1="525" y1="263" x2="525" y2="291" stroke="black"/>
<line x1="75" y1="274" x2="525" y2="274" stroke="black"/>
<line x1="525" y1="274" x2="515" y2="280" stroke="black"/>
<polygon fill="white" points="281,264 318,264 318,273 281,273"/>
<text x="282" y="273" textLength="35" font-family="Helvetica" font-size="12" fill="black">
2 ACK
</text>
<line x1="75" y1="291" x2="75" y2="308" stroke="black" stroke-dasharray="2,2"/>
<line x1="225" y1="291" x2="225" y2="308" stroke="black" stroke-dasharray="2,2"/>
<line x1="375" y1="291" x2="375" y2="308" stroke="black" stroke-dasharray="2,2"/>
<line x1="525" y1="291" x2="525" y2="308" stroke="black" stroke-dasharray="2,2"/>
<line x1="75" y1="308" x2="75" y2="336" stroke="black"/>
<line x1="225" y1="308" x2="225" y2="336" stroke="black"/>
<line x1="375" y1="308" x2="375" y2="336" stroke="black"/>
<line x1="525" y1="308" x2="525" y2="336" stroke="black"/>
<line x1="375" y1="319" x2="75" y2="319" stroke="black"/>
<line x1="75" y1="319" x2="85" y2="325" stroke="black"/>
<polygon fill="white" points="210,309 239,309 239,318 210,318"/>
<text x="211" y="318" textLength="27" font-family="Helvetica" font-size="12" fill="black">
2 OK
</text>
<line x1="75" y1="336" x2="75" y2="364" stroke="black"/>
<line x1="225" y1="336" x2="225" y2="364" stroke="black"/>
<line x1="375" y1="336" x2="375" y2="364" stroke="black"/>
<line x1="525" y1="336" x2="525" y2="364" stroke="black"/>
<line x1="75" y1="347" x2="375" y2="347" stroke="black"/>
<line x1="375" y1="347" x2="365" y2="353" stroke="black"/>
<polygon fill="white" points="206,337 243,337 243,346 206,346"/>
<text x="207" y="346" textLength="35" font-family="Helvetica" font-size="12" fill="black">
2 ACK
</text>
<line x1="75" y1="358" x2="75" y2="364" stroke="black"/>
<line x1="225" y1="358" x2="225" y2="364" stroke="black"/>
<line x1="375" y1="358" x2="375" y2="364" stroke="black"/>
<line x1="525" y1="358" x2="525" y2="364" stroke="black"/>
</svg>
