<?xml version="1.0" encoding="UTF-8" standalone="no"?>
<svg
   xmlns:dc="http://purl.org/dc/elements/1.1/"
   xmlns:cc="http://creativecommons.org/ns#"
   xmlns:rdf="http://www.w3.org/1999/02/22-rdf-syntax-ns#"
   xmlns:svg="http://www.w3.org/2000/svg"
   xmlns="http://www.w3.org/2000/svg"
   xmlns:sodipodi="http://sodipodi.sourceforge.net/DTD/sodipodi-0.dtd"
   xmlns:inkscape="http://www.inkscape.org/namespaces/inkscape"
   viewBox="0 0 720 720"
   id="svg2985"
   version="1.1"
   inkscape:version="0.48.4 r9939"
   width="100%"
   height="100%"
   sodipodi:docname="cpigui.svg">
  <metadata
     id="metadata3019">
    <rdf:RDF>
      <cc:Work
         rdf:about="">
        <dc:format>image/svg+xml</dc:format>
        <dc:type
           rdf:resource="http://purl.org/dc/dcmitype/StillImage" />
        <dc:title></dc:title>
      </cc:Work>
    </rdf:RDF>
  </metadata>
  <defs
     id="defs3017" />
  <sodipodi:namedview
     pagecolor="#ffffff"
     bordercolor="#666666"
     borderopacity="1"
     objecttolerance="10"
     gridtolerance="10"
     guidetolerance="10"
     inkscape:pageopacity="0"
     inkscape:pageshadow="2"
     inkscape:window-width="1123"
     inkscape:window-height="828"
     id="namedview3015"
     showgrid="false"
     inkscape:zoom="0.46354778"
     inkscape:cx="98.486271"
     inkscape:cy="221.27748"
     inkscape:window-x="0"
     inkscape:window-y="24"
     inkscape:window-maximized="0"
     inkscape:current-layer="svg2985" />
  <g
     id="g3947"
     transform="translate(73.109465,0.48725152)">
    <path
       inkscape:connector-curvature="0"
       id="path3830"
       d="m 278.3125,136.625 c -57.22771,0.2456 -111.64705,28.99155 -149.96875,70.4375 -10.49626,8.3973 -22.9847,14.14575 -32.40625,23.9375 -21.696196,20.52661 -31.667222,50.66394 -31.478282,80.12417 0.613742,9.8809 -5.746459,18.70615 -14.084218,23.31333 -37.739192,30.18644 -51.3953617,88.39001 -27.5,131.15625 4.589564,8.82057 11.037844,16.39207 16.75,24.375 3.288326,21.68917 14.520454,41.4047 17.691993,63.12332 8.991054,36.00029 36.368327,66.63902 70.526757,80.15793 11.38623,7.0908 21.52859,16.10298 33.51818,22.50702 12.46715,7.44519 26.11543,13.28292 39.54432,18.71173 23.27033,25.10166 57.08259,40.58296 91.65625,38.46875 30.59987,-0.95766 59.3047,-16.03407 80.28125,-37.71875 8.19412,-5.33714 18.06318,-6.9702 26.39443,-11.97846 17.64294,-8.49903 33.17775,-20.80434 49.54307,-31.27154 30.26878,-12.03622 54.37763,-38.53769 65.125,-69 4.51904,-12.70324 5.48252,-26.4531 11.04383,-38.82069 4.35281,-11.81776 7.54265,-24.02945 10.61242,-36.11681 25.71185,-27.35348 34.99045,-69.05846 21.9375,-104.46875 -7.50835,-22.47268 -22.23909,-42.3656 -41.875,-55.375 -4.42404,-5.99937 -6.9021,-13.28633 -5.78125,-20.75 -0.81598,-29.86782 -12.13421,-60.7137 -35.5,-80.03125 -12.4525,-10.72083 -27.74008,-17.82891 -39.47572,-29.59074 C 391.09155,161.34407 336.15156,135.50949 278.3125,136.625 z"
       style="fill:#ffffff;fill-opacity:1;stroke:none" />
    <g
       id="g3864">
      <path
         transform="matrix(0.76271218,0.64673807,-0.64673807,0.76271218,378.96823,-111.11795)"
         d="m 340.84945,230.83791 c 0,11.97904 -26.56074,21.68997 -59.32507,21.68997 -32.76432,0 -59.32506,-9.71093 -59.32506,-21.68997 0,-11.97905 26.56074,-21.68998 59.32506,-21.68998 32.76433,0 59.32507,9.71093 59.32507,21.68998 z"
         sodipodi:ry="21.689974"
         sodipodi:rx="59.325062"
         sodipodi:cy="230.83791"
         sodipodi:cx="281.52438"
         id="path3840"
         style="fill:#2972be;fill-opacity:1;stroke:none"
         sodipodi:type="arc" />
      <path
         sodipodi:type="arc"
         style="fill:#000000;fill-opacity:1;stroke:none"
         id="path3842"
         sodipodi:cx="281.52438"
         sodipodi:cy="230.83791"
         sodipodi:rx="59.325062"
         sodipodi:ry="21.689974"
         d="m 340.84945,230.83791 c 0,11.97904 -26.56074,21.68997 -59.32507,21.68997 -32.76432,0 -59.32506,-9.71093 -59.32506,-21.68997 0,-11.97905 26.56074,-21.68998 59.32506,-21.68998 32.76433,0 59.32507,9.71093 59.32507,21.68998 z"
         transform="matrix(0.37207224,0.31549684,-0.31549684,0.37207224,417.33373,71.397936)" />
    </g>
    <g
       id="g3872">
      <path
         sodipodi:type="arc"
         style="fill:#2972be;fill-opacity:1;stroke:none"
         id="path3836"
         sodipodi:cx="281.52438"
         sodipodi:cy="230.83791"
         sodipodi:rx="59.325062"
         sodipodi:ry="33.977081"
         d="m 340.84945,230.83791 c 0,18.76502 -26.56074,33.97708 -59.32507,33.97708 -32.76432,0 -59.32506,-15.21206 -59.32506,-33.97708 0,-18.76503 26.56074,-33.97709 59.32506,-33.97709 32.76433,0 59.32507,15.21206 59.32507,33.97709 z"
         transform="translate(4.3145499,1.0786375)" />
      <path
         transform="matrix(0.50793653,0,0,0.50793653,142.77393,96.868021)"
         d="m 340.84945,230.83791 c 0,18.76502 -26.56074,33.97708 -59.32507,33.97708 -32.76432,0 -59.32506,-15.21206 -59.32506,-33.97708 0,-18.76503 26.56074,-33.97709 59.32506,-33.97709 32.76433,0 59.32507,15.21206 59.32507,33.97709 z"
         sodipodi:ry="33.977081"
         sodipodi:rx="59.325062"
         sodipodi:cy="230.83791"
         sodipodi:cx="281.52438"
         id="path3838"
         style="fill:#000000;fill-opacity:1;stroke:none"
         sodipodi:type="arc" />
    </g>
    <g
       id="g3856">
      <path
         transform="matrix(0.1265028,-0.99196625,0.99196625,0.1265028,-220.37288,657.79549)"
         d="m 340.84945,230.83791 c 0,11.97904 -26.56074,21.68997 -59.32507,21.68997 -32.76432,0 -59.32506,-9.71093 -59.32506,-21.68997 0,-11.97905 26.56074,-21.68998 59.32506,-21.68998 32.76433,0 59.32507,9.71093 59.32507,21.68998 z"
         sodipodi:ry="21.689974"
         sodipodi:rx="59.325062"
         sodipodi:cy="230.83791"
         sodipodi:cx="281.52438"
         id="path3852"
         style="fill:#2972be;fill-opacity:1;stroke:none"
         sodipodi:type="arc" />
      <path
         sodipodi:type="arc"
         style="fill:#000000;fill-opacity:1;stroke:none"
         id="path3854"
         sodipodi:cx="281.52438"
         sodipodi:cy="230.83791"
         sodipodi:rx="59.325062"
         sodipodi:ry="21.689974"
         d="m 340.84945,230.83791 c 0,11.97904 -26.56074,21.68997 -59.32507,21.68997 -32.76432,0 -59.32506,-9.71093 -59.32506,-21.68997 0,-11.97905 26.56074,-21.68998 59.32506,-21.68998 32.76433,0 59.32507,9.71093 59.32507,21.68998 z"
         transform="matrix(0.06171158,-0.48390876,0.48390876,0.06171158,-88.263159,526.14832)" />
    </g>
    <g
       id="g3860">
      <path
         sodipodi:type="arc"
         style="fill:#2972be;fill-opacity:1;stroke:none"
         id="path3848"
         sodipodi:cx="281.52438"
         sodipodi:cy="230.83791"
         sodipodi:rx="59.325062"
         sodipodi:ry="21.689974"
         d="m 340.84945,230.83791 c 0,11.97904 -26.56074,21.68997 -59.32507,21.68997 -32.76432,0 -59.32506,-9.71093 -59.32506,-21.68997 0,-11.97905 26.56074,-21.68998 59.32506,-21.68998 32.76433,0 59.32507,9.71093 59.32507,21.68998 z"
         transform="matrix(0.13454744,0.99090715,-0.99090715,0.13454744,712.92109,91.239453)" />
      <path
         transform="matrix(0.06563599,0.4833921,-0.4833921,0.06563599,619.38569,252.59337)"
         d="m 340.84945,230.83791 c 0,11.97904 -26.56074,21.68997 -59.32507,21.68997 -32.76432,0 -59.32506,-9.71093 -59.32506,-21.68997 0,-11.97905 26.56074,-21.68998 59.32506,-21.68998 32.76433,0 59.32507,9.71093 59.32507,21.68998 z"
         sodipodi:ry="21.689974"
         sodipodi:rx="59.325062"
         sodipodi:cy="230.83791"
         sodipodi:cx="281.52438"
         id="path3850"
         style="fill:#000000;fill-opacity:1;stroke:none"
         sodipodi:type="arc" />
    </g>
    <g
       id="g3868">
      <path
         sodipodi:type="arc"
         style="fill:#2972be;fill-opacity:1;stroke:none"
         id="path3844"
         sodipodi:cx="281.52438"
         sodipodi:cy="230.83791"
         sodipodi:rx="59.325062"
         sodipodi:ry="21.689974"
         d="m 340.84945,230.83791 c 0,11.97904 -26.56074,21.68997 -59.32507,21.68997 -32.76432,0 -59.32506,-9.71093 -59.32506,-21.68997 0,-11.97905 26.56074,-21.68998 59.32506,-21.68998 32.76433,0 59.32507,9.71093 59.32507,21.68998 z"
         transform="matrix(0.75158985,-0.65963073,0.65963073,0.75158985,-247.36579,259.22418)" />
      <path
         transform="matrix(0.36664646,-0.32178624,0.32178624,0.36664646,-61.197017,248.03724)"
         d="m 340.84945,230.83791 c 0,11.97904 -26.56074,21.68997 -59.32507,21.68997 -32.76432,0 -59.32506,-9.71093 -59.32506,-21.68997 0,-11.97905 26.56074,-21.68998 59.32506,-21.68998 32.76433,0 59.32507,9.71093 59.32507,21.68998 z"
         sodipodi:ry="21.689974"
         sodipodi:rx="59.325062"
         sodipodi:cy="230.83791"
         sodipodi:cx="281.52438"
         id="path3846"
         style="fill:#000000;fill-opacity:1;stroke:none"
         sodipodi:type="arc" />
    </g>
    <path
       sodipodi:nodetypes="scccccccccccccccccccccccccccccccccccccccccccccssccccssccsssccssscccccsscccccssccssccscc"
       inkscape:connector-curvature="0"
       id="path2987"
       d="m 158.375,1.65625 c -3.6193,0.11232 -7.5167,1.4493 -11.9375,4.9375 -10.83,-4.1763 -21.32875,-5.6272 -30.71875,2.875 C 101.21875,7.58795 96.5075,11.469 92.9375,16 89.7545,15.934 69.11925,12.72775 59.65625,26.84375 35.87525,24.02975 28.359,40.832 36.875,56.5 c -4.8569,7.519 -9.88955,14.94725 1.46875,29.28125 -4.018,7.9835 -1.5274,16.644 7.9375,27.125 -2.4979,11.223 2.41185,19.1415 11.21875,25.3125 -1.6471,15.358 14.08425,24.28675 18.78125,27.46875 1.8037,8.9487 5.56315,17.3935 23.53125,22.0625 2.9632,13.336 13.76175,15.6385 24.21875,18.4375 -34.562,20.09 -64.201,46.518 -64,111.375 l -5.0625,9.03125 c -39.63,24.1 -75.28625,101.57125 -19.53125,164.53125 3.6419,19.708 9.7491,33.86425 15.1875,49.53125 8.1338,63.131 61.21775,92.6915 75.21875,96.1875 20.517,15.628 42.3675,30.45675 71.9375,40.84375 27.875,28.749 58.0735,39.7055 88.4375,39.6875 0.44515,-2.8e-4 0.89848,0.005 1.34375,0 30.364,0.0189 60.5615,-10.9375 88.4375,-39.6875 29.569,-10.387 51.4205,-25.21575 71.9375,-40.84375 14.001,-3.4959 67.08475,-33.0565 75.21875,-96.1875 5.4379,-15.667 11.5455,-29.82325 15.1875,-49.53125 55.754,-62.965 20.09975,-140.43125 -19.53125,-164.53125 L 513.75,317.5625 c 0.20067,-64.852 -29.438,-91.28 -64,-111.375 10.457,-2.7984 21.25575,-5.1009 24.21875,-18.4375 17.968,-4.6698 21.72825,-13.1145 23.53125,-22.0625 4.6978,-3.1813 20.42825,-12.11075 18.78125,-27.46875 8.8067,-6.1716 13.71675,-14.0905 11.21875,-25.3125 9.4649,-10.481 11.956,-19.141 7.9375,-27.125 C 546.7975,71.45325 541.75625,64.019 536.90625,56.5 545.41625,40.832 537.915,24.02975 514.125,26.84375 504.665,12.72775 484.03375,15.934 480.84375,16 c -3.57,-4.531 -8.28125,-8.41205 -22.78125,-6.53125 -9.39,-8.5022 -19.88875,-7.0514 -30.71875,-2.875 -12.86,-10.148 -21.37375,-2.0132 -31.09375,1.0625 -15.57,-5.0877 -19.13125,1.88095 -26.78125,4.71875 -16.98,-3.5881 -22.14125,4.22375 -30.28125,12.46875 l -9.46875,-0.1875 c -25.611,15.093 -38.33375,45.826 -42.84375,61.625 -4.5121,-15.802 -17.2065,-46.535 -42.8125,-61.625 l -9.46875,0.1875 C 226.44375,16.59875 221.2925,8.787 204.3125,12.375 c -7.65,-2.8378 -11.20125,-9.80645 -26.78125,-4.71875 -6.3797,-2.0185 -12.24725,-6.2144 -19.15625,-6 z M 283.125,202.75 c 1.16797,-0.0264 2.32803,-0.0305 3.5,0 33.278,-0.366 74.47734,24.85375 74.3125,48.59375 -0.145,20.954 -28.9395,37.91696 -74.0625,37.59375 -44.186,-0.527 -73.94837,-21.321 -73.84375,-41.625 0.0843,-16.18781 33.88674,-43.74373 70.09375,-44.5625 z m -106.9375,14.09375 c 6.5661,0.0389 13.31438,0.65203 20.1875,1.8125 23.15,3.89 -110.96425,120.96375 -113.03125,94.84375 -1.84625,-59.61375 37.95549,-95.6543 90.03125,-96.625 0.92992,-0.0173 1.87449,-0.0368 2.8125,-0.0312 z m 213.96875,2.03125 c 53.43988,-0.29186 94.69172,35.94138 92.8125,96.625 -2.0669,26.121 -136.15,-90.95475 -113,-94.84375 6.87258,-1.16047 13.62471,-1.74541 20.1875,-1.78125 z M 366.625,291.5625 c 0.68526,-0.0152 1.36526,-0.005 2.03125,0 0.71039,0.006 1.4072,0.0358 2.09375,0.0625 59.8546,7.81928 87.68043,51.78881 86.09375,103.5625 0.87675,18.5315 -19.05416,54.65644 -52.59375,59.75 -60.0419,4.73069 -85.52796,-33.25834 -98.40625,-69.875 -4.40431,-21.9292 -10.18062,-54.50201 26.625,-83.09375 11.53117,-7.56151 23.87738,-10.17881 34.15625,-10.40625 z m -161.34375,4 c 10.65585,-0.083 23.88757,2.34064 36.1875,10.40625 36.80562,28.59174 31.02931,61.16455 26.625,83.09375 -12.87829,36.61666 -38.36435,74.60569 -98.40625,69.875 -33.53959,-5.09356 -53.4705,-41.2185 -52.59375,-59.75 -1.58668,-51.77369 26.23915,-95.74322 86.09375,-103.5625 0.68655,-0.0267 1.38336,-0.057 2.09375,-0.0625 z m 285.15625,44.09375 c 1.02138,-0.0169 2.11206,0.1326 3.25,0.4375 60.416,34.5 49.8995,111.25575 17.3125,137.46875 -28.69922,12.74875 -52.22536,-137.38113 -20.5625,-137.90625 z m -414.28125,2 c 31.65946,0.5219 8.105469,150.655 -20.59375,137.90625 -32.587,-26.21 -43.07225,-102.96875 17.34375,-137.46875 1.137812,-0.305 2.228727,-0.45434 3.25,-0.4375 z M 286.75,695.0625 c -191.166667,16.625 -95.58333,8.3125 0,0 z" />
    <path
       style="fill:#75a928"
       inkscape:connector-curvature="0"
       id="path2989"
       d="m 107.39,68.056 c 67.948,35.031 107.45,63.369 129.09,87.504 -11.082,44.418 -68.896,46.445 -90.036,45.199 4.3284,-2.0147 7.9399,-4.4278 9.2205,-8.1357 -5.3045,-3.7698 -24.113,-0.39719 -37.244,-7.7742 5.0441,-1.045 7.4035,-2.063 9.7629,-5.7854 -12.406,-3.9567 -25.769,-7.3664 -33.628,-13.921 4.2413,0.0524 8.2012,0.9488 13.74,-2.8927 -11.112,-5.9882 -22.969,-10.734 -32.181,-19.887 5.7452,-0.14063 11.939,-0.0568 13.74,-2.1695 -10.17,-6.3007 -18.751,-13.308 -25.854,-20.972 8.04,0.97052 11.435,0.13478 13.379,-1.2656 -7.6878,-7.8742 -17.418,-14.523 -22.057,-24.226 5.9696,2.0575 11.431,2.8451 15.368,-0.1808 -2.6124,-5.8935 -13.805,-9.3696 -20.249,-23.142 6.2844,0.60938 12.95,1.3711 14.283,0 -2.917,-11.884 -7.922,-18.565 -12.831,-25.487 13.45,-0.2 33.828,0.052 32.905,-1.085 l -8.3165,-8.4973 c 13.138,-3.5372 26.581,0.56816 36.34,3.6159 4.3819,-3.4577 -0.0776,-7.83 -5.4238,-12.294 11.165,1.4906 21.254,4.0574 30.373,7.5934 4.8724,-4.3993 -3.1639,-8.7987 -7.051,-13.198 17.249,3.2726 24.557,7.8707 31.82,12.475 5.2694,-5.0508 0.30166,-9.3433 -3.2543,-13.74 13.006,4.817 19.705,11.036 26.758,17.175 2.3912,-3.2271 6.0749,-5.5924 1.6272,-13.379 9.2342,5.3227 16.189,11.595 21.334,18.622 5.7134,-3.6379 3.4039,-8.613 3.4351,-13.198 9.5966,7.8065 15.687,16.114 23.142,24.226 1.5017,-1.0934 2.8166,-4.8017 3.9775,-10.667 22.895,22.212 55.246,78.158 8.3165,100.34 -39.94,-32.94 -87.64,-56.883 -140.5,-74.844 z" />
    <path
       style="fill:#75a928"
       inkscape:connector-curvature="0"
       id="path2991"
       d="m 467.92,68.056 c -67.94,35.034 -107.44,63.364 -129.08,87.504 11.082,44.418 68.896,46.445 90.036,45.199 -4.3284,-2.0147 -7.9399,-4.4278 -9.2205,-8.1357 5.3045,-3.7698 24.113,-0.39719 37.244,-7.7742 -5.0441,-1.045 -7.4035,-2.063 -9.7629,-5.7854 12.406,-3.9567 25.769,-7.3664 33.628,-13.921 -4.2413,0.0524 -8.2012,0.9488 -13.74,-2.8927 11.112,-5.9882 22.969,-10.734 32.181,-19.887 -5.7452,-0.14063 -11.939,-0.0568 -13.74,-2.1695 10.17,-6.3007 18.751,-13.308 25.854,-20.972 -8.04,0.97052 -11.435,0.13478 -13.379,-1.2656 7.6878,-7.8742 17.418,-14.523 22.057,-24.226 -5.9696,2.0575 -11.431,2.8451 -15.368,-0.1808 2.6124,-5.8935 13.805,-9.3696 20.249,-23.142 -6.2844,0.60938 -12.95,1.3711 -14.283,0 2.9223,-11.889 7.9275,-18.57 12.836,-25.492 -13.45,-0.19973 -33.828,0.05235 -32.905,-1.0848 l 8.3165,-8.4973 c -13.138,-3.5372 -26.581,0.56816 -36.34,3.6159 -4.3819,-3.4577 0.0776,-7.83 5.4238,-12.294 -11.165,1.4906 -21.254,4.0574 -30.373,7.5934 -4.8724,-4.3993 3.1639,-8.7987 7.051,-13.198 -17.249,3.2726 -24.557,7.8707 -31.82,12.475 -5.2694,-5.0508 -0.30166,-9.3433 3.2543,-13.74 -13.006,4.817 -19.705,11.036 -26.758,17.175 -2.3912,-3.2271 -6.0749,-5.5924 -1.6272,-13.379 -9.2342,5.3227 -16.189,11.595 -21.334,18.622 -5.7134,-3.6379 -3.4039,-8.613 -3.4351,-13.198 -9.5966,7.8065 -15.687,16.114 -23.142,24.226 -1.5017,-1.0934 -2.8166,-4.8017 -3.9775,-10.667 -22.895,22.212 -55.246,78.158 -8.3165,100.34 39.919,-32.947 87.616,-56.888 140.48,-74.849 z" />
    <g
       id="g3876">
      <path
         sodipodi:type="arc"
         style="fill:#2972be;fill-opacity:1;stroke:none"
         id="path3054"
         sodipodi:cx="190.67796"
         sodipodi:cy="380.59323"
         sodipodi:rx="53.329048"
         sodipodi:ry="59.038162"
         d="m 244.00701,380.59323 c 0,32.60588 -23.87623,59.03816 -53.32905,59.03816 -29.45282,0 -53.32904,-26.43228 -53.32904,-59.03816 0,-32.60588 23.87622,-59.03816 53.32904,-59.03816 29.45282,0 53.32905,26.43228 53.32905,59.03816 z"
         transform="matrix(0.89668829,0.44266253,-0.44266253,0.89668829,190.87022,-47.782845)" />
      <path
         transform="matrix(0.43531467,0.21489908,-0.21489908,0.43531467,190.54081,170.53395)"
         d="m 244.00701,380.59323 c 0,32.60588 -23.87623,59.03816 -53.32905,59.03816 -29.45282,0 -53.32904,-26.43228 -53.32904,-59.03816 0,-32.60588 23.87622,-59.03816 53.32904,-59.03816 29.45282,0 53.32905,26.43228 53.32905,59.03816 z"
         sodipodi:ry="59.038162"
         sodipodi:rx="53.329048"
         sodipodi:cy="380.59323"
         sodipodi:cx="190.67796"
         id="path3824"
         style="fill:#000000;fill-opacity:1;stroke:none"
         sodipodi:type="arc" />
    </g>
    <g
       id="g3880">
      <path
         sodipodi:type="arc"
         style="fill:#2972be;fill-opacity:1;stroke:none"
         id="path3826"
         sodipodi:cx="393.16336"
         sodipodi:cy="395.86945"
         sodipodi:rx="56.628468"
         sodipodi:ry="67.414841"
         d="m 449.79183,395.86945 c 0,37.23218 -25.35343,67.41484 -56.62847,67.41484 -31.27504,0 -56.62847,-30.18266 -56.62847,-67.41484 0,-37.23219 25.35343,-67.41484 56.62847,-67.41484 31.27504,0 56.62847,30.18265 56.62847,67.41484 z"
         transform="matrix(0.81687058,-0.39968534,0.39968534,0.81687058,-96.950195,207.52491)" />
      <path
         transform="matrix(0.38042011,-0.18613516,0.18613516,0.38042011,161.85724,293.64562)"
         d="m 449.79183,395.86945 c 0,37.23218 -25.35343,67.41484 -56.62847,67.41484 -31.27504,0 -56.62847,-30.18266 -56.62847,-67.41484 0,-37.23219 25.35343,-67.41484 56.62847,-67.41484 31.27504,0 56.62847,30.18265 56.62847,67.41484 z"
         sodipodi:ry="67.414841"
         sodipodi:rx="56.628468"
         sodipodi:cy="395.86945"
         sodipodi:cx="393.16336"
         id="path3828"
         style="fill:#000000;fill-opacity:1;stroke:none"
         sodipodi:type="arc" />
    </g>
    <path
       id="path3892"
       d="m 370.24618,523.04044 a 81.389935,75.051403 0 1 1 -162.77761,0 81.389935,75.051403 0 1 1 162.77761,0 z"
       inkscape:connector-curvature="0"
       style="fill:#bc1142" />
    <path
       id="path3908"
       d="m 289.21503,621.79868 c 32.697,-1.4271 76.571,10.532 76.657,26.396 0.5427,15.405 -39.79,50.211 -78.826,49.538 -40.427,1.7439 -80.069,-33.116 -79.55,-45.199 -0.60506,-17.716 49.226,-31.548 81.719,-30.735 z"
       inkscape:connector-curvature="0"
       style="fill:#bc1142" />
    <path
       id="path3910"
       d="m 168.44504,527.77869 c 23.27899,28.04599 33.89099,77.31899 14.46399,91.84399 -18.37899,11.088 -63.01199,6.5216 -94.735987,-39.052 -21.395,-38.24199 -18.638,-77.15699 -3.6159,-88.58899 22.463997,-13.684 57.172997,4.799 83.888997,35.797 z"
       inkscape:connector-curvature="0"
       style="fill:#bc1142" />
    <path
       id="path3912"
       d="m 405.32503,518.88869 c -25.187,29.50199 -39.212,83.30999 -20.838,100.63999 17.568,13.464 64.729,11.582 99.566,-36.756 25.296,-32.465 16.82,-86.68199 2.3708,-101.07999 -21.464,-16.602 -52.277,4.6449 -81.099,37.188 z"
       inkscape:connector-curvature="0"
       style="fill:#bc1142" />
  </g>
</svg>
