<?xml version="1.0" encoding="UTF-8" standalone="no"?>
<!-- Created with Inkscape (http://www.inkscape.org/) -->

<svg
   xmlns:dc="http://purl.org/dc/elements/1.1/"
   xmlns:cc="http://creativecommons.org/ns#"
   xmlns:rdf="http://www.w3.org/1999/02/22-rdf-syntax-ns#"
   xmlns:svg="http://www.w3.org/2000/svg"
   xmlns="http://www.w3.org/2000/svg"
   xmlns:sodipodi="http://sodipodi.sourceforge.net/DTD/sodipodi-0.dtd"
   xmlns:inkscape="http://www.inkscape.org/namespaces/inkscape"
   width="720"
   height="720"
   id="svg2"
   version="1.1"
   inkscape:version="0.48.4 r9939"
   sodipodi:docname="cpigui.inkscape.svg">
  <defs
     id="defs4">
    <inkscape:path-effect
       effect="bend_path"
       id="path-effect4781"
       is_visible="true"
       bendpath="M -60.060287,645.2207 C 296.0649,488.3625 469.68089,490.96587 819.63617,649.50641"
       prop_scale="1"
       scale_y_rel="false"
       vertical="false"
       bendpath-nodetypes="cc" />
    <clipPath
       clipPathUnits="userSpaceOnUse"
       id="clipPath4794">
      <rect
         y="186.64789"
         x="7.1428571"
         height="720"
         width="720"
         id="rect4796"
         style="fill:#bfd6ec;fill-opacity:0.49458487;stroke:none" />
    </clipPath>
  </defs>
  <sodipodi:namedview
     id="base"
     pagecolor="#ffffff"
     bordercolor="#666666"
     borderopacity="1.0"
     inkscape:pageopacity="0.0"
     inkscape:pageshadow="2"
     inkscape:zoom="0.7"
     inkscape:cx="368.8259"
     inkscape:cy="336.17141"
     inkscape:document-units="px"
     inkscape:current-layer="layer1"
     showgrid="false"
     inkscape:window-width="1920"
     inkscape:window-height="1056"
     inkscape:window-x="0"
     inkscape:window-y="24"
     inkscape:window-maximized="1"
     inkscape:snap-global="true" />
  <metadata
     id="metadata7">
    <rdf:RDF>
      <cc:Work
         rdf:about="">
        <dc:format>image/svg+xml</dc:format>
        <dc:type
           rdf:resource="http://purl.org/dc/dcmitype/StillImage" />
        <dc:title></dc:title>
      </cc:Work>
    </rdf:RDF>
  </metadata>
  <g
     inkscape:label="Layer 1"
     inkscape:groupmode="layer"
     id="layer1"
     transform="translate(0,-332.36217)">
    <g
       id="g4702"
       inkscape:path-effect="#path-effect4781"
       transform="translate(-7.1428571,145.71429)"
       clip-path="url(#clipPath4794)">
      <path
         inkscape:connector-curvature="0"
         style="fill:#bfd6ec;fill-opacity:1;stroke:none"
         d="m -2.212081,265.63536 c 7.8059156,4.72127 12.839985,11.50707 15.308131,19.68178 2.468146,8.1747 2.378881,17.738 0.04648,28.06264 -2.332398,10.32464 -6.901472,21.41136 -13.39851339,32.67762 -6.49704131,11.26626 -14.91882661,22.7134 -25.03544361,33.78745 -10.116617,11.07406 -20.973269,20.73102 -32.012542,28.74083 -11.039273,8.00982 -22.264276,14.37183 -33.152567,18.82353 -21.776577,8.90341 -42.241877,10.17143 -57.089297,1.50812 -7.42371,-4.33166 -12.73599,-10.73984 -15.98351,-18.64298 -3.24753,-7.90315 -4.429,-17.30131 -3.51008,-27.60375 1.83785,-20.60486 12.05799,-44.86189 31.52681,-67.78924 9.73441,-11.46367 20.87552,-21.49709 32.69304,-29.77868 11.817511,-8.28158 24.309278,-14.80946 36.611044,-19.28337 12.301765,-4.47391 24.407296,-6.89278 35.38178,-7.00047 10.974483,-0.10768 20.808749,2.09524 28.614665,6.81652 z"
         id="path4113"
         inkscape:original-d="m 174.3808,361.70118 c 17.52438,27.87122 -3.4895,72.61045 -46.93582,99.92787 -43.446316,27.31742 -92.872835,26.86847 -110.397216,-1.00275 -17.524381,-27.87122 3.4895,-72.61045 46.935821,-99.92787 43.446315,-27.31742 92.872835,-26.86847 110.397215,1.00275 z" />
      <path
         inkscape:connector-curvature="0"
         style="fill:#4f90ca;fill-opacity:1;stroke:none"
         d="m -27.145435,276.11698 c 6.348419,3.78 10.513473,9.25268 12.637037,15.87957 2.123564,6.6269 2.210813,14.4078 0.474712,22.83272 -1.736101,8.42492 -5.291579,17.49424 -10.45189,26.72498 -5.16031,9.23074 -11.923321,18.62362 -20.119031,27.71426 -16.391417,18.18129 -35.381677,31.74219 -53.268987,39.05232 -17.887306,7.31014 -34.723496,8.35636 -46.881506,1.28963 -6.07901,-3.53337 -10.41042,-8.76364 -13.0354,-15.2132 -2.62498,-6.44957 -3.54226,-14.11851 -2.73668,-22.52193 1.61115,-16.80684 10.10672,-36.57383 25.95931,-55.24838 7.9263,-9.33729 16.95026,-17.50953 26.48284,-24.26371 9.532572,-6.75417 19.572304,-12.08921 29.446484,-15.76578 9.874179,-3.67657 19.578955,-5.69407 28.397992,-5.83996 8.819037,-0.1459 16.7467,1.57948 23.095119,5.35948 z"
         id="path4115"
         inkscape:original-d="m 154.09697,363.48897 c 14.27875,22.70929 -2.84322,59.16252 -38.243,81.42057 -35.399776,22.25806 -75.672179,21.89226 -89.95093,-0.81703 -14.278751,-22.70929 2.843222,-59.16253 38.243001,-81.42058 35.399783,-22.25805 75.672179,-21.89225 89.950929,0.81704 z" />
      <path
         inkscape:connector-curvature="0"
         style="fill:#000000;fill-opacity:1;stroke:none"
         d="m -71.135555,300.5585 c 6.819686,3.9744 9.190317,11.63434 7.634487,20.76304 -1.555831,9.12869 -7.007243,19.72732 -15.762259,29.67846 -8.755019,9.95114 -19.150713,17.38364 -28.993703,21.38618 -9.84299,4.00253 -19.15269,4.57357 -25.80101,0.73271 -6.64833,-3.84086 -9.39213,-11.37478 -8.37324,-20.48486 1.01889,-9.11009 5.81931,-19.79923 14.40297,-29.88392 8.58365,-10.08469 19.35252,-17.64321 29.732449,-21.66436 10.379926,-4.02114 20.340626,-4.50167 27.160306,-0.52725 z"
         id="path4117"
         inkscape:original-d="m 115.79873,371.27405 c 7.72451,12.28525 -1.53812,32.00568 -20.688656,44.04682 -19.15054,12.04114 -40.937062,11.84325 -48.661567,-0.442 -7.724505,-12.28525 1.538123,-32.00568 20.688662,-44.04682 19.150535,-12.04114 40.937061,-11.84325 48.661561,0.442 z" />
      <path
         inkscape:connector-curvature="0"
         style="fill:#bfd6ec;fill-opacity:1;stroke:none"
         d="m 43.13836,399.41737 c 7.344845,4.87178 12.162896,11.72711 14.650939,19.89538 2.488043,8.16826 2.653681,17.64934 0.767153,27.82831 -1.886527,10.17896 -5.819566,21.05672 -11.55652,32.06769 -5.736954,11.01096 -13.275296,22.15661 -22.462061,32.90221 -9.186763,10.7456 -19.1582948,20.07888 -29.4069864,27.78751 -10.2486916,7.70863 -20.7774356,13.79192 -31.0818116,17.9984 -20.608751,8.41295 -40.361489,9.32579 -54.86338,0.48231 -7.250945,-4.42175 -12.493873,-10.86871 -15.748203,-18.76817 -3.25432,-7.89945 -4.51965,-17.25124 -3.76927,-27.46612 1.50076,-20.42976 11.05338,-44.3487 29.23911,-66.73999 9.092864,-11.19564 19.493615,-20.93573 30.5078,-28.91345 11.014185,-7.97773 22.639858,-14.19129 34.080382,-18.36186 11.4405237,-4.17056 22.6904681,-6.29723 32.906783,-6.15038 10.216315,0.14686 19.39122,2.56637 26.736065,7.43816 z"
         id="path4121"
         inkscape:original-d="m 174.3808,503.02769 c 17.52438,27.87122 -3.4895,72.61045 -46.93582,99.92787 -43.446316,27.31742 -92.872835,26.86847 -110.397216,-1.00275 -17.524381,-27.87122 3.4895,-72.61045 46.935821,-99.92787 43.446315,-27.31742 92.872835,-26.86847 110.397215,1.00275 z" />
      <path
         inkscape:connector-curvature="0"
         style="fill:#4f90ca;fill-opacity:1;stroke:none"
         d="m 20.25365,409.22018 c 6.003027,3.89629 10.006979,9.4225 12.145407,16.04443 2.138428,6.62193 2.415905,14.33949 1.013901,22.65184 -1.402005,8.31234 -4.480049,17.21995 -9.065738,26.25205 -4.585689,9.03209 -10.677352,18.18948 -18.1583299,27.02149 -14.9619524,17.66402 -32.6493731,30.71921 -49.5821971,37.62912 -16.932825,6.90991 -33.145843,7.6578 -44.995873,0.43872 -11.85003,-7.21907 -17.10454,-21.06574 -15.79336,-37.72461 1.31119,-16.65886 9.219075,-36.1412 24.025007,-54.37873 7.402967,-9.11876 15.834652,-17.05429 24.735095,-23.56559 8.900443,-6.5113 18.268333,-11.59732 27.481156,-15.03518 9.212823,-3.43787 18.2672616,-5.22709 26.5132103,-5.17495 8.2459487,0.0521 15.6786937,1.94512 21.6817217,5.84141 z"
         id="path4123"
         inkscape:original-d="m 154.09697,504.81548 c 14.27875,22.70929 -2.84322,59.16252 -38.243,81.42057 -35.399776,22.25806 -75.672179,21.89226 -89.95093,-0.81703 -14.278751,-22.70929 2.843222,-59.16253 38.243001,-81.42058 35.399783,-22.25805 75.672179,-21.89225 89.950929,0.81704 z" />
      <path
         inkscape:connector-curvature="0"
         style="fill:#000000;fill-opacity:1;stroke:none"
         d="m -20.337597,432.47836 c 6.507855,4.08726 8.909934,11.73588 7.655963,20.75527 -1.253971,9.01938 -6.1381,19.41176 -14.202885,29.10049 -8.064787,9.68872 -17.788596,16.85455 -27.102202,20.63784 -9.313605,3.78329 -18.231439,4.18146 -24.679965,0.25123 -6.448525,-3.93023 -9.211821,-11.45534 -8.387023,-20.4787 0.824798,-9.02336 5.251523,-19.54683 13.256983,-29.39259 8.005458,-9.84575 18.090484,-17.13508 27.833263,-20.9144 9.742779,-3.77932 19.118017,-4.0464 25.625866,0.0409 z"
         id="path4125"
         inkscape:original-d="m 115.79873,512.60056 c 7.72451,12.28525 -1.53812,32.00568 -20.688656,44.04682 -19.15054,12.04114 -40.937062,11.84325 -48.661567,-0.442 -7.724505,-12.28525 1.538123,-32.00568 20.688662,-44.04682 19.150535,-12.04114 40.937061,-11.84325 48.661561,0.442 z" />
      <path
         inkscape:connector-curvature="0"
         style="fill:#bfd6ec;fill-opacity:1;stroke:none"
         d="m 88.488801,533.19938 c 6.883775,5.02229 11.485808,11.94715 13.993749,20.10898 2.50794,8.16183 2.92848,17.56068 1.48782,27.59397 -1.44066,10.03329 -4.73766,20.7021 -9.714526,31.45776 -4.976866,10.75566 -11.631764,21.59983 -19.888677,32.01697 -8.256911,10.41715 -17.343322,19.42675 -26.801432,26.8342 -9.45811,7.40745 -19.290595,13.212 -29.011056,17.17326 -9.7204599,3.96125 -19.32923574,6.07795 -28.2891564,6.07996 -8.9599206,0.002 -17.2701256,-2.11162 -24.3483056,-6.62345 -14.156362,-9.02366 -20.705038,-25.96719 -19.541367,-46.22185 0.581835,-10.12733 3.09481,-21.07711 7.573894,-32.23582 4.479084,-11.15871 10.926204,-22.52731 19.377522,-33.45492 8.451317,-10.92761 18.111715,-20.37436 28.3225685,-28.04823 10.2108535,-7.67388 20.9704335,-13.57311 31.5497155,-17.44033 10.579283,-3.86722 20.97364,-5.70169 30.431786,-5.3003 9.458147,0.40139 17.97369,3.0375 24.857465,8.0598 z"
         id="path4129"
         inkscape:original-d="m 174.3808,644.3542 c 17.52438,27.87122 -3.4895,72.61045 -46.93582,99.92787 -43.446316,27.31742 -92.872835,26.86847 -110.397216,-1.00275 -17.524381,-27.87122 3.4895,-72.61045 46.935821,-99.92787 43.446315,-27.31742 92.872835,-26.86847 110.397215,1.00275 z" />
      <path
         inkscape:connector-curvature="0"
         style="fill:#4f90ca;fill-opacity:1;stroke:none"
         d="m 67.652734,542.32338 c 11.315271,8.02516 15.342682,22.28071 13.206867,38.68025 -1.067907,8.19977 -3.668519,16.94567 -7.679586,25.77911 -4.011067,8.83345 -9.431382,17.75535 -16.197628,26.32873 -13.532487,17.14676 -29.917069,29.69624 -45.895408,36.20592 -15.9783392,6.50968 -31.568183,6.95924 -43.110235,-0.41218 -11.542052,-7.37142 -16.825853,-21.20321 -15.814634,-37.7141 1.011218,-16.51089 8.33142,-35.70858 22.090692,-53.50907 6.879637,-8.90024 14.719044,-16.59906 22.987355,-22.86748 8.2683105,-6.26842 16.964358,-11.10542 25.515825,-14.30459 8.551467,-3.19916 16.955568,-4.76011 24.628429,-4.50994 7.67286,0.25018 14.610688,2.31077 20.268323,6.32335 z"
         id="path4131"
         inkscape:original-d="m 154.09697,646.14199 c 14.27875,22.70929 -2.84322,59.16252 -38.243,81.42057 -35.399776,22.25806 -75.672179,21.89226 -89.95093,-0.81703 -14.278751,-22.70929 2.843222,-59.16253 38.243001,-81.42058 35.399783,-22.25805 75.672179,-21.89225 89.950929,0.81704 z" />
      <path
         inkscape:connector-curvature="0"
         style="fill:#000000;fill-opacity:1;stroke:none"
         d="m 30.460361,564.39822 c 6.196023,4.20012 8.629551,11.83741 7.67744,20.74749 -0.952112,8.91008 -5.268958,19.09621 -12.643511,28.52252 -7.374556,9.42631 -16.4264797,16.32546 -25.21070336,19.8895 -8.78422364,3.56405 -17.31019164,3.78936 -23.55891764,-0.23024 -6.248726,-4.01961 -9.031512,-11.5359 -8.400808,-20.47254 0.630703,-8.93664 4.683741,-19.29443 12.111001,-28.90125 7.427258,-9.60682 16.8284402,-16.62697 25.9340724,-20.16445 9.1056326,-3.53749 17.8954076,-3.59114 24.0914266,0.60897 z"
         id="path4133"
         inkscape:original-d="m 115.79873,653.92707 c 7.72451,12.28525 -1.53812,32.00568 -20.688656,44.04682 -19.15054,12.04114 -40.937062,11.84325 -48.661567,-0.442 -7.724505,-12.28525 1.538123,-32.00568 20.688662,-44.04682 19.150535,-12.04114 40.937061,-11.84325 48.661561,0.442 z" />
      <path
         inkscape:connector-curvature="0"
         style="fill:#bfd6ec;fill-opacity:1;stroke:none"
         d="m 133.83924,666.98139 c 6.42271,5.1728 10.80872,12.1672 13.33656,20.32258 2.52783,8.15539 3.20328,17.47203 2.20849,27.35964 -0.99479,9.88762 -3.65576,20.34746 -7.87253,30.84783 -4.21678,10.50036 -9.98824,21.04304 -17.3153,31.13173 -7.32706,10.08868 -15.52835,18.77461 -24.19587,25.88088 -8.667533,7.10627 -17.80376,12.63209 -26.940305,16.34812 -9.136545,3.71603 -18.272946,5.62084 -26.865905,5.4503 C 37.601422,824.15193 29.554156,821.9048 22.64874,817.30288 8.8379089,808.09905 2.2568997,791.17302 3.0834827,771.09346 3.4967742,761.05368 5.7557154,750.23281 9.8655721,739.24748 13.975429,728.26215 19.937432,717.11155 27.747203,706.45198 c 7.809769,-10.65958 16.729814,-19.81299 26.137336,-27.18301 9.407522,-7.37002 19.301009,-12.95493 29.01905,-16.5188 9.718041,-3.56388 19.256811,-5.10615 27.956791,-4.45022 8.69998,0.65593 16.55616,3.50863 22.97886,8.68144 z"
         id="path4137"
         inkscape:original-d="m 174.3808,785.68071 c 17.52438,27.87122 -3.4895,72.61045 -46.93582,99.92787 -43.446316,27.31742 -92.872835,26.86847 -110.397216,-1.00275 -17.524381,-27.87122 3.4895,-72.61045 46.935821,-99.92787 43.446315,-27.31742 92.872835,-26.86847 110.397215,1.00275 z" />
      <path
         inkscape:connector-curvature="0"
         style="fill:#4f90ca;fill-opacity:1;stroke:none"
         d="m 115.05182,675.42658 c 5.31224,4.12887 8.99399,9.76213 11.16215,16.37413 2.16815,6.612 2.82609,14.20291 2.09227,22.2901 -0.73381,8.08719 -2.85698,16.67139 -6.29343,25.30618 -3.43644,8.6348 -8.18541,17.32121 -14.23693,25.63595 -12.103018,16.6295 -27.184761,28.67328 -42.208615,34.78273 -15.023854,6.10944 -29.990524,6.26069 -41.224598,-1.26308 C 13.108594,791.02882 7.7955045,777.21191 8.5067569,760.849 9.2180092,744.48609 15.950525,725.57304 28.663137,708.20959 c 12.712614,-17.36346 29.009887,-29.82243 44.790109,-35.74336 7.890111,-2.96046 15.643875,-4.29314 22.743647,-3.84493 7.099777,0.44822 13.542687,2.67641 18.854927,6.80528 z"
         id="path4139"
         inkscape:original-d="m 154.09697,787.4685 c 14.27875,22.70929 -2.84322,59.16252 -38.243,81.42057 -35.399776,22.25806 -75.672179,21.89226 -89.95093,-0.81703 -14.278751,-22.70929 2.843222,-59.16253 38.243001,-81.42058 35.399783,-22.25805 75.672179,-21.89225 89.950929,0.81704 z" />
      <path
         inkscape:connector-curvature="0"
         style="fill:#000000;fill-opacity:1;stroke:none"
         d="m 81.258319,696.31809 c 5.884192,4.31296 8.349168,11.93894 7.698916,20.73971 -0.650252,8.80078 -4.399815,18.78066 -11.084137,27.94455 -6.684324,9.16389 -15.064362,15.79636 -23.319204,19.14116 -8.254842,3.3448 -16.388944,3.39725 -22.43787,-0.71172 -6.048926,-4.10898 -8.851202,-11.61646 -8.414594,-20.46638 0.436609,-8.84992 4.115961,-19.04204 10.96502,-28.40992 6.849057,-9.36788 15.566396,-16.11884 24.034882,-19.4145 8.468485,-3.29565 16.672799,-3.13587 22.556987,1.1771 z"
         id="path4141"
         inkscape:original-d="m 115.79873,795.25358 c 7.72451,12.28525 -1.53812,32.00568 -20.688656,44.04682 -19.15054,12.04114 -40.937062,11.84325 -48.661567,-0.442 -7.724505,-12.28525 1.538123,-32.00568 20.688662,-44.04682 19.150535,-12.04114 40.937061,-11.84325 48.661561,0.442 z" />
      <path
         inkscape:connector-curvature="0"
         style="fill:#bfd6ec;fill-opacity:1;stroke:none"
         d="m 179.18968,800.7634 c 5.96164,5.32331 10.13164,12.38724 12.67937,20.53618 2.54773,8.14895 3.47808,17.38337 2.92916,27.12531 -0.54892,9.74195 -2.57385,19.99283 -6.03054,30.2379 -3.45669,10.24507 -8.3447,20.48626 -14.74191,30.24649 -6.39721,9.76023 -13.71338,18.12247 -21.59032,24.92756 -7.87695,6.80509 -16.31692,12.05218 -24.86955,15.52299 -8.55263,3.47081 -17.21665,5.16373 -25.44265,4.82064 -8.226001,-0.3431 -16.010333,-2.72375 -22.742992,-7.41577 -6.732647,-4.692 -11.767532,-11.25533 -15.042258,-19.1437 -3.274725,-7.88836 -4.791625,-17.10103 -4.546876,-27.05326 0.244748,-9.95222 2.249657,-20.64419 5.990286,-31.45614 3.74063,-10.81195 9.217515,-21.74454 16.385739,-32.13609 7.168222,-10.39154 15.347914,-19.25161 23.952101,-26.31778 8.60419,-7.06617 17.63159,-12.33675 26.48839,-15.59728 8.8568,-3.26052 17.53998,-4.5106 25.48179,-3.60013 7.94181,0.91047 15.13863,3.97976 21.10026,9.30308 z"
         id="path4145"
         inkscape:original-d="m 174.3808,927.00722 c 17.52438,27.87122 -3.4895,72.61045 -46.93582,99.92788 -43.446316,27.3174 -92.872835,26.8685 -110.397216,-1.0028 -17.524381,-27.87118 3.4895,-72.61041 46.935821,-99.92783 C 107.4299,898.68705 156.85642,899.136 174.3808,927.00722 z" />
      <path
         inkscape:connector-curvature="0"
         style="fill:#4f90ca;fill-opacity:1;stroke:none"
         d="m 162.4509,808.52978 c 4.96686,4.24515 8.4875,9.93195 10.67052,16.53898 2.18302,6.60704 3.03118,14.13461 2.63147,22.10923 -0.39971,7.97462 -2.04546,16.39711 -4.90728,24.83326 -2.86182,8.43615 -6.93944,16.88707 -12.27622,24.94319 -5.33679,8.0561 -11.43668,14.95921 -17.97392,20.5715 -6.53725,5.61229 -13.51325,9.93337 -20.54793,12.78797 -7.03469,2.85461 -14.12747,4.24182 -20.838269,3.95944 -6.710801,-0.28239 -13.037651,-2.23537 -18.5007,-6.07343 -10.926085,-7.67609 -16.268458,-21.47811 -15.85717,-37.69304 0.411289,-16.21493 6.556119,-34.84333 18.222071,-51.76974 11.665955,-16.92642 26.619528,-28.87113 41.077038,-34.31466 7.22875,-2.72176 14.33218,-3.82616 20.85887,-3.17991 6.52668,0.64625 12.47467,3.04205 17.44152,7.28721 z"
         id="path4147"
         inkscape:original-d="m 154.09697,928.79501 c 14.27875,22.70929 -2.84322,59.16252 -38.243,81.42059 -35.399776,22.258 -75.672179,21.8922 -89.95093,-0.8171 -14.278751,-22.70924 2.843222,-59.16248 38.243001,-81.42053 35.399783,-22.25805 75.672179,-21.89225 89.950929,0.81704 z" />
      <path
         inkscape:connector-curvature="0"
         style="fill:#000000;fill-opacity:1;stroke:none"
         d="m 132.05628,828.23795 c 5.57236,4.42582 8.06878,12.04048 7.72039,20.73194 -0.34839,8.69147 -3.53067,18.4651 -9.52476,27.36657 -5.9941,8.90148 -13.70225,15.26727 -21.42771,18.39283 -7.72546,3.12555 -15.467695,3.00514 -21.316821,-1.19321 -5.849126,-4.19834 -8.670893,-11.69701 -8.428379,-20.46021 0.242514,-8.7632 3.548179,-18.78964 9.819038,-27.91858 6.270857,-9.12895 14.304352,-15.61073 22.135692,-18.66455 7.83134,-3.05383 15.45019,-2.68061 21.02255,1.74521 z"
         id="path4149"
         inkscape:original-d="m 115.79873,936.58009 c 7.72451,12.28525 -1.53812,32.00568 -20.688656,44.04682 -19.15054,12.04114 -40.937062,11.84325 -48.661567,-0.442 -7.724505,-12.28525 1.538123,-32.00568 20.688662,-44.04682 19.150535,-12.04114 40.937061,-11.84325 48.661561,0.442 z" />
      <path
         inkscape:connector-curvature="0"
         style="fill:#bfd6ec;fill-opacity:1;stroke:none"
         d="m 236.07202,206.98994 c 0.15027,0.11457 0.29917,0.22977 0.44669,0.34557 7.31995,5.72998 11.23683,12.9485 12.18151,21.03158 0.94468,8.08308 -1.07399,17.03521 -5.54235,26.39252 -4.81333,10.13558 -12.46302,20.74076 -22.30099,31.30704 -9.83796,10.56628 -21.85792,21.09758 -35.57759,31.12821 -20.61271,15.07022 -42.02519,26.83969 -62.2061,34.64667 -15.70908,6.14433 -30.771761,9.73335 -44.223931,10.31605 -13.452169,0.58271 -25.305254,-1.84566 -34.438436,-7.81856 -7.469304,-4.88476 -12.408969,-11.68505 -14.884258,-19.85744 -2.47529,-8.17239 -2.482073,-17.71628 0.01213,-28.03524 2.494201,-10.31896 7.493367,-21.41324 15.06854,-32.63547 7.575174,-11.22223 17.731362,-22.57306 30.51137,-33.34688 4.783778,-4.03282 9.765081,-7.84109 14.897488,-11.40907 12.632678,-8.63591 26.248398,-15.77871 40.079018,-21.22516 13.83062,-5.44646 27.87185,-9.19566 41.23779,-11.13238 13.36593,-1.93672 26.04933,-2.06224 37.13371,-0.34684 11.08438,1.71539 20.56072,5.26806 27.60541,10.6394 z"
         id="path4153"
         inkscape:original-d="m 344.07551,361.70118 c 17.52438,27.87122 -3.4895,72.61045 -46.93582,99.92787 -43.44632,27.31742 -92.87284,26.86847 -110.39722,-1.00275 -17.52438,-27.87122 3.4895,-72.61045 46.93582,-99.92787 43.44632,-27.31742 92.87284,-26.86847 110.39722,1.00275 z" />
      <path
         inkscape:connector-curvature="0"
         style="fill:#4f90ca;fill-opacity:1;stroke:none"
         d="m 205.224,213.62741 c 6.36188,4.67692 9.82756,10.74379 10.72005,17.64816 0.89249,6.90436 -0.77951,14.64819 -4.59052,22.77089 -3.81101,8.1227 -9.75457,16.62657 -17.41749,25.11023 -7.66291,8.48367 -17.04171,16.94906 -27.81038,25.02202 -15.86161,11.89102 -32.51965,21.29868 -48.40995,27.76311 -13.47718,5.54844 -26.480816,8.85393 -38.07186,9.52752 -11.591045,0.67358 -21.779705,-1.28825 -29.517742,-6.34272 -6.124146,-4.00029 -10.130862,-9.56426 -12.090599,-16.23991 -1.959738,-6.67564 -1.869343,-14.46259 0.268138,-22.87246 4.274963,-16.81973 16.77009,-36.16895 37.569438,-53.71428 4.707561,-3.97107 9.636891,-7.67684 14.721587,-11.09599 10.123818,-6.69536 20.903628,-12.23759 31.770868,-16.48258 10.86724,-4.24498 21.81934,-7.19234 32.22261,-8.7493 10.40328,-1.55695 20.25364,-1.72429 28.90256,-0.45763 8.64893,1.26665 16.09136,3.96529 21.73329,8.11294 z"
         id="path4155"
         inkscape:original-d="m 323.79168,363.48897 c 14.27875,22.70929 -2.84322,59.16252 -38.243,81.42057 -35.39978,22.25806 -75.67218,21.89226 -89.95093,-0.81703 -14.27875,-22.70929 2.84322,-59.16253 38.243,-81.42058 35.39978,-22.25805 75.67218,-21.89225 89.95093,0.81704 z" />
      <path
         inkscape:connector-curvature="0"
         style="fill:#000000;fill-opacity:1;stroke:none"
         d="m 150.1182,232.29959 c 6.89247,4.77163 7.97419,12.72501 4.40872,21.67543 -3.56546,8.95041 -11.72511,18.91265 -23.26924,27.97264 -7.45115,5.84775 -15.40781,10.61403 -23.19955,14.12225 -8.070896,3.68331 -15.996752,5.95342 -23.045052,6.5677 -7.048301,0.61428 -13.224278,-0.42853 -17.76168,-3.40216 -6.699483,-4.39057 -8.575977,-12.1782 -6.006364,-21.27509 2.569613,-9.09689 9.618207,-19.50212 20.851024,-28.95404 3.534489,-2.97411 7.271411,-5.67514 11.117235,-8.07579 1e-6,0 3e-6,0 4e-6,0 10.461373,-6.42582 21.773083,-10.63236 31.938443,-12.1874 10.16536,-1.55505 19.15838,-0.46446 24.96646,3.55646 z"
         id="path4157"
         inkscape:original-d="m 285.49344,371.27405 c 7.72451,12.28525 -1.53812,32.00568 -20.68866,44.04682 -19.15054,12.04114 -40.93706,11.84325 -48.66157,-0.442 -7.7245,-12.28525 1.53813,-32.00568 20.68867,-44.04682 19.15053,-12.04114 40.93706,-11.84325 48.66156,0.442 z" />
      <path
         inkscape:connector-curvature="0"
         style="fill:#bfd6ec;fill-opacity:1;stroke:none"
         d="m 255.71755,346.94387 c 0.13291,0.11717 0.26462,0.23493 0.39514,0.35327 6.46747,5.8529 9.98305,13.12254 10.9431,21.20356 0.96004,8.08103 -0.62713,16.97736 -4.30394,26.22055 -3.96843,10.00946 -10.36443,20.42338 -18.66111,30.73151 -8.29668,10.30814 -18.48901,20.5142 -30.23511,30.14768 -17.64759,14.47354 -36.2271,25.56776 -54.04215,32.70843 -13.95786,5.618 -27.48949,8.73689 -39.70888,8.93533 -12.21939,0.19844 -23.134542,-2.52904 -31.676247,-8.69179 -6.985582,-5.04002 -11.7159,-11.90844 -14.211088,-20.07439 -2.495188,-8.16595 -2.752022,-17.62864 -0.727794,-27.79687 2.024227,-10.16824 6.332696,-21.0421 12.984603,-31.97483 6.651908,-10.93273 15.651566,-21.92484 27.019106,-32.26906 4.25506,-3.87202 8.69042,-7.51522 13.2632,-10.91501 11.19257,-8.23031 23.2533,-14.978 35.48691,-20.05613 12.2336,-5.07814 24.63612,-8.48577 36.42537,-10.11902 11.78924,-1.63324 22.9588,-1.49325 32.71792,0.44186 9.75912,1.93511 18.1001,5.66191 24.33097,11.15491 z"
         id="path4161"
         inkscape:original-d="m 344.07551,503.02769 c 17.52438,27.87122 -3.4895,72.61045 -46.93582,99.92787 -43.44632,27.31742 -92.87284,26.86847 -110.39722,-1.00275 -17.52438,-27.87122 3.4895,-72.61045 46.93582,-99.92787 43.44632,-27.31742 92.87284,-26.86847 110.39722,1.00275 z" />
      <path
         inkscape:connector-curvature="0"
         style="fill:#4f90ca;fill-opacity:1;stroke:none"
         d="m 228.89793,352.93929 c 5.67554,4.79354 8.82386,10.91157 9.74573,17.8111 0.92187,6.89953 -0.37491,14.58238 -3.52168,22.59186 -3.14677,8.00949 -8.13787,16.34776 -14.63883,24.61388 -6.50096,8.26611 -14.50899,16.46188 -23.78754,24.21181 -13.66675,11.4152 -28.19057,20.29536 -42.23961,26.24122 -11.99088,5.10173 -23.67511,8.00347 -34.19629,8.34553 -10.52118,0.34206 -19.88686,-1.87961 -27.110193,-7.09743 -5.716791,-4.12956 -9.545708,-9.75057 -11.522287,-16.42083 -1.97658,-6.67026 -2.098271,-14.3893 -0.356376,-22.67371 3.483791,-16.56881 14.459271,-35.43805 32.955676,-52.28305 4.18633,-3.81257 8.57616,-7.35523 13.10843,-10.60835 8.97368,-6.37144 18.53189,-11.5969 28.16139,-15.54476 9.62951,-3.94785 19.32797,-6.6177 28.53562,-7.92625 9.20764,-1.30855 17.92089,-1.25652 25.57822,0.19307 7.65733,1.44958 14.25447,4.29483 19.28774,8.54591 z"
         id="path4163"
         inkscape:original-d="m 323.79168,504.81548 c 14.27875,22.70929 -2.84322,59.16252 -38.243,81.42057 -35.39978,22.25806 -75.67218,21.89226 -89.95093,-0.81703 -14.27875,-22.70929 2.84322,-59.16253 38.243,-81.42058 35.39978,-22.25805 75.67218,-21.89225 89.95093,0.81704 z" />
      <path
         inkscape:connector-curvature="0"
         style="fill:#000000;fill-opacity:1;stroke:none"
         d="m 180.69745,370.28679 c 6.24229,4.91263 7.38934,12.85207 4.45351,21.66571 -2.93583,8.81364 -9.90899,18.51507 -19.96495,27.20564 -6.49061,5.60931 -13.48205,10.12047 -20.38759,13.3791 -7.19586,3.42032 -14.31707,5.44608 -20.70207,5.85749 -6.38499,0.4114 -12.03795,-0.79303 -16.25437,-3.86609 -6.22555,-4.5374 -8.148829,-12.31049 -6.03904,-21.26497 2.10978,-8.95447 8.28052,-19.08837 18.25551,-28.15891 3.13871,-2.85411 6.4655,-5.43133 9.89513,-7.70689 0,0 0,0 0,0 9.27692,-6.09223 19.33432,-9.97629 28.39154,-11.26462 9.05721,-1.28834 17.09214,0.0138 22.35233,4.15354 z"
         id="path4165"
         inkscape:original-d="m 285.49344,512.60056 c 7.72451,12.28525 -1.53812,32.00568 -20.68866,44.04682 -19.15054,12.04114 -40.93706,11.84325 -48.66157,-0.442 -7.7245,-12.28525 1.53813,-32.00568 20.68867,-44.04682 19.15053,-12.04114 40.93706,-11.84325 48.66156,0.442 z" />
      <path
         inkscape:connector-curvature="0"
         style="fill:#bfd6ec;fill-opacity:1;stroke:none"
         d="m 275.36308,486.8978 c 0.11555,0.11977 0.23008,0.24009 0.34359,0.36097 5.61499,5.97581 8.72928,13.29657 9.70469,21.37554 0.9754,8.07898 -0.18028,16.91951 -3.06553,26.04857 -3.12354,9.88335 -8.26583,20.10602 -15.02123,30.156 -6.7554,10.04998 -15.12011,19.93081 -24.89264,29.16714 -14.68246,13.87685 -30.42899,24.29584 -45.8782,30.77018 -12.20664,5.09169 -24.20721,7.74044 -35.19382,7.55462 -10.98662,-0.18583 -20.96383,-3.21243 -28.91406,-9.56502 -6.50186,-5.19528 -11.02283,-12.13183 -13.53791,-20.29134 -2.51509,-8.15951 -3.02198,-17.541 -1.46772,-27.55851 1.55425,-10.01751 5.17202,-20.67096 10.90066,-31.31419 5.72865,-10.64323 13.57178,-21.27662 23.52684,-31.19123 3.72636,-3.71121 7.61577,-7.18934 11.62891,-10.42094 9.75246,-7.82472 20.25822,-14.17729 30.8948,-18.88712 10.63659,-4.70982 21.4004,-7.77587 31.61295,-9.10564 10.21255,-1.32977 19.86827,-0.92427 28.30213,1.23055 8.43387,2.15483 15.6395,6.05575 21.05654,11.67042 z"
         id="path4169"
         inkscape:original-d="m 344.07551,644.3542 c 17.52438,27.87122 -3.4895,72.61045 -46.93582,99.92787 -43.44632,27.31742 -92.87284,26.86847 -110.39722,-1.00275 -17.52438,-27.87122 3.4895,-72.61045 46.93582,-99.92787 43.44632,-27.31742 92.87284,-26.86847 110.39722,1.00275 z" />
      <path
         inkscape:connector-curvature="0"
         style="fill:#4f90ca;fill-opacity:1;stroke:none"
         d="m 252.57185,492.25117 c 4.98922,4.91016 7.82017,11.07936 8.77142,17.97405 0.95126,6.89469 0.0297,14.51655 -2.45283,22.41282 -2.48254,7.89627 -6.52119,16.06896 -11.86019,24.11753 -5.339,8.04856 -11.97627,15.97469 -19.76469,23.40159 -11.47189,10.93938 -23.86149,19.29205 -36.06927,24.71934 -10.50457,4.65502 -20.86941,7.15301 -30.32072,7.16355 -9.45131,0.0105 -17.99402,-2.47099 -24.70265,-7.85215 -5.30943,-4.25884 -8.96055,-9.93687 -10.95397,-16.60175 -1.99342,-6.66489 -2.3272,-14.31602 -0.98089,-22.47496 1.34631,-8.15894 4.37455,-16.82556 9.09868,-25.48067 4.72412,-8.65512 11.1465,-17.29882 19.24323,-25.37116 3.6651,-3.65405 7.51544,-7.03362 11.49527,-10.1207 7.82355,-6.04752 16.16016,-10.95621 24.55193,-14.60694 8.39177,-3.65073 16.83659,-6.04305 24.84861,-7.1032 8.01202,-1.06015 15.58815,-0.78874 22.25388,0.84377 6.66573,1.63251 12.41758,4.62437 16.84219,8.97888 z"
         id="path4171"
         inkscape:original-d="m 323.79168,646.14199 c 14.27875,22.70929 -2.84322,59.16252 -38.243,81.42057 -35.39978,22.25806 -75.67218,21.89226 -89.95093,-0.81703 -14.27875,-22.70929 2.84322,-59.16253 38.243,-81.42058 35.39978,-22.25805 75.67218,-21.89225 89.95093,0.81704 z" />
      <path
         inkscape:connector-curvature="0"
         style="fill:#000000;fill-opacity:1;stroke:none"
         d="m 211.2767,508.274 c 5.59211,5.05363 6.80449,12.97913 4.4983,21.65598 -2.3062,8.67686 -8.09287,18.11748 -16.66066,26.43864 -5.53007,5.37088 -11.55628,9.62692 -17.57563,12.63596 -6.32083,3.15733 -12.63739,4.93874 -18.35908,5.14727 -5.72169,0.20852 -10.85163,-1.15752 -14.74707,-4.33003 -5.75162,-4.68422 -7.72168,-12.44278 -6.07172,-21.25484 1.64996,-8.81206 6.94284,-18.67461 15.66,-27.36378 2.74292,-2.73411 5.65958,-5.18752 8.67302,-7.33799 0,0 1e-5,0 1e-5,0 8.09247,-5.75865 16.89555,-9.32022 24.84462,-10.34184 7.94907,-1.02163 15.0259,0.49207 19.73821,4.75063 z"
         id="path4173"
         inkscape:original-d="m 285.49344,653.92707 c 7.72451,12.28525 -1.53812,32.00568 -20.68866,44.04682 -19.15054,12.04114 -40.93706,11.84325 -48.66157,-0.442 -7.7245,-12.28525 1.53813,-32.00568 20.68867,-44.04682 19.15053,-12.04114 40.93706,-11.84325 48.66156,0.442 z" />
      <path
         inkscape:connector-curvature="0"
         style="fill:#bfd6ec;fill-opacity:1;stroke:none"
         d="m 295.0086,626.85173 c 0.0982,0.12236 0.19554,0.24526 0.29205,0.36868 4.76251,6.09871 7.47551,13.47059 8.46628,21.54751 0.99077,8.07692 0.26657,16.86166 -1.82712,25.87659 -2.27865,9.75725 -6.16724,19.78866 -11.38136,29.58049 -5.21412,9.79183 -11.75119,19.34741 -19.55016,28.1866 -11.71732,13.28017 -24.63089,23.02392 -37.71424,28.83194 -10.45542,4.56536 -20.92494,6.74398 -30.67878,6.17389 -9.75383,-0.57009 -18.79311,-3.89581 -26.15186,-10.43824 -6.01813,-5.35054 -10.32976,-12.35523 -12.86474,-20.5083 -2.53499,-8.15307 -3.29193,-17.45335 -2.20765,-27.32013 1.08428,-9.86679 4.01136,-20.29982 8.81673,-30.65355 4.80538,-10.35374 11.49198,-20.6284 20.03458,-30.11341 3.19764,-3.5504 6.5411,-6.86347 9.99462,-9.92687 8.31234,-7.41913 17.26312,-13.37659 26.30269,-17.7181 9.03957,-4.3415 18.16467,-7.06598 26.80053,-8.09227 8.63586,-1.02629 16.77773,-0.35529 23.88634,2.01925 7.10861,2.37453 13.17888,6.44959 17.78209,12.18592 z"
         id="path4177"
         inkscape:original-d="m 344.07551,785.68071 c 17.52438,27.87122 -3.4895,72.61045 -46.93582,99.92787 -43.44632,27.31742 -92.87284,26.86847 -110.39722,-1.00275 -17.52438,-27.87122 3.4895,-72.61045 46.93582,-99.92787 43.44632,-27.31742 92.87284,-26.86847 110.39722,1.00275 z" />
      <path
         inkscape:connector-curvature="0"
         style="fill:#4f90ca;fill-opacity:1;stroke:none"
         d="m 276.24578,631.56304 c 4.30288,5.02679 6.81647,11.24715 7.79711,18.137 0.98063,6.88986 0.4343,14.45074 -1.384,22.23379 -1.8183,7.78305 -4.90449,15.79016 -9.08154,23.62118 -4.17705,7.83101 -9.44354,15.48751 -15.74184,22.59137 -9.27702,10.46357 -19.5324,18.28873 -29.89894,23.19745 -9.01826,4.20833 -18.0637,6.30256 -26.44514,5.98157 -8.38144,-0.32099 -16.10118,-3.06236 -22.2951,-8.60686 -4.90208,-4.38811 -8.37539,-10.12317 -10.38566,-16.78268 -2.01026,-6.6595 -2.55613,-14.24272 -1.6054,-22.2762 0.95072,-8.03347 3.39935,-16.51697 7.35691,-24.93321 3.95756,-8.41624 9.42598,-16.76522 16.37123,-24.48739 3.14387,-3.49555 6.45472,-6.71201 9.88212,-9.63307 6.6734,-5.72359 13.78841,-10.31551 20.94245,-13.66911 7.15404,-3.3536 14.34523,-5.46841 21.16161,-6.28015 6.81639,-0.81174 13.25542,-0.32097 18.92955,1.49447 5.67413,1.81544 10.58069,4.95392 14.39664,9.41184 z"
         id="path4179"
         inkscape:original-d="m 323.79168,787.4685 c 14.27875,22.70929 -2.84322,59.16252 -38.243,81.42057 -35.39978,22.25806 -75.67218,21.89226 -89.95093,-0.81703 -14.27875,-22.70929 2.84322,-59.16253 38.243,-81.42058 35.39978,-22.25805 75.67218,-21.89225 89.95093,0.81704 z" />
      <path
         inkscape:connector-curvature="0"
         style="fill:#000000;fill-opacity:1;stroke:none"
         d="m 241.85595,646.2612 c 4.94193,5.19463 6.21965,13.10619 4.54309,21.64627 -1.67656,8.54008 -6.27675,17.71989 -13.35637,25.67163 -4.56954,5.13244 -9.63052,9.13336 -14.76368,11.89282 -5.44578,2.89434 -10.9577,4.43139 -16.01608,4.43704 -5.05838,0.006 -9.66531,-1.522 -13.23977,-4.79395 -5.27769,-4.83105 -7.29453,-12.57507 -6.1044,-21.24472 1.19014,-8.66965 5.60515,-18.26086 13.0645,-26.56865 2.34713,-2.61411 4.85366,-4.94371 7.45091,-6.9691 0,0 0,0 0,0 6.90802,-5.42505 14.4568,-8.66414 21.29772,-9.41905 6.84092,-0.75492 12.95966,0.97034 17.12408,5.34771 z"
         id="path4181"
         inkscape:original-d="m 285.49344,795.25358 c 7.72451,12.28525 -1.53812,32.00568 -20.68866,44.04682 -19.15054,12.04114 -40.93706,11.84325 -48.66157,-0.442 -7.7245,-12.28525 1.53813,-32.00568 20.68867,-44.04682 19.15053,-12.04114 40.93706,-11.84325 48.66156,0.442 z" />
      <path
         inkscape:connector-curvature="0"
         style="fill:#bfd6ec;fill-opacity:1;stroke:none"
         d="m 314.65413,766.80566 c 0.0808,0.12496 0.161,0.25042 0.24051,0.37638 3.91001,6.22162 6.22172,13.64462 7.22786,21.71949 1.00613,8.07487 0.71342,16.8038 -0.58871,25.70461 -1.43375,9.63114 -4.06865,19.4713 -7.74148,29.00498 -3.67284,9.53368 -8.38229,18.76403 -14.20768,27.20606 -4.3761,6.34174 -9.07371,11.77427 -14.0272,16.26964 -4.9535,4.49537 -10.16434,8.05321 -15.52309,10.62406 -8.7042,4.03904 -17.64267,5.74753 -26.16373,4.79317 -8.52106,-0.95436 -16.6224,-4.57921 -23.38968,-11.31151 -5.53441,-5.50579 -9.63669,-12.5786 -12.19157,-20.72522 -2.55488,-8.14663 -3.56187,-17.36571 -2.94756,-27.08176 0.61431,-9.71606 2.85068,-19.92867 6.73279,-29.99291 3.88211,-10.06424 9.41219,-19.98018 16.54231,-29.03558 2.66893,-3.38959 5.46645,-6.5376 8.36033,-9.43281 6.87223,-7.01353 14.26804,-12.57588 21.71059,-16.54907 7.44255,-3.97319 14.92894,-6.35609 21.98811,-7.07891 7.05916,-0.72281 13.68719,0.2137 19.47054,2.80795 5.78335,2.59425 10.71828,6.84344 14.50766,12.70143 z"
         id="path4185"
         inkscape:original-d="m 344.07551,927.00722 c 17.52438,27.87122 -3.4895,72.61045 -46.93582,99.92788 -43.44632,27.3174 -92.87284,26.8685 -110.39722,-1.0028 -17.52438,-27.87118 3.4895,-72.61041 46.93582,-99.92783 43.44632,-27.31742 92.87284,-26.86847 110.39722,1.00275 z" />
      <path
         inkscape:connector-curvature="0"
         style="fill:#4f90ca;fill-opacity:1;stroke:none"
         d="m 299.9197,770.87492 c 3.61656,5.14341 5.81279,11.41493 6.8228,18.29995 1.01002,6.88502 0.83891,14.38492 -0.31516,22.05475 -1.15406,7.66984 -3.2878,15.51137 -6.30289,23.12483 -3.01508,7.61347 -6.91081,15.00034 -11.71898,21.78117 -7.08217,9.98774 -15.20334,17.28539 -23.72862,21.67552 -7.53196,3.76162 -15.258,5.45209 -22.56958,4.79957 -7.31157,-0.65251 -14.20833,-3.65373 -19.88754,-9.36158 -4.49472,-4.51737 -7.79024,-10.30945 -9.81734,-16.96357 -2.02711,-6.65412 -2.78506,-14.16942 -2.22992,-22.07743 0.55514,-7.90801 2.42415,-16.20839 5.61515,-24.38575 3.191,-8.17736 7.70545,-16.23162 13.49923,-23.60362 2.62264,-3.33705 5.394,-6.39041 8.26896,-9.14543 5.52327,-5.39967 11.41668,-9.67482 17.33299,-12.73129 5.91631,-3.05648 11.85385,-4.89376 17.47461,-5.4571 5.62076,-0.56334 10.92267,0.1468 15.6052,2.14517 4.68254,1.99837 8.7438,5.28346 11.95109,9.84481 z"
         id="path4187"
         inkscape:original-d="m 323.79168,928.79501 c 14.27875,22.70929 -2.84322,59.16252 -38.243,81.42059 -35.39978,22.258 -75.67218,21.8922 -89.95093,-0.8171 -14.27875,-22.70924 2.84322,-59.16248 38.243,-81.42053 35.39978,-22.25805 75.67218,-21.89225 89.95093,0.81704 z" />
      <path
         inkscape:connector-curvature="0"
         style="fill:#000000;fill-opacity:1;stroke:none"
         d="m 272.4352,784.24841 c 4.29175,5.33563 5.6348,13.23324 4.58787,21.63654 -1.04692,8.4033 -4.46062,17.3223 -10.05207,24.90464 -3.609,4.894 -7.70476,8.63979 -11.95172,11.14966 -4.57074,2.63135 -9.27803,3.92405 -13.6731,3.72683 -4.39507,-0.19722 -8.47898,-1.88649 -11.73245,-5.25788 -4.80376,-4.97787 -6.86739,-12.70737 -6.13708,-21.2346 0.7303,-8.52723 4.26746,-17.84711 10.46898,-25.77353 1.95135,-2.4941 4.04774,-4.69989 6.2288,-6.60019 0,0 1e-5,0 1e-5,0 5.72357,-5.09147 12.01803,-8.00807 17.7508,-8.49627 5.73278,-0.48821 10.89342,1.44861 14.50996,5.9448 z"
         id="path4189"
         inkscape:original-d="m 285.49344,936.58009 c 7.72451,12.28525 -1.53812,32.00568 -20.68866,44.04682 -19.15054,12.04114 -40.93706,11.84325 -48.66157,-0.442 -7.7245,-12.28525 1.53813,-32.00568 20.68867,-44.04682 19.15053,-12.04114 40.93706,-11.84325 48.66156,0.442 z" />
      <path
         inkscape:connector-curvature="0"
         style="fill:#bfd6ec;fill-opacity:1;stroke:none"
         d="m 508.08877,205.47333 c 5.99115,7.80759 7.89434,16.19563 6.43096,24.61487 -1.46337,8.41923 -6.28907,16.87738 -13.80762,25.02267 -7.51855,8.14528 -17.72687,15.98322 -30.06066,23.25958 -12.33378,7.27636 -26.78983,13.99415 -42.95552,19.93269 -14.7192,5.40716 -29.59635,9.71184 -44.16951,12.94552 -12.36173,2.77032 -24.40126,4.76676 -35.86654,5.93789 -11.46529,1.17114 -22.35794,1.51613 -32.41475,0.94147 -10.05682,-0.57467 -19.27948,-2.07006 -27.36911,-4.60768 -8.08964,-2.53762 -15.04826,-6.11896 -20.51387,-10.87479 -7.07642,-6.15745 -10.98184,-13.71711 -11.82262,-22.22089 -0.84079,-8.50378 1.39089,-17.94953 6.67404,-27.69641 5.28315,-9.74689 13.62517,-19.79277 24.97663,-29.34473 11.35146,-9.55196 25.71956,-18.60655 42.91686,-26.25992 17.29898,-7.69862 35.81003,-13.22109 54.27365,-16.49219 13.73961,-2.39195 27.28783,-3.54288 40.11789,-3.51849 12.83006,0.0244 24.94075,1.22269 35.85091,3.47312 10.91016,2.25042 20.61914,5.55087 28.70535,9.7497 8.0862,4.19882 14.5494,9.29344 19.03391,15.13759 z"
         id="path4193"
         inkscape:original-d="m 513.77022,361.70118 c 17.52438,27.87122 -3.4895,72.61045 -46.93582,99.92787 -43.44632,27.31742 -92.87284,26.86847 -110.39722,-1.00275 -17.52438,-27.87122 3.4895,-72.61045 46.93582,-99.92787 43.44632,-27.31742 92.87284,-26.86847 110.39722,1.00275 z" />
      <path
         inkscape:connector-curvature="0"
         style="fill:#4f90ca;fill-opacity:1;stroke:none"
         d="m 475.82519,203.59295 c 5.11324,6.20527 6.91412,12.98281 5.94424,19.87803 -0.96987,6.89522 -4.70727,13.91296 -10.70214,20.73235 -5.99488,6.8194 -14.24483,13.44402 -24.31258,19.62322 -10.06774,6.17921 -21.95103,11.91514 -35.31969,16.98444 -9.2071,3.49127 -18.52275,6.44116 -27.76749,8.8623 -11.11187,2.93647 -22.03267,5.1094 -32.4744,6.48604 -10.44173,1.37663 -20.40598,1.95624 -29.60161,1.66409 -9.19562,-0.29216 -17.62428,-1.45712 -24.96733,-3.59824 -7.34305,-2.14112 -13.60244,-5.25991 -18.40504,-9.46933 -5.80148,-5.08493 -8.92803,-11.29114 -9.50514,-18.22994 -0.57712,-6.93881 1.40066,-14.6084 5.8648,-22.49584 4.46414,-7.88745 11.41964,-15.99103 20.77684,-23.69891 9.35721,-7.70789 21.12077,-15.01773 35.10767,-21.24881 17.20705,-7.66564 35.77669,-12.77259 53.89649,-15.25571 20.3984,-2.7331 39.83628,-2.14418 55.83527,1.33969 15.999,3.48387 28.54885,9.83303 35.63011,18.42662 z"
         id="path4195"
         inkscape:original-d="m 493.48639,363.48897 c 14.27875,22.70929 -2.84322,59.16252 -38.243,81.42057 -35.39978,22.25806 -75.67218,21.89226 -89.95093,-0.81703 -14.27875,-22.70929 2.84322,-59.16253 38.243,-81.42058 35.39978,-22.25805 75.67218,-21.89225 89.95093,0.81704 z" />
      <path
         inkscape:connector-curvature="0"
         style="fill:#000000;fill-opacity:1;stroke:none"
         d="m 414.08582,207.22803 c 5.74834,6.12213 5.00627,13.72239 -0.54387,21.18062 -5.55014,7.45822 -15.88395,14.80099 -29.60948,20.75579 -1.10751,0.48343 -2.23643,0.95795 -3.38607,1.42291 -14.82213,5.99461 -30.26354,9.30982 -43.59491,9.81081 -13.33138,0.50099 -24.59719,-1.83726 -30.91098,-7.52197 -3.15689,-2.84236 -4.76758,-6.25773 -4.94409,-10.02019 -0.17651,-3.76246 1.08292,-7.87126 3.68289,-12.06244 5.19994,-8.38235 15.79534,-17.1094 30.85465,-23.77537 7.97304,-3.52925 16.38896,-6.11723 24.68645,-7.74287 8.29749,-1.62563 16.47458,-2.28917 23.95157,-2.01955 13.29113,0.5188 24.18574,3.97818 29.81384,9.97226 z"
         id="path4197"
         inkscape:original-d="m 455.18815,371.27405 c 7.72451,12.28525 -1.53812,32.00568 -20.68866,44.04682 -19.15054,12.04114 -40.93706,11.84325 -48.66157,-0.442 -7.7245,-12.28525 1.53813,-32.00568 20.68867,-44.04682 19.15053,-12.04114 40.93706,-11.84325 48.66156,0.442 z" />
      <path
         inkscape:connector-curvature="0"
         style="fill:#bfd6ec;fill-opacity:1;stroke:none"
         d="m 489.85698,345.62601 c 5.05928,7.68578 6.5491,16.01239 5.12462,24.43713 -1.42447,8.42474 -5.75833,16.95462 -12.37277,25.21713 -6.61445,8.26252 -15.5058,16.26256 -26.13426,23.70789 -10.62845,7.44533 -22.99029,14.33842 -36.68943,20.41209 -12.47336,5.53021 -24.98797,9.91232 -37.18303,13.1719 -20.68926,5.54918 -40.33638,7.89039 -57.32436,6.52533 -8.49399,-0.68253 -16.31969,-2.30085 -23.2243,-4.9568 -6.90461,-2.65596 -12.88984,-6.3507 -17.63899,-11.19449 -6.1488,-6.27134 -9.64276,-13.88892 -10.52227,-22.38753 -0.87951,-8.49861 0.86261,-17.8768 5.24577,-27.51414 4.38317,-9.63734 11.41421,-19.53232 21.06795,-28.92985 9.65373,-9.39752 21.93687,-18.29471 36.67828,-25.83406 14.82858,-7.58393 30.72683,-13.04906 46.57221,-16.32571 11.79114,-2.41318 23.45209,-3.619 34.50832,-3.6757 11.05623,-0.0567 21.5064,1.03446 30.91537,3.16582 9.40898,2.13137 17.77593,5.30105 24.72128,9.37578 6.94536,4.07474 12.46862,9.05223 16.25561,14.80521 z"
         id="path4201"
         inkscape:original-d="m 513.77022,503.02769 c 17.52438,27.87122 -3.4895,72.61045 -46.93582,99.92787 -43.44632,27.31742 -92.87284,26.86847 -110.39722,-1.00275 -17.52438,-27.87122 3.4895,-72.61045 46.93582,-99.92787 43.44632,-27.31742 92.87284,-26.86847 110.39722,1.00275 z" />
      <path
         inkscape:connector-curvature="0"
         style="fill:#4f90ca;fill-opacity:1;stroke:none"
         d="m 461.97089,344.24224 c 4.33176,6.12972 5.78491,12.86887 4.84772,19.76752 -0.93719,6.89865 -4.26105,13.96117 -9.49787,20.85324 -5.23682,6.89206 -12.38382,13.61684 -21.02932,19.89875 -8.6455,6.28191 -18.78691,12.12274 -30.11441,17.26858 -7.80134,3.54398 -15.66053,6.52928 -23.43379,8.96644 -18.68662,5.88045 -36.74055,8.62853 -52.31202,7.87339 -7.78574,-0.37756 -14.94952,-1.64032 -21.22211,-3.87534 -6.2726,-2.23502 -11.65568,-5.44349 -15.82458,-9.72109 -5.03599,-5.16728 -7.82199,-11.415 -8.43112,-18.35008 -0.60912,-6.93508 0.96365,-14.55622 4.68522,-22.36439 3.72158,-7.80818 9.59656,-15.8021 17.56001,-23.39544 7.96345,-7.59334 18.01968,-14.78411 30.00509,-20.92277 14.74478,-7.55193 30.69043,-12.60233 46.23179,-15.09093 17.49555,-2.76471 34.23483,-2.28431 47.99832,1.0643 13.7635,3.34862 24.53806,9.53885 30.53707,18.02782 z"
         id="path4203"
         inkscape:original-d="m 493.48639,504.81548 c 14.27875,22.70929 -2.84322,59.16252 -38.243,81.42057 -35.39978,22.25806 -75.67218,21.89226 -89.95093,-0.81703 -14.27875,-22.70929 2.84322,-59.16253 38.243,-81.42058 35.39978,-22.25805 75.67218,-21.89225 89.95093,0.81704 z" />
      <path
         inkscape:connector-curvature="0"
         style="fill:#000000;fill-opacity:1;stroke:none"
         d="m 408.84055,348.44784 c 4.89202,6.09009 4.19886,13.69201 -0.57943,21.17929 -4.77829,7.48728 -13.61427,14.88327 -25.25296,20.8608 -0.93913,0.48379 -1.89629,0.95842 -2.87093,1.42321 -12.56581,5.99251 -25.64382,9.25349 -36.97732,9.66934 -11.33349,0.41586 -20.9633,-2.0345 -26.42454,-7.78211 -5.46124,-5.74762 -5.69318,-13.7566 -1.31997,-22.0783 4.37321,-8.3217 13.3961,-16.93798 26.28112,-23.51341 6.82188,-3.48132 14.0324,-6.03286 21.14089,-7.63617 7.1085,-1.60331 14.11306,-2.25856 20.51026,-1.99123 11.37157,0.49789 20.70318,3.90588 25.49288,9.86858 z"
         id="path4205"
         inkscape:original-d="m 455.18815,512.60056 c 7.72451,12.28525 -1.53812,32.00568 -20.68866,44.04682 -19.15054,12.04114 -40.93706,11.84325 -48.66157,-0.442 -7.7245,-12.28525 1.53813,-32.00568 20.68867,-44.04682 19.15053,-12.04114 40.93706,-11.84325 48.66156,0.442 z" />
      <path
         inkscape:connector-curvature="0"
         style="fill:#bfd6ec;fill-opacity:1;stroke:none"
         d="m 471.62519,485.77869 c 4.12741,7.56398 5.20386,15.82915 3.81829,24.25939 -1.38557,8.43024 -5.2276,17.03186 -10.93794,25.4116 -5.71034,8.37975 -13.28472,16.54189 -22.20785,24.1562 -8.92312,7.6143 -19.19074,14.68268 -30.42334,20.89148 -10.22753,5.65326 -20.3796,10.1128 -30.19655,13.39828 -16.65506,5.55773 -32.5051,7.75209 -46.36743,6.1713 -6.93116,-0.79039 -13.3599,-2.53165 -19.07949,-5.30593 -5.71959,-2.77429 -10.73143,-6.58243 -14.76411,-11.51418 -5.22118,-6.38522 -8.30368,-14.06074 -9.22192,-22.55417 -0.91823,-8.49344 0.33432,-17.80407 3.81751,-27.33186 3.48318,-9.5278 9.20323,-19.27188 17.15925,-28.51497 7.95602,-9.2431 18.15419,-17.98287 30.43972,-25.40821 12.35816,-7.46924 25.64363,-12.87704 38.87076,-16.15923 9.84268,-2.4344 19.61635,-3.69513 28.89875,-3.83291 9.28239,-0.13779 18.07205,0.84622 25.97984,2.85852 7.9078,2.01231 14.9327,5.05122 20.73721,9.00187 5.8045,3.95065 10.38784,8.81101 13.4773,14.47282 z"
         id="path4209"
         inkscape:original-d="m 513.77022,644.3542 c 17.52438,27.87122 -3.4895,72.61045 -46.93582,99.92787 -43.44632,27.31742 -92.87284,26.86847 -110.39722,-1.00275 -17.52438,-27.87122 3.4895,-72.61045 46.93582,-99.92787 43.44632,-27.31742 92.87284,-26.86847 110.39722,1.00275 z" />
      <path
         inkscape:connector-curvature="0"
         style="fill:#4f90ca;fill-opacity:1;stroke:none"
         d="m 448.11658,484.89153 c 3.55029,6.05417 4.6557,12.75492 3.7512,19.657 -0.90451,6.90208 -3.81482,14.00939 -8.29359,20.97413 -4.47876,6.96474 -10.52281,13.78967 -17.74607,20.17429 -7.22325,6.38462 -15.62279,12.33035 -24.90912,17.55272 -6.39557,3.59669 -12.79831,6.6174 -19.10009,9.07059 -15.14951,5.88794 -29.79633,8.52261 -42.54804,7.59665 -6.37585,-0.46298 -12.27475,-1.82354 -17.47689,-4.15245 -5.20214,-2.32891 -9.70891,-5.62708 -13.24412,-9.97285 -4.27048,-5.24964 -6.71594,-11.53885 -7.35708,-18.47022 -0.64114,-6.93136 0.52663,-14.50404 3.50564,-22.23294 2.97901,-7.72891 7.77347,-15.61318 14.34317,-23.09197 6.56969,-7.47879 14.91858,-14.55048 24.90252,-20.59672 12.2825,-7.43823 25.60416,-12.43209 38.56708,-14.92615 14.5927,-2.79633 28.63338,-2.42445 40.16138,0.78891 11.52799,3.21335 20.52727,9.24467 25.44401,17.62901 z"
         id="path4211"
         inkscape:original-d="m 493.48639,646.14199 c 14.27875,22.70929 -2.84322,59.16252 -38.243,81.42057 -35.39978,22.25806 -75.67218,21.89226 -89.95093,-0.81703 -14.27875,-22.70929 2.84322,-59.16253 38.243,-81.42058 35.39978,-22.25805 75.67218,-21.89225 89.95093,0.81704 z" />
      <path
         inkscape:connector-curvature="0"
         style="fill:#000000;fill-opacity:1;stroke:none"
         d="m 403.59528,489.66766 c 4.03571,6.05805 3.39145,13.66162 -0.61499,21.17795 -4.00644,7.51634 -11.3446,14.96555 -20.89644,20.96581 -0.77076,0.48414 -1.55616,0.95888 -2.35579,1.42351 -10.30948,5.99041 -21.02411,9.19716 -30.35973,9.52788 -9.33561,0.33072 -17.3294,-2.23174 -21.9381,-8.04226 -4.6087,-5.81052 -4.92523,-13.81292 -1.37874,-22.07398 3.54649,-8.26105 10.99685,-16.76656 21.70758,-23.25144 11.34144,-6.86676 24.02948,-10.02246 34.66428,-9.49238 9.45203,0.47698 17.22063,3.83357 21.17193,9.76491 z"
         id="path4213"
         inkscape:original-d="m 455.18815,653.92707 c 7.72451,12.28525 -1.53812,32.00568 -20.68866,44.04682 -19.15054,12.04114 -40.93706,11.84325 -48.66157,-0.442 -7.7245,-12.28525 1.53813,-32.00568 20.68867,-44.04682 19.15053,-12.04114 40.93706,-11.84325 48.66156,0.442 z" />
      <path
         inkscape:connector-curvature="0"
         style="fill:#bfd6ec;fill-opacity:1;stroke:none"
         d="m 453.3934,625.93137 c 3.19553,7.44217 3.85862,15.6459 2.51195,24.08165 -1.34667,8.43574 -4.69686,17.10909 -9.50309,25.60607 -4.80623,8.49698 -11.06366,16.82123 -18.28145,24.6045 -7.21779,7.78328 -15.39119,15.02695 -24.15725,21.37089 -7.98169,5.77629 -15.77122,10.31326 -23.21008,13.62464 -12.62085,5.56629 -24.67382,7.6138 -35.41049,5.81728 -5.36833,-0.89825 -10.40011,-2.76244 -14.93467,-5.65506 -4.53457,-2.89262 -8.57302,-6.81416 -11.88923,-11.83387 -4.29356,-6.49911 -6.96462,-14.23255 -7.92157,-22.72082 -0.95696,-8.48826 -0.19398,-17.73133 2.38923,-27.14958 2.5832,-9.41825 6.99227,-19.01142 13.25057,-28.10009 6.2583,-9.08867 14.3715,-17.67103 24.20114,-24.98235 9.88776,-7.35456 20.56043,-12.70501 31.16931,-15.99275 15.78844,-4.91124 31.52027,-5.22538 44.3335,-1.43889 6.40661,1.89324 12.08948,4.80139 16.75313,8.62795 4.66366,3.82656 8.30707,8.56979 10.699,14.14043 z"
         id="path4217"
         inkscape:original-d="m 513.77022,785.68071 c 17.52438,27.87122 -3.4895,72.61045 -46.93582,99.92787 -43.44632,27.31742 -92.87284,26.86847 -110.39722,-1.00275 -17.52438,-27.87122 3.4895,-72.61045 46.93582,-99.92787 43.44632,-27.31742 92.87284,-26.86847 110.39722,1.00275 z" />
      <path
         inkscape:connector-curvature="0"
         style="fill:#4f90ca;fill-opacity:1;stroke:none"
         d="m 434.26228,625.54082 c 2.76881,5.97862 3.52649,12.64097 2.65467,19.54648 -0.87182,6.90551 -3.36859,14.0576 -7.0893,21.09502 -3.72072,7.03742 -8.66181,13.9625 -14.46282,20.44983 -5.80101,6.48732 -12.45868,12.53795 -19.70385,17.83686 -4.9898,3.6494 -9.93608,6.70552 -14.76638,9.17474 -11.61239,5.89544 -22.85212,8.4167 -32.78405,7.31991 -4.96597,-0.5484 -9.59999,-2.00675 -13.73167,-4.42956 -4.13169,-2.42281 -7.76215,-5.81067 -10.66366,-10.22461 -3.50498,-5.33199 -5.6099,-11.6627 -6.28305,-18.59035 -0.67315,-6.92765 0.0896,-14.45186 2.32605,-22.1015 2.23644,-7.64964 5.9504,-15.42425 11.12634,-22.78849 5.17593,-7.36424 11.81749,-14.31687 19.79995,-20.27068 9.82022,-7.32453 20.51789,-12.26184 30.90237,-14.76137 11.68985,-2.82794 23.03193,-2.56458 32.32443,0.51351 9.29249,3.0781 16.51648,8.95049 20.35097,17.23021 z"
         id="path4219"
         inkscape:original-d="m 493.48639,787.4685 c 14.27875,22.70929 -2.84322,59.16252 -38.243,81.42057 -35.39978,22.25806 -75.67218,21.89226 -89.95093,-0.81703 -14.27875,-22.70929 2.84322,-59.16253 38.243,-81.42058 35.39978,-22.25805 75.67218,-21.89225 89.95093,0.81704 z" />
      <path
         inkscape:connector-curvature="0"
         style="fill:#000000;fill-opacity:1;stroke:none"
         d="m 398.35,630.88748 c 3.1794,6.02601 2.58404,13.63123 -0.65055,21.17662 -3.23459,7.54538 -9.07491,15.04782 -16.53991,21.0708 -0.60238,0.4845 -1.21603,0.95936 -1.84066,1.42383 -8.05315,5.9883 -16.40438,9.14082 -23.74212,9.3864 -7.33774,0.24559 -13.69551,-2.42898 -17.45167,-8.3024 -3.75616,-5.87342 -4.15728,-13.86924 -1.43751,-22.06965 2.71976,-8.20041 8.59761,-16.59514 17.13405,-22.98948 9.03912,-6.77089 19.20219,-9.88287 27.67741,-9.35736 7.53247,0.45607 13.73807,3.76127 16.85096,9.66124 z"
         id="path4221"
         inkscape:original-d="m 455.18815,795.25358 c 7.72451,12.28525 -1.53812,32.00568 -20.68866,44.04682 -19.15054,12.04114 -40.93706,11.84325 -48.66157,-0.442 -7.7245,-12.28525 1.53813,-32.00568 20.68867,-44.04682 19.15053,-12.04114 40.93706,-11.84325 48.66156,0.442 z" />
      <path
         inkscape:connector-curvature="0"
         style="fill:#bfd6ec;fill-opacity:1;stroke:none"
         d="m 435.16161,766.08404 c 2.26366,7.32038 2.51338,15.46267 1.20561,23.90392 -1.30776,8.44125 -4.16612,17.18633 -8.06824,25.80054 -3.90213,8.61421 -8.84259,17.10056 -14.35505,25.05281 -5.51245,7.95225 -11.59165,15.37121 -17.89116,21.85029 -5.73585,5.89934 -11.16284,10.51373 -16.2236,13.85102 -4.29333,2.78742 -8.49421,4.6535 -12.58261,5.57406 -4.0884,0.92056 -8.06543,0.89531 -11.87094,-0.11081 -3.80551,-1.00612 -7.44033,-2.99324 -10.78987,-6.0042 -3.34954,-3.01096 -6.4146,-7.04592 -9.01436,-12.15361 -3.36594,-6.61297 -5.62553,-14.40434 -6.62121,-22.88743 -0.99568,-8.48308 -0.72226,-17.65859 0.96096,-26.96729 1.68322,-9.3087 4.78131,-18.75097 9.34189,-27.68521 4.56057,-8.93423 10.5888,-17.35918 17.96256,-24.5565 7.41736,-7.23986 15.47723,-12.53297 23.46787,-15.82627 11.89151,-4.95368 23.97753,-5.45176 33.78839,-1.90339 4.90543,1.77419 9.24627,4.55157 12.76907,8.25404 3.5228,3.70247 6.22629,8.32858 7.92069,13.80803 z"
         id="path4225"
         inkscape:original-d="m 513.77022,927.00722 c 17.52438,27.87122 -3.4895,72.61045 -46.93582,99.92788 -43.44632,27.3174 -92.87284,26.8685 -110.39722,-1.0028 -17.52438,-27.87118 3.4895,-72.61041 46.93582,-99.92783 43.44632,-27.31742 92.87284,-26.86847 110.39722,1.00275 z" />
      <path
         inkscape:connector-curvature="0"
         style="fill:#4f90ca;fill-opacity:1;stroke:none"
         d="m 420.40798,766.1901 c 1.98733,5.90308 2.39728,12.52704 1.55814,19.43598 -0.83913,6.90894 -2.92236,14.10581 -5.88502,21.21591 -2.96266,7.11009 -6.8008,14.13533 -11.17957,20.72537 -4.37877,6.59003 -9.29455,12.74556 -14.49856,18.12101 -3.58404,3.7021 -7.07387,6.79363 -10.43269,9.27886 -8.07527,5.90293 -15.9079,8.31076 -23.02006,7.04314 -3.55608,-0.63381 -6.92522,-2.18997 -9.98645,-4.70667 -3.06123,-2.51671 -5.81539,-5.99427 -8.0832,-10.47639 -2.73948,-5.41433 -4.50386,-11.78653 -5.20902,-18.71045 -0.70516,-6.92392 -0.34741,-14.39967 1.14647,-21.97004 1.49388,-7.57037 4.12732,-15.23532 7.9095,-22.48501 3.78219,-7.24969 8.7164,-14.08324 14.69738,-19.94463 7.35796,-7.21083 15.43162,-12.0916 23.23766,-14.59659 8.78701,-2.85956 17.4305,-2.70472 24.48749,0.23812 7.05699,2.94283 12.50569,8.65631 15.25793,16.83139 z"
         id="path4227"
         inkscape:original-d="m 493.48639,928.79501 c 14.27875,22.70929 -2.84322,59.16252 -38.243,81.42059 -35.39978,22.258 -75.67218,21.8922 -89.95093,-0.8171 -14.27875,-22.70924 2.84322,-59.16248 38.243,-81.42053 35.39978,-22.25805 75.67218,-21.89225 89.95093,0.81704 z" />
      <path
         inkscape:connector-curvature="0"
         style="fill:#000000;fill-opacity:1;stroke:none"
         d="m 393.10473,772.1073 c 2.32309,5.99397 1.77663,13.60084 -0.68611,21.17528 -2.46274,7.57444 -6.80524,15.1301 -12.18339,21.17581 -0.434,0.48486 -0.8759,0.95983 -1.32552,1.42413 -5.79683,5.9862 -11.78467,9.08449 -17.12453,9.24494 -5.33986,0.16045 -10.06162,-2.62622 -12.96523,-8.56255 -2.90362,-5.93632 -3.38932,-13.92557 -1.49628,-22.06533 1.89304,-8.13976 6.19837,-16.42371 12.56052,-22.72752 6.73679,-6.67501 14.3749,-9.74326 20.69054,-9.22234 5.61292,0.43518 10.25551,3.68898 12.53,9.55758 z"
         id="path4229"
         inkscape:original-d="m 455.18815,936.58009 c 7.72451,12.28525 -1.53812,32.00568 -20.68866,44.04682 -19.15054,12.04114 -40.93706,11.84325 -48.66157,-0.442 -7.7245,-12.28525 1.53813,-32.00568 20.68867,-44.04682 19.15053,-12.04114 40.93706,-11.84325 48.66156,0.442 z" />
      <path
         inkscape:connector-curvature="0"
         style="fill:#bfd6ec;fill-opacity:1;stroke:none"
         d="m 750.05112,263.89958 c 3.38549,8.49769 3.23858,16.93365 0.2202,24.92236 -3.01839,7.98871 -8.909,15.53237 -17.10017,22.30206 -8.19117,6.76969 -18.68289,12.76668 -30.98581,17.69378 -12.30292,4.92711 -26.41538,8.78561 -41.94243,11.2916 -4.6761,0.7547 -9.34802,1.36528 -13.99955,1.83794 -13.6761,1.37728 -27.21954,1.64127 -40.21638,0.90866 -12.99684,-0.7326 -25.44891,-2.46196 -36.91693,-5.13316 -11.46802,-2.67121 -21.95452,-6.28567 -30.96199,-10.83912 -9.00746,-4.55346 -16.53838,-10.04899 -21.99824,-16.49957 -1.19482,-1.40518 -2.28976,-2.85516 -3.27817,-4.35016 -5.57345,-8.43008 -7.19161,-17.45584 -5.09047,-26.54189 2.10114,-9.08606 7.9323,-18.22612 17.18442,-26.6391 7.88819,-7.19142 18.25183,-13.85391 30.71242,-19.46433 12.4606,-5.61043 27.01823,-10.16541 43.12303,-13.14804 14.24375,-2.63796 28.58267,-3.83931 42.40502,-3.7422 13.82235,0.0971 27.12615,1.49142 39.37549,3.99055 17.52694,3.63156 32.95389,9.46261 44.93542,16.89266 11.98154,7.43006 20.52416,16.45276 24.53414,26.51796 0,0 0,0 0,0 z"
         id="path4233"
         inkscape:original-d="m 683.46493,361.70118 c 17.52438,27.87122 -3.4895,72.61045 -46.93582,99.92787 -43.44632,27.31742 -92.87284,26.86847 -110.39722,-1.00275 -17.52438,-27.87122 3.4895,-72.61045 46.93582,-99.92787 43.44632,-27.31742 92.87284,-26.86847 110.39722,1.00275 z" />
      <path
         inkscape:connector-curvature="0"
         style="fill:#4f90ca;fill-opacity:1;stroke:none"
         d="m 723.19625,256.91898 c 2.8931,6.79462 2.97715,13.57324 0.74577,20.02904 -2.23138,6.4558 -6.77824,12.59034 -13.2032,18.13588 -6.42496,5.54555 -14.72782,10.50311 -24.52797,14.62543 -9.80014,4.12231 -21.09664,7.4103 -33.57385,9.62291 -0.82349,0.1446 -1.65225,0.2848 -2.48622,0.42053 -12.97452,2.11176 -25.98018,2.94951 -38.49297,2.67208 -12.51279,-0.27743 -24.53493,-1.67024 -35.50913,-4.091 -10.97421,-2.42076 -20.90328,-5.87134 -29.15847,-10.32081 -8.25519,-4.44946 -14.83893,-9.90196 -19.01016,-16.33831 -4.17123,-6.43636 -5.52193,-13.25507 -4.23757,-20.09728 1.28437,-6.8422 5.20829,-13.70481 11.51856,-20.13114 6.31028,-6.42633 15.0098,-12.41304 25.72084,-17.45418 10.71105,-5.04115 23.434,-9.13356 37.64144,-11.77124 14.35445,-2.66496 28.8317,-3.58431 42.53879,-2.96817 13.70709,0.61614 26.64104,2.76535 38.02763,6.15925 10.98577,3.32559 20.55283,7.78975 28.08013,13.12704 7.52729,5.3373 13.01646,11.54582 15.92638,18.37997 z"
         id="path4235"
         inkscape:original-d="m 663.1811,363.48897 c 14.27875,22.70929 -2.84322,59.16252 -38.243,81.42057 -35.39978,22.25806 -75.67218,21.89226 -89.95093,-0.81703 -14.27875,-22.70929 2.84322,-59.16253 38.243,-81.42058 35.39978,-22.25805 75.67218,-21.89225 89.95093,0.81704 z" />
      <path
         inkscape:connector-curvature="0"
         style="fill:#000000;fill-opacity:1;stroke:none"
         d="m 669.98078,248.8359 c 0.69095,1.40881 1.14953,2.82287 1.39035,4.23146 0.71466,4.32965 -0.59681,8.60415 -3.54676,12.54531 -3.12138,4.13757 -8.07145,7.9096 -14.44949,11.02778 -6.37804,3.11817 -14.18369,5.58389 -23.07495,7.11795 -14.50383,2.50243 -29.18225,2.08115 -41.42081,-0.67191 -12.23856,-2.75306 -22.05578,-7.85934 -26.43561,-14.9519 -4.37983,-7.09256 -2.42312,-14.86543 4.56036,-21.64084 6.98348,-6.77541 19.01271,-12.52528 34.25954,-15.35038 15.24682,-2.82511 30.7377,-2.16048 43.19661,1.12201 12.4589,3.28249 21.88393,9.15528 25.52076,16.57052 z"
         id="path4237"
         inkscape:original-d="m 624.88286,371.27405 c 7.72451,12.28525 -1.53812,32.00568 -20.68866,44.04682 -19.15054,12.04114 -40.93706,11.84325 -48.66157,-0.442 -7.7245,-12.28525 1.53813,-32.00568 20.68867,-44.04682 19.15053,-12.04114 40.93706,-11.84325 48.66156,0.442 z" />
      <path
         inkscape:connector-curvature="0"
         style="fill:#bfd6ec;fill-opacity:1;stroke:none"
         d="m 704.62048,397.64085 c 2.90028,8.33586 2.54352,16.7009 -0.45491,24.69631 -2.99844,7.99542 -8.63837,15.62362 -16.35811,22.55043 -7.71974,6.92681 -17.51847,13.15368 -28.89435,18.38325 -11.37588,5.22957 -24.32653,9.46327 -38.43349,12.41951 -4.24842,0.8903 -8.48138,1.63943 -12.68448,2.25299 -12.28819,1.78696 -24.3311,2.45372 -35.77843,2.10099 -11.44732,-0.35274 -22.30113,-1.72508 -32.21363,-4.07403 -9.9125,-2.34896 -18.88688,-5.67584 -26.53814,-9.98522 -7.65127,-4.30937 -13.98297,-9.60418 -18.5214,-15.90501 -0.9911,-1.37313 -1.89618,-2.79378 -2.70962,-4.26211 -4.58688,-8.27968 -5.79639,-17.25134 -3.8132,-26.3541 1.9832,-9.10276 7.1708,-18.33135 15.33859,-26.91494 6.97364,-7.34005 16.11458,-14.20661 27.13422,-20.07716 11.01963,-5.87055 23.91874,-10.74183 38.24826,-14.09916 12.67362,-2.96935 25.47443,-4.52249 37.84937,-4.78583 12.37493,-0.26334 24.32195,0.7619 35.34218,2.89821 15.84746,3.10386 29.8098,8.46563 40.61003,15.51201 10.80023,7.04638 18.44183,15.77034 21.87711,25.64386 0,0 0,0 0,0 z"
         id="path4241"
         inkscape:original-d="m 683.46493,503.02769 c 17.52438,27.87122 -3.4895,72.61045 -46.93582,99.92787 -43.44632,27.31742 -92.87284,26.86847 -110.39722,-1.00275 -17.52438,-27.87122 3.4895,-72.61045 46.93582,-99.92787 43.44632,-27.31742 92.87284,-26.86847 110.39722,1.00275 z" />
      <path
         inkscape:connector-curvature="0"
         style="fill:#4f90ca;fill-opacity:1;stroke:none"
         d="m 680.09966,391.42929 c 2.47377,6.65803 2.37091,13.37521 0.15035,19.83455 -2.22056,6.45935 -6.55829,12.66255 -12.58828,18.33673 -6.02999,5.67418 -13.75153,10.82047 -22.7822,15.18966 -9.03068,4.3692 -19.36914,7.96233 -30.69074,10.53802 -0.74326,0.16829 -1.4908,0.33234 -2.24255,0.49207 -11.69553,2.48513 -23.30133,3.69787 -34.36395,3.77685 -11.06262,0.079 -21.58451,-0.97597 -31.11078,-3.09301 -9.52626,-2.11703 -18.06052,-5.2979 -25.10061,-9.52372 -7.0401,-4.22581 -12.58986,-9.50051 -16.04256,-15.81583 -3.45269,-6.31533 -4.47145,-13.08079 -3.21782,-19.92802 1.25362,-6.84723 4.78502,-13.77329 10.39985,-20.3171 5.61483,-6.5438 13.31679,-12.70214 22.80913,-17.9679 9.49233,-5.26576 20.77612,-9.63588 33.41577,-12.60478 12.77044,-2.99962 25.68713,-4.27671 37.94414,-4.02263 12.25702,0.25408 23.85116,2.03694 34.06211,5.08381 9.90237,2.98518 18.51678,7.14628 25.2585,12.23165 6.74173,5.08537 11.61149,11.0929 14.09964,17.78965 z"
         id="path4243"
         inkscape:original-d="m 663.1811,504.81548 c 14.27875,22.70929 -2.84322,59.16252 -38.243,81.42057 -35.39978,22.25806 -75.67218,21.89226 -89.95093,-0.81703 -14.27875,-22.70929 2.84322,-59.16253 38.243,-81.42058 35.39978,-22.25805 75.67218,-21.89225 89.95093,0.81704 z" />
      <path
         inkscape:connector-curvature="0"
         style="fill:#000000;fill-opacity:1;stroke:none"
         d="m 631.78422,384.90577 c 0.58488,1.37786 0.96003,2.76737 1.13869,4.15761 0.53493,4.27318 -0.76859,8.55017 -3.54676,12.54531 -2.92969,4.19415 -7.49566,8.07935 -13.30872,11.35601 -5.81306,3.27666 -12.87226,5.9461 -20.83836,7.71659 -12.99466,2.8881 -25.96069,2.86454 -36.6523,0.44297 -10.69161,-2.42158 -19.13483,-7.26151 -22.78732,-14.21582 -3.65248,-6.9543 -1.76879,-14.74085 4.51026,-21.65037 6.27904,-6.90952 16.97996,-12.91504 30.54859,-16.10115 13.56861,-3.18611 27.36515,-2.92184 38.43969,0.005 11.07455,2.92728 19.41771,8.49109 22.49623,15.7434 z"
         id="path4245"
         inkscape:original-d="m 624.88286,512.60056 c 7.72451,12.28525 -1.53812,32.00568 -20.68866,44.04682 -19.15054,12.04114 -40.93706,11.84325 -48.66157,-0.442 -7.7245,-12.28525 1.53813,-32.00568 20.68867,-44.04682 19.15053,-12.04114 40.93706,-11.84325 48.66156,0.442 z" />
      <path
         inkscape:connector-curvature="0"
         style="fill:#bfd6ec;fill-opacity:1;stroke:none"
         d="m 659.18984,531.38211 c 2.41508,8.17403 1.84846,16.46815 -1.13002,24.47027 -2.97848,8.00213 -8.36773,15.71487 -15.61604,22.7988 -7.24831,7.08393 -16.35406,13.54069 -26.8029,19.07272 -10.44883,5.53203 -22.23769,10.14093 -34.92455,13.54742 -3.82075,1.02589 -7.61474,1.91358 -11.3694,2.66804 -10.9003,2.19665 -21.44267,3.26617 -31.34048,3.29331 -9.89781,0.0271 -19.15337,-0.98818 -27.51035,-3.01489 -8.35698,-2.02671 -15.81922,-5.06601 -22.11429,-9.13131 -6.29506,-4.0653 -11.42755,-9.15938 -15.04455,-15.31047 -0.78738,-1.34107 -1.5026,-2.73239 -2.14108,-4.17404 -3.6003,-8.12929 -4.40117,-17.04686 -2.53591,-26.16632 1.86526,-9.11947 6.4093,-18.43658 13.49276,-27.19079 6.05909,-7.48868 13.97733,-14.55929 23.556,-20.68997 9.57867,-6.13068 20.81925,-11.31826 33.3735,-15.05028 11.10349,-3.30075 22.36619,-5.20568 33.29371,-5.82947 10.92752,-0.62378 21.51777,0.0324 31.30889,1.80587 14.16797,2.57616 26.66569,7.46864 36.28462,14.13136 9.61894,6.66271 16.35951,15.08792 19.22009,24.76975 0,0 0,0 0,0 z"
         id="path4249"
         inkscape:original-d="m 683.46493,644.3542 c 17.52438,27.87122 -3.4895,72.61045 -46.93582,99.92787 -43.44632,27.31742 -92.87284,26.86847 -110.39722,-1.00275 -17.52438,-27.87122 3.4895,-72.61045 46.93582,-99.92787 43.44632,-27.31742 92.87284,-26.86847 110.39722,1.00275 z" />
      <path
         inkscape:connector-curvature="0"
         style="fill:#4f90ca;fill-opacity:1;stroke:none"
         d="m 637.00307,525.93961 c 2.05443,6.52143 1.76466,13.17717 -0.44507,19.64006 -2.20973,6.46289 -6.33835,12.73475 -11.97337,18.53756 -5.63502,5.80282 -12.77523,11.13783 -21.03643,15.7539 -8.26121,4.61608 -17.64162,8.51435 -27.80763,11.45314 -0.66301,0.19198 -1.32934,0.37986 -1.99888,0.5636 -10.41654,2.85849 -20.62248,4.44623 -30.23493,4.88163 -9.61245,0.43539 -18.63408,-0.28171 -26.71241,-2.09502 -8.07832,-1.81332 -15.21777,-4.72448 -21.04277,-8.72664 -5.825,-4.00216 -10.34078,-9.09906 -13.07494,-15.29336 -2.73417,-6.19429 -3.42097,-12.90649 -2.19809,-19.75875 1.22288,-6.85226 4.36176,-13.84177 9.28115,-20.50305 4.91938,-6.66128 11.62378,-12.99125 19.89741,-18.48162 8.27362,-5.49038 18.11824,-10.13821 29.19011,-13.43833 11.18643,-3.33427 22.54255,-4.96911 33.3495,-5.07709 10.80694,-0.10799 21.06127,1.30852 30.09659,4.00837 8.81895,2.64477 16.48072,6.50281 22.43687,11.33625 5.95615,4.83345 10.20652,10.63998 12.27289,17.19935 z"
         id="path4251"
         inkscape:original-d="m 663.1811,646.14199 c 14.27875,22.70929 -2.84322,59.16252 -38.243,81.42057 -35.39978,22.25806 -75.67218,21.89226 -89.95093,-0.81703 -14.27875,-22.70929 2.84322,-59.16253 38.243,-81.42058 35.39978,-22.25805 75.67218,-21.89225 89.95093,0.81704 z" />
      <path
         inkscape:connector-curvature="0"
         style="fill:#000000;fill-opacity:1;stroke:none"
         d="m 593.58765,520.97565 c 0.47882,1.3469 0.77054,2.71186 0.88704,4.08375 0.35519,4.2167 -0.94038,8.49619 -3.54675,12.54531 -2.73801,4.25074 -6.91988,8.24909 -12.16796,11.68423 -5.24808,3.43515 -11.56084,6.30832 -18.60178,8.31524 -11.48549,3.27377 -22.73913,3.64794 -31.88378,1.55784 -9.14465,-2.09009 -16.21388,-6.66367 -19.13902,-13.47972 -2.92514,-6.81605 -1.11447,-14.61627 4.46014,-21.65991 5.57462,-7.04363 14.94723,-13.30479 26.83764,-16.85191 11.89041,-3.54712 23.9926,-3.6832 33.68279,-1.11113 9.6902,2.57207 16.95147,7.82691 19.47168,14.9163 z"
         id="path4253"
         inkscape:original-d="m 624.88286,653.92707 c 7.72451,12.28525 -1.53812,32.00568 -20.68866,44.04682 -19.15054,12.04114 -40.93706,11.84325 -48.66157,-0.442 -7.7245,-12.28525 1.53813,-32.00568 20.68867,-44.04682 19.15053,-12.04114 40.93706,-11.84325 48.66156,0.442 z" />
      <path
         inkscape:connector-curvature="0"
         style="fill:#bfd6ec;fill-opacity:1;stroke:none"
         d="m 613.75919,665.12338 c 1.92989,8.01219 1.15341,16.23539 -1.80512,24.24422 -2.95853,8.00884 -8.09709,15.80612 -14.87397,23.04717 -6.77689,7.24105 -15.18965,13.92769 -24.71145,19.76219 -9.52179,5.83449 -20.14884,10.81859 -31.41561,14.67533 -3.39308,1.16149 -6.74811,2.18772 -10.05433,3.08309 -9.51239,2.60633 -18.55424,4.07862 -26.90253,4.48563 -8.34829,0.40701 -16.00559,-0.25129 -22.80705,-1.95575 -6.80146,-1.70446 -12.75158,-4.45618 -17.69044,-8.2774 -4.93886,-3.82122 -8.87214,-8.71459 -11.56771,-14.71593 -0.58366,-1.30902 -1.10902,-2.671 -1.57254,-4.08598 -2.61372,-7.97888 -3.00595,-16.84236 -1.25863,-25.97853 1.74732,-9.13618 5.6478,-18.54182 11.64694,-27.46664 5.14453,-7.6373 11.84007,-14.91198 19.97778,-21.30279 8.13771,-6.39081 17.71977,-11.89469 28.49874,-16.00139 9.53336,-3.63214 19.25795,-5.88888 28.73806,-6.87311 9.48011,-0.98423 18.71357,-0.69716 27.27558,0.71353 12.48849,2.04846 23.5216,6.47166 31.95923,12.7507 8.43763,6.27904 14.27718,14.40551 16.56305,23.89566 0,0 0,0 0,0 z"
         id="path4257"
         inkscape:original-d="m 683.46493,785.68071 c 17.52438,27.87122 -3.4895,72.61045 -46.93582,99.92787 -43.44632,27.31742 -92.87284,26.86847 -110.39722,-1.00275 -17.52438,-27.87122 3.4895,-72.61045 46.93582,-99.92787 43.44632,-27.31742 92.87284,-26.86847 110.39722,1.00275 z" />
      <path
         inkscape:connector-curvature="0"
         style="fill:#4f90ca;fill-opacity:1;stroke:none"
         d="m 593.90648,660.44992 c 1.63509,6.38484 1.15842,12.97914 -1.04049,19.44558 -2.19891,6.46643 -6.11841,12.80695 -11.35845,18.7384 -5.24005,5.93145 -11.79893,11.45518 -19.29067,16.31814 -7.49174,4.86295 -15.91411,9.06637 -24.92452,12.36825 -0.58277,0.21566 -1.16787,0.42739 -1.7552,0.63513 -9.13756,3.23186 -17.94363,5.19459 -26.10592,5.9864 -8.16228,0.7918 -15.68365,0.41256 -22.31404,-1.09703 -6.63039,-1.50959 -12.37502,-4.15104 -16.98492,-7.92955 -4.60991,-3.77851 -8.09171,-8.69761 -10.10734,-14.77088 -2.01563,-6.07326 -2.37049,-12.73221 -1.17835,-19.5895 1.19214,-6.85728 3.9385,-13.91023 8.16244,-20.689 4.22394,-6.77876 9.93078,-13.28034 16.9857,-18.99534 7.05491,-5.71499 15.46037,-10.64053 24.96445,-14.27188 9.60241,-3.66891 19.39798,-5.66149 28.75485,-6.13154 9.35687,-0.47005 18.27139,0.58011 26.13107,2.93293 7.73555,2.30436 14.44466,5.85934 19.61524,10.44086 5.17058,4.58152 8.80156,10.18705 10.44615,16.60903 z"
         id="path4259"
         inkscape:original-d="m 663.1811,787.4685 c 14.27875,22.70929 -2.84322,59.16252 -38.243,81.42057 -35.39978,22.25806 -75.67218,21.89226 -89.95093,-0.81703 -14.27875,-22.70929 2.84322,-59.16253 38.243,-81.42058 35.39978,-22.25805 75.67218,-21.89225 89.95093,0.81704 z" />
      <path
         inkscape:connector-curvature="0"
         style="fill:#000000;fill-opacity:1;stroke:none"
         d="m 555.39109,657.04553 c 0.37274,1.31595 0.58104,2.65634 0.63539,4.00989 0.17545,4.16022 -1.11217,8.44221 -3.54676,12.54531 -5.09264,8.61463 -15.16083,16.43964 -27.39238,20.92634 -9.97633,3.65945 -19.51757,4.43133 -27.11527,2.67272 -7.5977,-1.75861 -13.29293,-6.06584 -15.49073,-12.74364 -2.19779,-6.67779 -0.46015,-14.49169 4.41004,-21.66944 4.87018,-7.17774 12.91448,-13.69455 23.12669,-17.60267 10.2122,-3.90813 20.62004,-4.44456 28.92588,-2.2277 8.30585,2.21685 14.48523,7.16272 16.44714,14.08919 z"
         id="path4261"
         inkscape:original-d="m 624.88286,795.25358 c 7.72451,12.28525 -1.53812,32.00568 -20.68866,44.04682 -19.15054,12.04114 -40.93706,11.84325 -48.66157,-0.442 -7.7245,-12.28525 1.53813,-32.00568 20.68867,-44.04682 19.15053,-12.04114 40.93706,-11.84325 48.66156,0.442 z" />
      <path
         inkscape:connector-curvature="0"
         style="fill:#bfd6ec;fill-opacity:1;stroke:none"
         d="m 568.32855,798.86465 c 1.44468,7.85036 0.45835,16.00264 -2.48022,24.01818 -2.93858,8.01553 -7.82646,15.89736 -14.13192,23.29554 -6.30546,7.39817 -14.02523,14.31469 -22.61999,20.45165 -8.59475,6.13695 -18.06,11.49626 -27.90667,15.80325 -2.96541,1.29709 -5.88147,2.46187 -8.73926,3.49814 -8.12448,3.01601 -15.6658,4.89106 -22.46458,5.67795 -6.79877,0.78688 -12.85781,0.48559 -18.10376,-0.89661 -5.24594,-1.38221 -9.68392,-3.84635 -13.26658,-7.4235 -3.58267,-3.57716 -6.31673,-8.2698 -8.09087,-14.12142 -0.37993,-1.27696 -0.71544,-2.60961 -1.004,-3.99792 -1.62714,-7.82848 -1.61072,-16.63786 0.0187,-25.79073 1.62938,-9.15287 4.8863,-18.64704 9.80111,-27.74247 4.22998,-7.78593 9.70281,-15.26466 16.39956,-21.9156 6.69675,-6.65094 14.62028,-12.47112 23.62397,-16.95252 7.96324,-3.96353 16.14972,-6.57206 24.18241,-7.91674 8.0327,-1.34467 15.90938,-1.42669 23.24228,-0.37882 10.80901,1.52076 20.3775,5.47469 27.63383,11.37006 7.25633,5.89537 12.19486,13.7231 13.90603,23.02156 0,0 0,0 0,0 z"
         id="path4265"
         inkscape:original-d="m 683.46493,927.00722 c 17.52438,27.87122 -3.4895,72.61045 -46.93582,99.92788 -43.44632,27.3174 -92.87284,26.8685 -110.39722,-1.0028 -17.52438,-27.87118 3.4895,-72.61041 46.93582,-99.92783 43.44632,-27.31742 92.87284,-26.86847 110.39722,1.00275 z" />
      <path
         inkscape:connector-curvature="0"
         style="fill:#4f90ca;fill-opacity:1;stroke:none"
         d="m 550.80989,794.96024 c 1.21575,6.24825 0.55217,12.7811 -1.63591,19.25108 -2.18809,6.46999 -5.89846,12.87916 -10.74354,18.93925 -4.84507,6.06008 -10.82263,11.77253 -17.5449,16.88238 -6.72228,5.10984 -14.1866,9.6184 -22.04141,13.28338 -0.50253,0.23934 -1.00641,0.47492 -1.51154,0.70665 -7.85856,3.60522 -15.26476,5.94294 -21.97688,7.09115 -6.71211,1.14821 -12.73323,1.10681 -17.91568,-0.0991 -5.18245,-1.20587 -9.53226,-3.57762 -12.92707,-7.13247 -3.39481,-3.55486 -5.84264,-8.29617 -7.13973,-14.24841 -1.2971,-5.95222 -1.32001,-12.5579 -0.15861,-19.42021 1.1614,-6.86231 3.51523,-13.9787 7.04373,-20.87494 3.5285,-6.89623 8.23777,-13.56944 14.07398,-19.50905 5.8362,-5.93961 12.8025,-11.14286 20.73879,-15.10543 8.0184,-4.00357 16.2534,-6.35389 24.1602,-7.186 7.9068,-0.83212 15.4815,-0.1483 22.16555,1.85748 6.65214,1.96395 12.40861,5.21588 16.79362,9.54547 4.385,4.3296 7.39658,9.73414 8.6194,16.01873 z"
         id="path4267"
         inkscape:original-d="m 663.1811,928.79501 c 14.27875,22.70929 -2.84322,59.16252 -38.243,81.42059 -35.39978,22.258 -75.67218,21.8922 -89.95093,-0.8171 -14.27875,-22.70924 2.84322,-59.16248 38.243,-81.42053 35.39978,-22.25805 75.67218,-21.89225 89.95093,0.81704 z" />
      <path
         inkscape:connector-curvature="0"
         style="fill:#000000;fill-opacity:1;stroke:none"
         d="m 517.19453,793.11541 c 0.26667,1.28499 0.39154,2.60083 0.38373,3.93602 -0.004,4.10376 -1.28396,8.38825 -3.54676,12.54532 -4.70927,8.7278 -13.63381,16.89365 -24.01503,21.8532 -8.46715,4.04513 -16.29601,5.21473 -22.34675,3.78761 -6.05074,-1.42713 -10.37199,-5.46802 -11.84244,-12.00755 -1.47045,-6.53954 0.19418,-14.36711 4.35993,-21.67897 4.16576,-7.31186 10.88174,-14.08431 19.41574,-18.35345 8.534,-4.26913 17.24749,-5.20592 24.16898,-3.34427 6.92149,1.86165 12.019,6.49854 13.4226,13.26209 z"
         id="path4269"
         inkscape:original-d="m 624.88286,936.58009 c 7.72451,12.28525 -1.53812,32.00568 -20.68866,44.04682 -19.15054,12.04114 -40.93706,11.84325 -48.66157,-0.442 -7.7245,-12.28525 1.53813,-32.00568 20.68867,-44.04682 19.15053,-12.04114 40.93706,-11.84325 48.66156,0.442 z" />
      <path
         inkscape:connector-curvature="0"
         style="fill:#bfd6ec;fill-opacity:1;stroke:none"
         d="m 950.05373,343.93814 c 1.85326,8.51342 0.63097,16.78769 -3.0896,24.4767 -3.72058,7.68901 -9.94256,14.79316 -18.17487,20.97513 -16.4646,12.36392 -40.94205,21.02665 -70.02803,23.40586 -14.54299,1.1896 -28.87539,0.70265 -42.41133,-1.18658 -13.53594,-1.88923 -26.27704,-5.18036 -37.60956,-9.64412 -11.33252,-4.46376 -21.2589,-10.10163 -29.10622,-16.72166 -7.84732,-6.62003 -13.61743,-14.22585 -16.54426,-22.62434 -2.92683,-8.39848 -2.72094,-16.79842 0.29027,-24.78954 3.01122,-7.99112 8.83147,-15.5702 17.05597,-22.27018 8.2245,-6.69998 18.85513,-12.51761 31.3664,-16.97863 12.51127,-4.46101 26.90234,-7.56305 42.5189,-8.86759 15.61655,-1.30454 30.96197,-0.68971 45.20789,1.50123 14.24591,2.19093 27.39089,5.95559 38.73122,10.93737 11.34032,4.98178 20.87838,11.17916 28.02708,18.25204 7.14871,7.07288 11.91288,15.02088 13.76614,23.53431 z"
         id="path4273"
         inkscape:original-d="m 853.15965,361.70118 c 17.52438,27.87122 -3.4895,72.61045 -46.93582,99.92787 -43.44632,27.31742 -92.87284,26.86847 -110.39722,-1.00275 -17.52438,-27.87122 3.4895,-72.61045 46.93582,-99.92787 43.44632,-27.31742 92.87284,-26.86847 110.39722,1.00275 z" />
      <path
         inkscape:connector-curvature="0"
         style="fill:#4f90ca;fill-opacity:1;stroke:none"
         d="m 927.25014,335.59017 c 1.62721,6.94592 0.71168,13.70615 -2.28085,19.99358 -2.99253,6.28742 -8.06368,12.10252 -14.80566,17.16773 -13.48397,10.13042 -33.62398,17.25681 -57.58411,19.22711 -23.96014,1.9703 -47.27712,-1.54585 -65.94071,-8.89737 -9.33179,-3.67577 -17.49487,-8.31856 -23.92986,-13.75825 -6.435,-5.43968 -11.14272,-11.67849 -13.50233,-18.54358 -2.35962,-6.86509 -2.13943,-13.70884 0.36603,-20.20088 2.50546,-6.49204 7.29825,-12.63039 14.03062,-18.04913 6.73236,-5.41875 15.40533,-10.11591 25.59395,-13.7204 10.18861,-3.60449 21.89239,-6.11484 34.60486,-7.18081 12.71247,-1.06597 25.21866,-0.58733 36.86309,1.16871 11.64442,1.75605 22.42607,4.78808 31.76748,8.81737 9.3414,4.0293 17.24385,9.05482 23.20537,14.80512 5.96152,5.7503 9.98492,12.22489 11.61212,19.1708 z"
         id="path4275"
         inkscape:original-d="m 832.87582,363.48897 c 14.27875,22.70929 -2.84322,59.16252 -38.243,81.42057 -35.39978,22.25806 -75.67218,21.89226 -89.95093,-0.81703 -14.27875,-22.70929 2.84322,-59.16253 38.243,-81.42058 35.39978,-22.25805 75.67218,-21.89225 89.95093,0.81704 z" />
      <path
         inkscape:connector-curvature="0"
         style="fill:#000000;fill-opacity:1;stroke:none"
         d="m 881.23041,324.09853 c 2.01399,7.52093 -1.57932,14.69395 -8.92439,20.25153 -7.34507,5.55758 -18.44617,9.50525 -31.68343,10.60804 -13.23726,1.1028 -26.13621,-0.83886 -36.39876,-4.90293 -10.26255,-4.06406 -17.89523,-10.26059 -20.3552,-17.72997 -2.45997,-7.46938 0.76203,-14.80642 8.09687,-20.5798 7.33483,-5.77339 18.7877,-9.96867 32.47095,-11.12302 13.68323,-1.15435 26.9535,0.95134 37.22629,5.23121 10.27278,4.27987 17.55369,10.72401 19.56767,18.24494 z"
         id="path4277"
         inkscape:original-d="m 794.57758,371.27405 c 7.72451,12.28525 -1.53812,32.00568 -20.68866,44.04682 -19.15054,12.04114 -40.93706,11.84325 -48.66157,-0.442 -7.7245,-12.28525 1.53813,-32.00568 20.68867,-44.04682 19.15053,-12.04114 40.93706,-11.84325 48.66156,0.442 z" />
      <path
         inkscape:connector-curvature="0"
         style="fill:#bfd6ec;fill-opacity:1;stroke:none"
         d="m 891.96358,472.79599 c 1.68479,8.42311 0.39525,16.65865 -3.31872,24.35135 -3.71397,7.69271 -9.85454,14.84319 -17.92244,21.11295 -16.1358,12.53952 -39.96094,21.54186 -67.77719,24.46699 -13.90812,1.46257 -27.50566,1.27561 -40.24222,-0.30165 -12.73655,-1.57726 -24.61397,-4.54452 -35.08636,-8.69487 -10.47239,-4.15035 -19.54302,-9.48546 -26.63141,-15.84133 -7.08839,-6.35587 -12.19781,-13.73644 -14.66251,-21.97831 -2.4647,-8.24186 -2.04217,-16.56935 0.9491,-24.56717 2.99126,-7.99782 8.55589,-15.66257 16.33351,-22.51413 7.77763,-6.85155 17.77095,-12.88649 29.52139,-17.61244 11.75043,-4.72596 25.25785,-8.14039 39.94589,-9.7842 14.68804,-1.64381 29.15113,-1.36226 42.61065,0.51964 13.45952,1.8819 25.91381,5.36174 36.67648,10.09389 10.76266,4.73214 19.83529,10.7149 26.62354,17.61358 6.78824,6.89868 11.29551,14.7126 12.98029,23.1357 z"
         id="path4281"
         inkscape:original-d="m 853.15965,503.02769 c 17.52438,27.87122 -3.4895,72.61045 -46.93582,99.92787 -43.44632,27.31742 -92.87284,26.86847 -110.39722,-1.00275 -17.52438,-27.87122 3.4895,-72.61045 46.93582,-99.92787 43.44632,-27.31742 92.87284,-26.86847 110.39722,1.00275 z" />
      <path
         inkscape:connector-curvature="0"
         style="fill:#4f90ca;fill-opacity:1;stroke:none"
         d="m 870.02764,464.886 c 2.91818,13.73071 -3.90671,26.88548 -17.06329,37.17242 -13.15658,10.28693 -32.65655,17.71453 -55.49471,20.14938 -22.83817,2.43485 -44.72679,-0.53303 -61.99172,-7.37451 -8.63246,-3.42074 -16.10952,-7.81939 -21.94079,-13.04714 -5.83126,-5.22775 -10.01848,-11.28706 -12.01502,-18.02758 -1.99654,-6.74051 -1.60719,-13.52689 0.88266,-20.02425 2.48984,-6.49736 7.08285,-12.70358 13.464,-18.24292 6.38114,-5.53933 14.55199,-10.40969 24.13524,-14.22676 9.58324,-3.81707 20.57888,-6.57929 32.53541,-7.92155 11.95653,-1.34227 23.73266,-1.13771 34.7135,0.36138 10.98083,1.49909 21.16523,4.29127 29.99485,8.10788 8.82961,3.81661 16.30517,8.6565 21.9275,14.25459 5.62232,5.5981 9.39328,11.9537 10.85237,18.81906 z"
         id="path4283"
         inkscape:original-d="m 832.87582,504.81548 c 14.27875,22.70929 -2.84322,59.16252 -38.243,81.42057 -35.39978,22.25806 -75.67218,21.89226 -89.95093,-0.81703 -14.27875,-22.70929 2.84322,-59.16253 38.243,-81.42058 35.39978,-22.25805 75.67218,-21.89225 89.95093,0.81704 z" />
      <path
         inkscape:connector-curvature="0"
         style="fill:#000000;fill-opacity:1;stroke:none"
         d="m 826.12404,454.32918 c 1.76907,7.41955 -1.80026,14.60257 -8.9075,20.25852 -7.10724,5.65596 -17.75156,9.79153 -30.29724,11.16475 -12.54568,1.37321 -24.63839,-0.26428 -34.15756,-4.05541 -9.51917,-3.79113 -16.47643,-9.74712 -18.57738,-17.08935 -2.10094,-7.34222 1.08491,-14.69202 8.07214,-20.58856 6.98723,-5.89655 17.78614,-10.32425 30.6637,-11.77478 12.87754,-1.45054 25.35374,0.35373 34.99291,4.38545 9.63918,4.03172 16.44186,10.27984 18.21093,17.69938 z"
         id="path4285"
         inkscape:original-d="m 794.57758,512.60056 c 7.72451,12.28525 -1.53812,32.00568 -20.68866,44.04682 -19.15054,12.04114 -40.93706,11.84325 -48.66157,-0.442 -7.7245,-12.28525 1.53813,-32.00568 20.68867,-44.04682 19.15053,-12.04114 40.93706,-11.84325 48.66156,0.442 z" />
      <path
         inkscape:connector-curvature="0"
         style="fill:#bfd6ec;fill-opacity:1;stroke:none"
         d="m 833.87344,601.65385 c 3.03262,16.66556 -5.41087,32.76163 -21.21787,45.47676 -15.80699,12.71513 -38.97981,22.05706 -65.52633,25.52812 -13.27327,1.73553 -26.13594,1.84858 -38.07311,0.58328 -11.93717,-1.2653 -22.95091,-3.90868 -32.56317,-7.74562 -9.61227,-3.83694 -17.82714,-8.8693 -24.1566,-14.96101 -6.32946,-6.0917 -10.7782,-13.24703 -12.78077,-21.33227 -2.00257,-8.08524 -1.36338,-16.34027 1.60793,-24.3448 2.97132,-8.00453 8.28032,-15.75493 15.61107,-22.75807 7.33075,-7.00313 16.68676,-13.25538 27.67636,-18.24627 10.9896,-4.99089 23.61337,-8.71773 37.37289,-10.7008 13.75952,-1.98307 27.3403,-2.03482 40.01342,-0.46195 12.67313,1.57287 24.43671,4.76789 34.62173,9.2504 10.18501,4.48251 18.79221,10.25064 25.21999,16.97513 6.42778,6.72448 10.67814,14.40432 12.19446,22.7371 z"
         id="path4289"
         inkscape:original-d="m 853.15965,644.3542 c 17.52438,27.87122 -3.4895,72.61045 -46.93582,99.92787 -43.44632,27.31742 -92.87284,26.86847 -110.39722,-1.00275 -17.52438,-27.87122 3.4895,-72.61045 46.93582,-99.92787 43.44632,-27.31742 92.87284,-26.86847 110.39722,1.00275 z" />
      <path
         inkscape:connector-curvature="0"
         style="fill:#4f90ca;fill-opacity:1;stroke:none"
         d="m 812.80514,594.18182 c 2.58195,13.5696 -4.21087,26.74009 -17.04007,37.18353 -12.8292,10.44344 -31.68911,18.17225 -53.40531,21.07165 -21.7162,2.8994 -42.17646,0.47979 -58.04273,-5.85164 -7.93314,-3.16571 -14.72417,-7.32022 -19.95171,-12.33604 -5.22754,-5.01582 -8.89425,-10.89562 -10.52772,-17.51156 -1.63347,-6.61594 -1.07495,-13.34494 1.39928,-19.84762 2.47423,-6.50268 6.86746,-12.77678 12.89739,-18.43671 6.02992,-5.65993 13.69864,-10.70348 22.67652,-14.73313 8.97788,-4.02965 19.26537,-7.04374 30.46597,-8.66229 22.40119,-3.23712 44.1505,-0.25542 60.78613,6.95244 16.63563,7.20785 28.1603,18.60177 30.74225,32.17137 z"
         id="path4291"
         inkscape:original-d="m 832.87582,646.14199 c 14.27875,22.70929 -2.84322,59.16252 -38.243,81.42057 -35.39978,22.25806 -75.67218,21.89226 -89.95093,-0.81703 -14.27875,-22.70929 2.84322,-59.16253 38.243,-81.42058 35.39978,-22.25805 75.67218,-21.89225 89.95093,0.81704 z" />
      <path
         inkscape:connector-curvature="0"
         style="fill:#000000;fill-opacity:1;stroke:none"
         d="m 771.01766,584.55984 c 1.52416,7.31815 -2.0212,14.51118 -8.8906,20.26551 -6.86941,5.75434 -17.05696,10.07781 -28.91106,11.72144 -11.85409,1.64364 -23.14055,0.31032 -31.91635,-3.20789 -8.77579,-3.5182 -15.05763,-9.23364 -16.79956,-16.44872 -1.74192,-7.21507 1.40778,-14.57762 8.04741,-20.59732 6.63964,-6.01971 16.78459,-10.67984 28.85645,-12.42655 12.07185,-1.74671 23.75397,-0.24387 32.75954,3.53971 9.00557,3.78357 15.33001,9.83567 16.85417,17.15382 z"
         id="path4293"
         inkscape:original-d="m 794.57758,653.92707 c 7.72451,12.28525 -1.53812,32.00568 -20.68866,44.04682 -19.15054,12.04114 -40.93706,11.84325 -48.66157,-0.442 -7.7245,-12.28525 1.53813,-32.00568 20.68867,-44.04682 19.15053,-12.04114 40.93706,-11.84325 48.66156,0.442 z" />
      <path
         inkscape:connector-curvature="0"
         style="fill:#bfd6ec;fill-opacity:1;stroke:none"
         d="m 775.78329,730.51171 c 2.69568,16.48491 -5.71638,32.59849 -21.19456,45.48923 -15.47819,12.89073 -37.99869,22.57226 -63.27549,26.58924 -12.6384,2.00849 -24.76621,2.42154 -35.904,1.46821 -11.13779,-0.95334 -21.28784,-3.27283 -30.03997,-6.79637 -8.75214,-3.52353 -16.11125,-8.25313 -21.68179,-14.08068 -5.57054,-5.82755 -9.35858,-12.75762 -10.89902,-20.68624 -1.54044,-7.92861 -0.6846,-16.11119 2.26676,-24.12243 2.95136,-8.01124 8.00474,-15.8473 14.88861,-23.00201 6.88387,-7.15471 15.60257,-13.62427 25.83134,-18.8801 10.22877,-5.25583 21.96889,-9.29507 34.79989,-11.6174 12.831,-2.32233 25.52946,-2.70737 37.41619,-1.44354 11.88673,1.26384 22.95962,4.17403 32.56698,8.40691 19.21471,8.46577 32.52938,22.19026 35.22506,38.67518 z"
         id="path4297"
         inkscape:original-d="m 853.15965,785.68071 c 17.52438,27.87122 -3.4895,72.61045 -46.93582,99.92787 -43.44632,27.31742 -92.87284,26.86847 -110.39722,-1.00275 -17.52438,-27.87122 3.4895,-72.61045 46.93582,-99.92787 43.44632,-27.31742 92.87284,-26.86847 110.39722,1.00275 z" />
      <path
         inkscape:connector-curvature="0"
         style="fill:#4f90ca;fill-opacity:1;stroke:none"
         d="m 755.58263,723.47764 c 2.24572,13.40848 -4.51502,26.5947 -17.01684,37.19465 -12.50181,10.59995 -30.72168,18.62997 -51.31591,21.99392 -10.29712,1.68197 -20.21374,2.04432 -29.35405,1.26931 -9.14032,-0.77501 -17.50588,-2.6874 -24.73969,-5.59809 -7.23381,-2.91069 -13.33883,-6.82105 -17.96263,-11.62494 -4.62381,-4.80389 -7.77002,-10.50418 -9.04042,-16.99554 -1.27039,-6.49137 -0.54271,-13.163 1.91591,-19.671 2.45862,-6.508 6.65206,-12.84997 12.33076,-18.63049 5.6787,-5.78053 12.84531,-10.99727 21.21782,-15.23951 8.37251,-4.24223 17.95186,-7.50818 28.39652,-9.40303 20.88931,-3.78969 41.25187,-1.34686 56.86391,5.43562 15.61204,6.78248 26.45891,17.86062 28.70462,31.2691 z"
         id="path4299"
         inkscape:original-d="m 832.87582,787.4685 c 14.27875,22.70929 -2.84322,59.16252 -38.243,81.42057 -35.39978,22.25806 -75.67218,21.89226 -89.95093,-0.81703 -14.27875,-22.70929 2.84322,-59.16253 38.243,-81.42058 35.39978,-22.25805 75.67218,-21.89225 89.95093,0.81704 z" />
      <path
         inkscape:connector-curvature="0"
         style="fill:#000000;fill-opacity:1;stroke:none"
         d="m 715.91128,714.7905 c 1.27925,7.21676 -2.24214,14.41979 -8.87371,20.2725 -6.63157,5.85271 -16.36235,10.36409 -27.52486,12.27814 -11.16252,1.91405 -21.64272,0.8849 -29.67514,-2.36037 -8.03243,-3.24527 -13.63884,-8.72017 -15.02175,-15.8081 -1.38289,-7.08792 1.73065,-14.46322 8.02269,-20.60608 6.29203,-6.14287 15.78302,-11.03542 27.04919,-13.07831 11.26616,-2.0429 22.15421,-0.84147 30.52617,2.69395 8.37195,3.53543 14.21817,9.3915 15.49741,16.60827 z"
         id="path4301"
         inkscape:original-d="m 794.57758,795.25358 c 7.72451,12.28525 -1.53812,32.00568 -20.68866,44.04682 -19.15054,12.04114 -40.93706,11.84325 -48.66157,-0.442 -7.7245,-12.28525 1.53813,-32.00568 20.68867,-44.04682 19.15053,-12.04114 40.93706,-11.84325 48.66156,0.442 z" />
      <path
         inkscape:connector-curvature="0"
         style="fill:#bfd6ec;fill-opacity:1;stroke:none"
         d="m 717.69314,859.36956 c 1.17937,8.15214 -0.31194,16.2715 -4.00608,23.97529 -3.69413,7.70379 -9.59049,14.99324 -17.16518,21.52641 -15.14938,13.06634 -37.01756,23.08747 -61.02464,27.65038 -12.00354,2.28145 -23.39649,2.9945 -33.73489,2.35313 -10.3384,-0.64137 -19.62477,-2.63698 -27.51678,-5.84711 -7.89201,-3.21012 -14.39536,-7.63697 -19.20697,-13.20037 -4.8116,-5.56339 -7.93895,-12.26822 -9.01726,-20.04024 -1.07832,-7.77198 -0.006,-15.88209 2.92558,-23.90003 2.93141,-8.01794 7.72916,-15.93966 14.16616,-23.24595 6.43699,-7.30629 14.51838,-13.99316 23.98632,-19.51392 9.46793,-5.52076 20.3244,-9.8724 32.22688,-12.534 11.90248,-2.66159 23.71863,-3.37993 34.81896,-2.42512 11.10033,0.9548 21.48252,3.58017 30.51223,7.56342 18.0594,7.9665 30.67694,21.33384 33.03567,37.63811 z"
         id="path4305"
         inkscape:original-d="m 853.15965,927.00722 c 17.52438,27.87122 -3.4895,72.61045 -46.93582,99.92788 -43.44632,27.3174 -92.87284,26.8685 -110.39722,-1.0028 -17.52438,-27.87118 3.4895,-72.61041 46.93582,-99.92783 43.44632,-27.31742 92.87284,-26.86847 110.39722,1.00275 z" />
      <path
         inkscape:connector-curvature="0"
         style="fill:#4f90ca;fill-opacity:1;stroke:none"
         d="m 698.36013,852.77346 c 1.90948,13.24737 -4.81918,26.44931 -16.99362,37.20577 -12.17443,10.75646 -29.75425,19.0877 -49.22652,22.9162 -9.73612,1.91424 -19.02057,2.52855 -27.48867,2.01244 -8.46811,-0.51612 -16.12158,-2.16273 -22.65606,-4.8184 -6.53448,-2.65566 -11.95348,-6.32189 -15.97355,-10.91385 -4.02008,-4.59196 -6.64578,-10.11274 -7.55311,-16.47953 -0.90733,-6.36678 -0.0105,-12.98103 2.43252,-19.49434 2.443,-6.51332 6.43667,-12.92316 11.76414,-18.82427 5.32748,-5.90112 11.99196,-11.29105 19.75911,-15.74587 7.76714,-4.45481 16.63835,-7.97263 26.32707,-10.14377 19.37743,-4.34228 38.35324,-2.43831 52.94169,3.9188 14.58845,6.35711 24.75752,17.11946 26.667,30.36682 z"
         id="path4307"
         inkscape:original-d="m 832.87582,928.79501 c 14.27875,22.70929 -2.84322,59.16252 -38.243,81.42059 -35.39978,22.258 -75.67218,21.8922 -89.95093,-0.8171 -14.27875,-22.70924 2.84322,-59.16248 38.243,-81.42053 35.39978,-22.25805 75.67218,-21.89225 89.95093,0.81704 z" />
      <path
         inkscape:connector-curvature="0"
         style="fill:#000000;fill-opacity:1;stroke:none"
         d="m 660.8049,845.02115 c 1.03434,7.11538 -2.46307,14.32841 -8.85681,20.2795 -6.39374,5.95109 -15.66774,10.65037 -26.13868,12.83483 -10.47093,2.18447 -20.14489,1.45949 -27.43393,-1.51285 -7.28905,-2.97234 -12.22005,-8.2067 -13.24392,-15.16747 -1.02388,-6.96076 2.05351,-14.34882 7.99795,-20.61484 5.94444,-6.26603 14.78146,-11.391 25.24194,-13.73008 10.46047,-2.33907 20.55445,-1.43907 28.2928,1.84821 7.73834,3.28728 13.10632,8.94733 14.14065,16.0627 z"
         id="path4309"
         inkscape:original-d="m 794.57758,936.58009 c 7.72451,12.28525 -1.53812,32.00568 -20.68866,44.04682 -19.15054,12.04114 -40.93706,11.84325 -48.66157,-0.442 -7.7245,-12.28525 1.53813,-32.00568 20.68867,-44.04682 19.15053,-12.04114 40.93706,-11.84325 48.66156,0.442 z" />
    </g>
  </g>
</svg>
