<?xml version="1.0" encoding="UTF-8" standalone="no"?>
<!-- Created with Inkscape (http://www.inkscape.org/) -->
<svg id="svg2" xmlns:rdf="http://www.w3.org/1999/02/22-rdf-syntax-ns#" xmlns="http://www.w3.org/2000/svg" viewBox="0 0 720 720" version="1.1" xmlns:cc="http://creativecommons.org/ns#" xmlns:dc="http://purl.org/dc/elements/1.1/">
 <defs id="defs4">
  <clipPath id="clipPath4794" clipPathUnits="userSpaceOnUse">
   <rect id="rect4796" fill-opacity="0.49458" height="720" width="720" y="186.65" x="7.1429" fill="#bfd6ec"/>
  </clipPath>
 </defs>
 <metadata id="metadata7">
  <rdf:RDF>
   <cc:Work rdf:about="">
    <dc:format>image/svg+xml</dc:format>
    <dc:type rdf:resource="http://purl.org/dc/dcmitype/StillImage"/>
    <dc:title/>
   </cc:Work>
  </rdf:RDF>
 </metadata>
 <g id="layer1" transform="translate(0,-332.36217)">
  <g id="g4702" clip-path="url(#clipPath4794)" transform="translate(-7.1428571,145.71429)">
   <path id="path4113" d="m-2.2121,265.64c7.8059,4.7213,12.84,11.507,15.308,19.682,2.4681,8.1747,2.3789,17.738,0.04648,28.063s-6.9015,21.411-13.399,32.678c-6.497,11.266-14.919,22.713-25.035,33.787-10.117,11.074-20.973,20.731-32.013,28.741-11.039,8.0098-22.264,14.372-33.153,18.824-21.777,8.9034-42.242,10.171-57.089,1.5081-7.4237-4.3317-12.736-10.74-15.984-18.643-3.2475-7.9032-4.429-17.301-3.5101-27.604,1.8378-20.605,12.058-44.862,31.527-67.789,9.7344-11.464,20.876-21.497,32.693-29.779,11.818-8.2816,24.309-14.809,36.611-19.283,12.302-4.4739,24.407-6.8928,35.382-7.0005,10.974-0.10768,20.809,2.0952,28.615,6.8165z" fill="#bfd6ec"/>
   <path id="path4115" d="m-27.145,276.12c6.3484,3.78,10.513,9.2527,12.637,15.88,2.1236,6.6269,2.2108,14.408,0.47471,22.833-1.7361,8.4249-5.2916,17.494-10.452,26.725-5.1603,9.2307-11.923,18.624-20.119,27.714-16.391,18.181-35.382,31.742-53.269,39.052-17.887,7.3101-34.723,8.3564-46.882,1.2896-6.079-3.5334-10.41-8.7636-13.035-15.213-2.625-6.4496-3.5423-14.119-2.7367-22.522,1.6112-16.807,10.107-36.574,25.959-55.248,7.9263-9.3373,16.95-17.51,26.483-24.264,9.5326-6.7542,19.572-12.089,29.446-15.766,9.8742-3.6766,19.579-5.6941,28.398-5.84s16.747,1.5795,23.095,5.3595z" fill="#4f90ca"/>
   <path id="path4117" d="m-71.136,300.56c6.8197,3.9744,9.1903,11.634,7.6345,20.763-1.5558,9.1287-7.0072,19.727-15.762,29.678-8.755,9.9511-19.151,17.384-28.994,21.386-9.843,4.0025-19.153,4.5736-25.801,0.73271-6.6483-3.8409-9.3921-11.375-8.3732-20.485,1.0189-9.1101,5.8193-19.799,14.403-29.884,8.5836-10.085,19.353-17.643,29.732-21.664,10.38-4.0211,20.341-4.5017,27.16-0.52725z" fill="#000"/>
   <path id="path4121" d="m43.138,399.42c7.3448,4.8718,12.163,11.727,14.651,19.895,2.488,8.1683,2.6537,17.649,0.76715,27.828-1.8865,10.179-5.8196,21.057-11.557,32.068-5.737,11.011-13.275,22.157-22.462,32.902-9.1868,10.746-19.158,20.079-29.407,27.788-10.249,7.7086-20.777,13.792-31.082,17.998-20.609,8.413-40.361,9.3258-54.863,0.48231-7.2509-4.4218-12.494-10.869-15.748-18.768-3.2543-7.8994-4.5196-17.251-3.7693-27.466,1.5008-20.43,11.053-44.349,29.239-66.74,9.0929-11.196,19.494-20.936,30.508-28.913,11.014-7.9777,22.64-14.191,34.08-18.362,11.441-4.1706,22.69-6.2972,32.907-6.1504,10.216,0.14686,19.391,2.5664,26.736,7.4382z" fill="#bfd6ec"/>
   <path id="path4123" d="m20.254,409.22c6.003,3.8963,10.007,9.4225,12.145,16.044,2.1384,6.6219,2.4159,14.339,1.0139,22.652-1.402,8.3123-4.48,17.22-9.0657,26.252-4.5857,9.0321-10.677,18.189-18.158,27.021-14.962,17.664-32.649,30.719-49.582,37.629-16.933,6.9099-33.146,7.6578-44.996,0.43872s-17.105-21.066-15.793-37.725c1.3112-16.659,9.2191-36.141,24.025-54.379,7.403-9.1188,15.835-17.054,24.735-23.566,8.9004-6.5113,18.268-11.597,27.481-15.035,9.2128-3.4379,18.267-5.2271,26.513-5.175,8.2459,0.0521,15.679,1.9451,21.682,5.8414z" fill="#4f90ca"/>
   <path id="path4125" d="m-20.338,432.48c6.5079,4.0873,8.9099,11.736,7.656,20.755-1.254,9.0194-6.1381,19.412-14.203,29.1-8.0648,9.6887-17.789,16.855-27.102,20.638-9.3136,3.7833-18.231,4.1815-24.68,0.25123-6.4485-3.9302-9.2118-11.455-8.387-20.479,0.8248-9.0234,5.2515-19.547,13.257-29.393,8.0055-9.8458,18.09-17.135,27.833-20.914,9.7428-3.7793,19.118-4.0464,25.626,0.0409z" fill="#000"/>
   <path id="path4129" d="m88.489,533.2c6.8838,5.0223,11.486,11.947,13.994,20.109,2.5079,8.1618,2.9285,17.561,1.4878,27.594s-4.7377,20.702-9.7145,31.458c-4.9769,10.756-11.632,21.6-19.889,32.017-8.2569,10.417-17.343,19.427-26.801,26.834-9.4581,7.4074-19.291,13.212-29.011,17.173-9.7205,3.9612-19.329,6.078-28.289,6.08-8.9599,0.002-17.27-2.1116-24.348-6.6234-14.156-9.0237-20.705-25.967-19.541-46.222,0.58184-10.127,3.0948-21.077,7.5739-32.236s10.926-22.527,19.378-33.455c8.4513-10.928,18.112-20.374,28.323-28.048,10.211-7.6739,20.97-13.573,31.55-17.44,10.579-3.8672,20.974-5.7017,30.432-5.3003,9.4581,0.40139,17.974,3.0375,24.857,8.0598z" fill="#bfd6ec"/>
   <path id="path4131" d="m67.653,542.32c11.315,8.0252,15.343,22.281,13.207,38.68-1.0679,8.1998-3.6685,16.946-7.6796,25.779-4.0111,8.8334-9.4314,17.755-16.198,26.329-13.532,17.147-29.917,29.696-45.895,36.206-15.978,6.5097-31.568,6.9592-43.11-0.41218s-16.826-21.203-15.815-37.714c1.0112-16.511,8.3314-35.709,22.091-53.509,6.8796-8.9002,14.719-16.599,22.987-22.867,8.2683-6.2684,16.964-11.105,25.516-14.305,8.5515-3.1992,16.956-4.7601,24.628-4.5099,7.6729,0.25018,14.611,2.3108,20.268,6.3234z" fill="#4f90ca"/>
   <path id="path4133" d="m30.46,564.4c6.196,4.2001,8.6296,11.837,7.6774,20.747-0.95211,8.9101-5.269,19.096-12.644,28.523-7.3746,9.4263-16.426,16.325-25.211,19.89-8.7842,3.564-17.31,3.7894-23.559-0.23024-6.2487-4.0196-9.0315-11.536-8.4008-20.473,0.6307-8.9366,4.6837-19.294,12.111-28.901,7.4273-9.6068,16.828-16.627,25.934-20.164,9.1056-3.5375,17.895-3.5911,24.091,0.60897z" fill="#000"/>
   <path id="path4137" d="m133.84,666.98c6.4227,5.1728,10.809,12.167,13.337,20.323,2.5278,8.1554,3.2033,17.472,2.2085,27.36-0.99479,9.8876-3.6558,20.347-7.8725,30.848-4.2168,10.5-9.9882,21.043-17.315,31.132-7.3271,10.089-15.528,18.775-24.196,25.881-8.6675,7.1063-17.804,12.632-26.94,16.348-9.1365,3.716-18.273,5.6208-26.866,5.4503-8.593-0.17-16.64-2.42-23.545-7.02-13.811-9.2-20.392-26.13-19.566-46.21,0.4133-10.04,2.6722-20.86,6.7821-31.84,4.1094-10.99,10.071-22.14,17.881-32.8,7.8098-10.66,16.73-19.813,26.137-27.183,9.4075-7.37,19.301-12.955,29.019-16.519,9.718-3.5639,19.257-5.1062,27.957-4.4502,8.7,0.65593,16.556,3.5086,22.979,8.6814z" fill="#bfd6ec"/>
   <path id="path4139" d="m115.05,675.43c5.3122,4.1289,8.994,9.7621,11.162,16.374,2.1682,6.612,2.8261,14.203,2.0923,22.29-0.73381,8.0872-2.857,16.671-6.2934,25.306-3.4364,8.6348-8.1854,17.321-14.237,25.636-12.103,16.63-27.185,28.673-42.209,34.783-15.024,6.1094-29.991,6.2607-41.225-1.2631-11.227-7.53-16.54-21.35-15.829-37.71,0.7112-16.36,7.4442-35.28,20.156-52.64,12.713-17.363,29.01-29.822,44.79-35.743,7.8901-2.9605,15.644-4.2931,22.744-3.8449,7.0998,0.44822,13.543,2.6764,18.855,6.8053z" fill="#4f90ca"/>
   <path id="path4141" d="m81.258,696.32c5.8842,4.313,8.3492,11.939,7.6989,20.74-0.65025,8.8008-4.3998,18.781-11.084,27.945-6.6843,9.1639-15.064,15.796-23.319,19.141-8.2548,3.3448-16.389,3.3972-22.438-0.71172-6.0489-4.109-8.8512-11.616-8.4146-20.466,0.43661-8.8499,4.116-19.042,10.965-28.41,6.8491-9.3679,15.566-16.119,24.035-19.414,8.4685-3.2956,16.673-3.1359,22.557,1.1771z" fill="#000"/>
   <path id="path4145" d="m179.19,800.76c5.9616,5.3233,10.132,12.387,12.679,20.536,2.5477,8.149,3.4781,17.383,2.9292,27.125-0.54892,9.742-2.5738,19.993-6.0305,30.238s-8.3447,20.486-14.742,30.246c-6.3972,9.7602-13.713,18.122-21.59,24.928-7.877,6.8051-16.317,12.052-24.87,15.523-8.5526,3.4708-17.217,5.1637-25.443,4.8206s-16.01-2.7238-22.743-7.4158c-6.7326-4.692-11.768-11.255-15.042-19.144-3.2747-7.8884-4.7916-17.101-4.5469-27.053,0.24475-9.9522,2.2497-20.644,5.9903-31.456s9.2175-21.745,16.386-32.136c7.1682-10.392,15.348-19.252,23.952-26.318,8.6042-7.0662,17.632-12.337,26.488-15.597,8.8568-3.2605,17.54-4.5106,25.482-3.6001,7.9418,0.91047,15.139,3.9798,21.1,9.3031z" fill="#bfd6ec"/>
   <path id="path4147" d="m162.45,808.53c4.9669,4.2452,8.4875,9.932,10.671,16.539,2.183,6.607,3.0312,14.135,2.6315,22.109-0.39971,7.9746-2.0455,16.397-4.9073,24.833-2.8618,8.4362-6.9394,16.887-12.276,24.943-5.3368,8.0561-11.437,14.959-17.974,20.572-6.5372,5.6123-13.513,9.9334-20.548,12.788-7.0347,2.8546-14.127,4.2418-20.838,3.9594-6.7108-0.28239-13.038-2.2354-18.501-6.0734-10.926-7.6761-16.268-21.478-15.857-37.693,0.41129-16.215,6.5561-34.843,18.222-51.77,11.666-16.926,26.62-28.871,41.077-34.315,7.2288-2.7218,14.332-3.8262,20.859-3.1799,6.5267,0.64625,12.475,3.042,17.442,7.2872z" fill="#4f90ca"/>
   <path id="path4149" d="m132.06,828.24c5.5724,4.4258,8.0688,12.04,7.7204,20.732-0.34839,8.6915-3.5307,18.465-9.5248,27.367-5.9941,8.9015-13.702,15.267-21.428,18.393-7.7255,3.1256-15.468,3.0051-21.317-1.1932-5.8491-4.1983-8.6709-11.697-8.4284-20.46,0.24251-8.7632,3.5482-18.79,9.819-27.919,6.2709-9.129,14.304-15.611,22.136-18.665,7.8313-3.0538,15.45-2.6806,21.023,1.7452z" fill="#000"/>
   <path id="path4153" d="m236.07,206.99c0.15027,0.11457,0.29917,0.22977,0.44669,0.34557,7.32,5.73,11.237,12.948,12.182,21.032,0.94468,8.0831-1.074,17.035-5.5424,26.393-4.8133,10.136-12.463,20.741-22.301,31.307s-21.858,21.098-35.578,31.128c-20.613,15.07-42.025,26.84-62.206,34.647-15.709,6.1443-30.772,9.7334-44.224,10.316-13.452,0.58271-25.305-1.8457-34.438-7.8186-7.4693-4.8848-12.409-11.685-14.884-19.857-2.4753-8.1724-2.4821-17.716,0.01213-28.035s7.4934-21.413,15.069-32.635c7.5752-11.222,17.731-22.573,30.511-33.347,4.7838-4.0328,9.7651-7.8411,14.897-11.409,12.633-8.6359,26.248-15.779,40.079-21.225,13.831-5.4465,27.872-9.1957,41.238-11.132,13.366-1.9367,26.049-2.0622,37.134-0.34684,11.084,1.7154,20.561,5.2681,27.605,10.639z" fill="#bfd6ec"/>
   <path id="path4155" d="m205.22,213.63c6.3619,4.6769,9.8276,10.744,10.72,17.648,0.89249,6.9044-0.77951,14.648-4.5905,22.771-3.811,8.1227-9.7546,16.627-17.417,25.11-7.6629,8.4837-17.042,16.949-27.81,25.022-15.862,11.891-32.52,21.299-48.41,27.763-13.477,5.5484-26.481,8.8539-38.072,9.5275-11.591,0.67358-21.78-1.2882-29.518-6.3427-6.1241-4.0003-10.131-9.5643-12.091-16.24-1.9597-6.6756-1.8693-14.463,0.26814-22.872,4.275-16.82,16.77-36.169,37.569-53.714,4.7076-3.9711,9.6369-7.6768,14.722-11.096,10.124-6.6954,20.904-12.238,31.771-16.483s21.819-7.1923,32.223-8.7493c10.403-1.557,20.254-1.7243,28.903-0.45763,8.6489,1.2666,16.091,3.9653,21.733,8.1129z" fill="#4f90ca"/>
   <path id="path4157" d="m150.12,232.3c6.8925,4.7716,7.9742,12.725,4.4087,21.675-3.5655,8.9504-11.725,18.913-23.269,27.973-7.4512,5.8478-15.408,10.614-23.2,14.122-8.0709,3.6833-15.997,5.9534-23.045,6.5677-7.0483,0.61428-13.224-0.42853-17.762-3.4022-6.6995-4.3906-8.576-12.178-6.0064-21.275,2.5696-9.0969,9.6182-19.502,20.851-28.954,3.5345-2.9741,7.2714-5.6751,11.117-8.0758h0.000004c10.461-6.4258,21.773-10.632,31.938-12.187s19.158-0.46446,24.966,3.5565z" fill="#000"/>
   <path id="path4161" d="m255.72,346.94c0.13291,0.11717,0.26462,0.23493,0.39514,0.35327,6.4675,5.8529,9.983,13.123,10.943,21.204,0.96004,8.081-0.62713,16.977-4.3039,26.221-3.9684,10.009-10.364,20.423-18.661,30.732-8.2967,10.308-18.489,20.514-30.235,30.148-17.648,14.474-36.227,25.568-54.042,32.708-13.958,5.618-27.489,8.7369-39.709,8.9353-12.219,0.19844-23.135-2.529-31.676-8.6918-6.9856-5.04-11.716-11.908-14.211-20.074-2.4952-8.166-2.752-17.629-0.72779-27.797s6.3327-21.042,12.985-31.975c6.6519-10.933,15.652-21.925,27.019-32.269,4.2551-3.872,8.6904-7.5152,13.263-10.915,11.193-8.2303,23.253-14.978,35.487-20.056,12.234-5.0781,24.636-8.4858,36.425-10.119s22.959-1.4932,32.718,0.44186c9.7591,1.9351,18.1,5.6619,24.331,11.155z" fill="#bfd6ec"/>
   <path id="path4163" d="m228.9,352.94c5.6755,4.7935,8.8239,10.912,9.7457,17.811,0.92187,6.8995-0.37491,14.582-3.5217,22.592-3.1468,8.0095-8.1379,16.348-14.639,24.614-6.501,8.2661-14.509,16.462-23.788,24.212-13.667,11.415-28.191,20.295-42.24,26.241-11.991,5.1017-23.675,8.0035-34.196,8.3455-10.521,0.34206-19.887-1.8796-27.11-7.0974-5.7168-4.1296-9.5457-9.7506-11.522-16.421-1.9766-6.6703-2.0983-14.389-0.35638-22.674,3.4838-16.569,14.459-35.438,32.956-52.283,4.1863-3.8126,8.5762-7.3552,13.108-10.608,8.9737-6.3714,18.532-11.597,28.161-15.545,9.6295-3.9478,19.328-6.6177,28.536-7.9262,9.2076-1.3086,17.921-1.2565,25.578,0.19307,7.6573,1.4496,14.254,4.2948,19.288,8.5459z" fill="#4f90ca"/>
   <path id="path4165" d="m180.7,370.29c6.2423,4.9126,7.3893,12.852,4.4535,21.666-2.9358,8.8136-9.909,18.515-19.965,27.206-6.4906,5.6093-13.482,10.12-20.388,13.379-7.1959,3.4203-14.317,5.4461-20.702,5.8575s-12.038-0.79303-16.254-3.8661c-6.2256-4.5374-8.1488-12.31-6.039-21.265,2.1098-8.9545,8.2805-19.088,18.256-28.159,3.1387-2.8541,6.4655-5.4313,9.8951-7.7069,9.2769-6.0922,19.334-9.9763,28.392-11.265,9.0572-1.2883,17.092,0.0138,22.352,4.1535z" fill="#000"/>
   <path id="path4169" d="m275.36,486.9c0.11555,0.11977,0.23008,0.24009,0.34359,0.36097,5.615,5.9758,8.7293,13.297,9.7047,21.376s-0.18028,16.92-3.0655,26.049c-3.1235,9.8834-8.2658,20.106-15.021,30.156-6.7554,10.05-15.12,19.931-24.893,29.167-14.682,13.877-30.429,24.296-45.878,30.77-12.207,5.0917-24.207,7.7404-35.194,7.5546-10.987-0.18583-20.964-3.2124-28.914-9.565-6.5019-5.1953-11.023-12.132-13.538-20.291-2.5151-8.1595-3.022-17.541-1.4677-27.559,1.5542-10.018,5.172-20.671,10.901-31.314,5.7286-10.643,13.572-21.277,23.527-31.191,3.7264-3.7112,7.6158-7.1893,11.629-10.421,9.7525-7.8247,20.258-14.177,30.895-18.887,10.637-4.7098,21.4-7.7759,31.613-9.1056,10.213-1.3298,19.868-0.92427,28.302,1.2306,8.4339,2.1548,15.64,6.0558,21.057,11.67z" fill="#bfd6ec"/>
   <path id="path4171" d="m252.57,492.25c4.9892,4.9102,7.8202,11.079,8.7714,17.974,0.95126,6.8947,0.0297,14.517-2.4528,22.413-2.4825,7.8963-6.5212,16.069-11.86,24.118-5.339,8.0486-11.976,15.975-19.765,23.402-11.472,10.939-23.861,19.292-36.069,24.719-10.505,4.655-20.869,7.153-30.321,7.1636-9.4513,0.0105-17.994-2.471-24.703-7.8522-5.3094-4.2588-8.9606-9.9369-10.954-16.602-1.9934-6.6649-2.3272-14.316-0.98089-22.475,1.3463-8.1589,4.3746-16.826,9.0987-25.481,4.7241-8.6551,11.146-17.299,19.243-25.371,3.6651-3.654,7.5154-7.0336,11.495-10.121,7.8236-6.0475,16.16-10.956,24.552-14.607,8.3918-3.6507,16.837-6.043,24.849-7.1032s15.588-0.78874,22.254,0.84377c6.6657,1.6325,12.418,4.6244,16.842,8.9789z" fill="#4f90ca"/>
   <path id="path4173" d="m211.28,508.27c5.5921,5.0536,6.8045,12.979,4.4983,21.656-2.3062,8.6769-8.0929,18.117-16.661,26.439-5.5301,5.3709-11.556,9.6269-17.576,12.636-6.3208,3.1573-12.637,4.9387-18.359,5.1473-5.7217,0.20852-10.852-1.1575-14.747-4.33-5.7516-4.6842-7.7217-12.443-6.0717-21.255,1.65-8.8121,6.9428-18.675,15.66-27.364,2.7429-2.7341,5.6596-5.1875,8.673-7.338h0.00001c8.0925-5.7586,16.896-9.3202,24.845-10.342,7.9491-1.0216,15.026,0.49207,19.738,4.7506z" fill="#000"/>
   <path id="path4177" d="m295.01,626.85c0.0982,0.12236,0.19554,0.24526,0.29205,0.36868,4.7625,6.0987,7.4755,13.471,8.4663,21.548,0.99077,8.0769,0.26657,16.862-1.8271,25.877-2.2786,9.7572-6.1672,19.789-11.381,29.58-5.2141,9.7918-11.751,19.347-19.55,28.187-11.717,13.28-24.631,23.024-37.714,28.832-10.455,4.5654-20.925,6.744-30.679,6.1739-9.7538-0.57009-18.793-3.8958-26.152-10.438-6.0181-5.3505-10.33-12.355-12.865-20.508-2.535-8.1531-3.2919-17.453-2.2076-27.32,1.0843-9.8668,4.0114-20.3,8.8167-30.654,4.8054-10.354,11.492-20.628,20.035-30.113,3.1976-3.5504,6.5411-6.8635,9.9946-9.9269,8.3123-7.4191,17.263-13.377,26.303-17.718,9.0396-4.3415,18.165-7.066,26.801-8.0923,8.6359-1.0263,16.778-0.35529,23.886,2.0192,7.1086,2.3745,13.179,6.4496,17.782,12.186z" fill="#bfd6ec"/>
   <path id="path4179" d="m276.25,631.56c4.3029,5.0268,6.8165,11.247,7.7971,18.137,0.98063,6.8899,0.4343,14.451-1.384,22.234s-4.9045,15.79-9.0815,23.621-9.4435,15.488-15.742,22.591c-9.277,10.464-19.532,18.289-29.899,23.197-9.0183,4.2083-18.064,6.3026-26.445,5.9816-8.3814-0.32099-16.101-3.0624-22.295-8.6069-4.9021-4.3881-8.3754-10.123-10.386-16.783-2.0103-6.6595-2.5561-14.243-1.6054-22.276,0.95072-8.0335,3.3994-16.517,7.3569-24.933,3.9576-8.4162,9.426-16.765,16.371-24.487,3.1439-3.4956,6.4547-6.712,9.8821-9.6331,6.6734-5.7236,13.788-10.316,20.942-13.669,7.154-3.3536,14.345-5.4684,21.162-6.2802,6.8164-0.81174,13.255-0.32097,18.93,1.4945,5.6741,1.8154,10.581,4.9539,14.397,9.4118z" fill="#4f90ca"/>
   <path id="path4181" d="m241.86,646.26c4.9419,5.1946,6.2196,13.106,4.5431,21.646-1.6766,8.5401-6.2768,17.72-13.356,25.672-4.5695,5.1324-9.6305,9.1334-14.764,11.893-5.4458,2.8943-10.958,4.4314-16.016,4.437-5.0584,0.006-9.6653-1.522-13.24-4.794-5.2777-4.831-7.2945-12.575-6.1044-21.245,1.1901-8.6696,5.6052-18.261,13.064-26.569,2.3471-2.6141,4.8537-4.9437,7.4509-6.9691,6.908-5.425,14.457-8.6641,21.298-9.419,6.8409-0.75492,12.96,0.97034,17.124,5.3477z" fill="#000"/>
   <path id="path4185" d="m314.65,766.81c0.0808,0.12496,0.161,0.25042,0.24051,0.37638,3.91,6.2216,6.2217,13.645,7.2279,21.719,1.0061,8.0749,0.71342,16.804-0.58871,25.705-1.4338,9.6311-4.0686,19.471-7.7415,29.005-3.6728,9.5337-8.3823,18.764-14.208,27.206-4.3761,6.3417-9.0737,11.774-14.027,16.27-4.9535,4.4954-10.164,8.0532-15.523,10.624-8.7042,4.039-17.643,5.7475-26.164,4.7932-8.5211-0.95436-16.622-4.5792-23.39-11.312-5.5344-5.5058-9.6367-12.579-12.192-20.725-2.5549-8.1466-3.5619-17.366-2.9476-27.082,0.61431-9.7161,2.8507-19.929,6.7328-29.993s9.4122-19.98,16.542-29.036c2.6689-3.3896,5.4664-6.5376,8.3603-9.4328,6.8722-7.0135,14.268-12.576,21.711-16.549,7.4426-3.9732,14.929-6.3561,21.988-7.0789,7.0592-0.72281,13.687,0.2137,19.471,2.808,5.7834,2.5942,10.718,6.8434,14.508,12.701z" fill="#bfd6ec"/>
   <path id="path4187" d="m299.92,770.87c3.6166,5.1434,5.8128,11.415,6.8228,18.3s0.83891,14.385-0.31516,22.055c-1.1541,7.6698-3.2878,15.511-6.3029,23.125-3.0151,7.6135-6.9108,15-11.719,21.781-7.0822,9.9877-15.203,17.285-23.729,21.676-7.532,3.7616-15.258,5.4521-22.57,4.7996-7.3116-0.65251-14.208-3.6537-19.888-9.3616-4.4947-4.5174-7.7902-10.309-9.8173-16.964-2.0271-6.6541-2.7851-14.169-2.2299-22.077,0.55514-7.908,2.4242-16.208,5.6152-24.386,3.191-8.1774,7.7054-16.232,13.499-23.604,2.6226-3.337,5.394-6.3904,8.269-9.1454,5.5233-5.3997,11.417-9.6748,17.333-12.731,5.9163-3.0565,11.854-4.8938,17.475-5.4571,5.6208-0.56334,10.923,0.1468,15.605,2.1452,4.6825,1.9984,8.7438,5.2835,11.951,9.8448z" fill="#4f90ca"/>
   <path id="path4189" d="m272.44,784.25c4.2918,5.3356,5.6348,13.233,4.5879,21.637-1.0469,8.4033-4.4606,17.322-10.052,24.905-3.609,4.894-7.7048,8.6398-11.952,11.15-4.5707,2.6314-9.278,3.924-13.673,3.7268-4.3951-0.19722-8.479-1.8865-11.732-5.2579-4.8038-4.9779-6.8674-12.707-6.1371-21.235,0.7303-8.5272,4.2675-17.847,10.469-25.774,1.9514-2.4941,4.0477-4.6999,6.2288-6.6002h0.00001c5.7236-5.0915,12.018-8.0081,17.751-8.4963,5.7328-0.48821,10.893,1.4486,14.51,5.9448z" fill="#000"/>
   <path id="path4193" d="m508.09,205.47c5.9912,7.8076,7.8943,16.196,6.431,24.615-1.4634,8.4192-6.2891,16.877-13.808,25.023-7.5186,8.1453-17.727,15.983-30.061,23.26-12.334,7.2764-26.79,13.994-42.956,19.933-14.719,5.4072-29.596,9.7118-44.17,12.946-12.362,2.7703-24.401,4.7668-35.867,5.9379-11.465,1.1711-22.358,1.5161-32.415,0.94147-10.057-0.57467-19.279-2.0701-27.369-4.6077-8.0896-2.5376-15.048-6.119-20.514-10.875-7.0764-6.1574-10.982-13.717-11.823-22.221-0.84079-8.5038,1.3909-17.95,6.674-27.696,5.2832-9.7469,13.625-19.793,24.977-29.345,11.351-9.552,25.72-18.607,42.917-26.26,17.299-7.6986,35.81-13.221,54.274-16.492,13.74-2.392,27.288-3.5429,40.118-3.5185s24.941,1.2227,35.851,3.4731,20.619,5.5509,28.705,9.7497c8.0862,4.1988,14.549,9.2934,19.034,15.138z" fill="#bfd6ec"/>
   <path id="path4195" d="m475.83,203.59c5.1132,6.2053,6.9141,12.983,5.9442,19.878-0.96987,6.8952-4.7073,13.913-10.702,20.732-5.9949,6.8194-14.245,13.444-24.313,19.623-10.068,6.1792-21.951,11.915-35.32,16.984-9.2071,3.4913-18.523,6.4412-27.767,8.8623-11.112,2.9365-22.033,5.1094-32.474,6.486-10.442,1.3766-20.406,1.9562-29.602,1.6641-9.1956-0.29216-17.624-1.4571-24.967-3.5982s-13.602-5.2599-18.405-9.4693c-5.8015-5.0849-8.928-11.291-9.5051-18.23-0.57712-6.9388,1.4007-14.608,5.8648-22.496,4.4641-7.8874,11.42-15.991,20.777-23.699,9.3572-7.7079,21.121-15.018,35.108-21.249,17.207-7.6656,35.777-12.773,53.896-15.256,20.398-2.7331,39.836-2.1442,55.835,1.3397s28.549,9.833,35.63,18.427z" fill="#4f90ca"/>
   <path id="path4197" d="m414.09,207.23c5.7483,6.1221,5.0063,13.722-0.54387,21.181-5.5501,7.4582-15.884,14.801-29.609,20.756-1.1075,0.48343-2.2364,0.95795-3.3861,1.4229-14.822,5.9946-30.264,9.3098-43.595,9.8108-13.331,0.50099-24.597-1.8373-30.911-7.522-3.1569-2.8424-4.7676-6.2577-4.9441-10.02-0.17651-3.7625,1.0829-7.8713,3.6829-12.062,5.1999-8.3824,15.795-17.109,30.855-23.775,7.973-3.5292,16.389-6.1172,24.686-7.7429,8.2975-1.6256,16.475-2.2892,23.952-2.0196,13.291,0.5188,24.186,3.9782,29.814,9.9723z" fill="#000"/>
   <path id="path4201" d="m489.86,345.63c5.0593,7.6858,6.5491,16.012,5.1246,24.437-1.4245,8.4247-5.7583,16.955-12.373,25.217-6.6144,8.2625-15.506,16.263-26.134,23.708-10.628,7.4453-22.99,14.338-36.689,20.412-12.473,5.5302-24.988,9.9123-37.183,13.172-20.689,5.5492-40.336,7.8904-57.324,6.5253-8.494-0.68253-16.32-2.3008-23.224-4.9568-6.9046-2.656-12.89-6.3507-17.639-11.194-6.1488-6.2713-9.6428-13.889-10.522-22.388-0.87951-8.4986,0.86261-17.877,5.2458-27.514,4.3832-9.6373,11.414-19.532,21.068-28.93,9.6537-9.3975,21.937-18.295,36.678-25.834,14.829-7.5839,30.727-13.049,46.572-16.326,11.791-2.4132,23.452-3.619,34.508-3.6757s21.506,1.0345,30.915,3.1658c9.409,2.1314,17.776,5.301,24.721,9.3758,6.9454,4.0747,12.469,9.0522,16.256,14.805z" fill="#bfd6ec"/>
   <path id="path4203" d="m461.97,344.24c4.3318,6.1297,5.7849,12.869,4.8477,19.768-0.93719,6.8986-4.261,13.961-9.4979,20.853-5.2368,6.8921-12.384,13.617-21.029,19.899-8.6455,6.2819-18.787,12.123-30.114,17.269-7.8013,3.544-15.661,6.5293-23.434,8.9664-18.687,5.8804-36.741,8.6285-52.312,7.8734-7.7857-0.37756-14.95-1.6403-21.222-3.8753-6.2726-2.235-11.656-5.4435-15.825-9.7211-5.036-5.1673-7.822-11.415-8.4311-18.35-0.60912-6.9351,0.96365-14.556,4.6852-22.364,3.7216-7.8082,9.5966-15.802,17.56-23.395,7.9634-7.5933,18.02-14.784,30.005-20.923,14.745-7.5519,30.69-12.602,46.232-15.091,17.496-2.7647,34.235-2.2843,47.998,1.0643,13.764,3.3486,24.538,9.5388,30.537,18.028z" fill="#4f90ca"/>
   <path id="path4205" d="m408.84,348.45c4.892,6.0901,4.1989,13.692-0.57943,21.179-4.7783,7.4873-13.614,14.883-25.253,20.861-0.93913,0.48379-1.8963,0.95842-2.8709,1.4232-12.566,5.9925-25.644,9.2535-36.977,9.6693-11.333,0.41586-20.963-2.0345-26.425-7.7821-5.4612-5.7476-5.6932-13.757-1.32-22.078,4.3732-8.3217,13.396-16.938,26.281-23.513,6.8219-3.4813,14.032-6.0329,21.141-7.6362,7.1085-1.6033,14.113-2.2586,20.51-1.9912,11.372,0.49789,20.703,3.9059,25.493,9.8686z" fill="#000"/>
   <path id="path4209" d="m471.63,485.78c4.1274,7.564,5.2039,15.829,3.8183,24.259-1.3856,8.4302-5.2276,17.032-10.938,25.412-5.7103,8.3798-13.285,16.542-22.208,24.156-8.9231,7.6143-19.191,14.683-30.423,20.891-10.228,5.6533-20.38,10.113-30.197,13.398-16.655,5.5577-32.505,7.7521-46.367,6.1713-6.9312-0.79039-13.36-2.5316-19.079-5.3059-5.7196-2.7743-10.731-6.5824-14.764-11.514-5.2212-6.3852-8.3037-14.061-9.2219-22.554-0.91823-8.4934,0.33432-17.804,3.8175-27.332,3.4832-9.5278,9.2032-19.272,17.159-28.515,7.956-9.2431,18.154-17.983,30.44-25.408,12.358-7.4692,25.644-12.877,38.871-16.159,9.8427-2.4344,19.616-3.6951,28.899-3.8329,9.2824-0.13779,18.072,0.84622,25.98,2.8585,7.9078,2.0123,14.933,5.0512,20.737,9.0019,5.8045,3.9506,10.388,8.811,13.477,14.473z" fill="#bfd6ec"/>
   <path id="path4211" d="m448.12,484.89c3.5503,6.0542,4.6557,12.755,3.7512,19.657-0.90451,6.9021-3.8148,14.009-8.2936,20.974-4.4788,6.9647-10.523,13.79-17.746,20.174-7.2232,6.3846-15.623,12.33-24.909,17.553-6.3956,3.5967-12.798,6.6174-19.1,9.0706-15.15,5.8879-29.796,8.5226-42.548,7.5966-6.3758-0.46298-12.275-1.8235-17.477-4.1524-5.2021-2.3289-9.7089-5.6271-13.244-9.9728-4.2705-5.2496-6.7159-11.539-7.3571-18.47-0.64114-6.9314,0.52663-14.504,3.5056-22.233,2.979-7.7289,7.7735-15.613,14.343-23.092,6.5697-7.4788,14.919-14.55,24.903-20.597,12.282-7.4382,25.604-12.432,38.567-14.926,14.593-2.7963,28.633-2.4244,40.161,0.78891,11.528,3.2134,20.527,9.2447,25.444,17.629z" fill="#4f90ca"/>
   <path id="path4213" d="m403.6,489.67c4.0357,6.058,3.3914,13.662-0.61499,21.178-4.0064,7.5163-11.345,14.966-20.896,20.966-0.77076,0.48414-1.5562,0.95888-2.3558,1.4235-10.309,5.9904-21.024,9.1972-30.36,9.5279-9.3356,0.33072-17.329-2.2317-21.938-8.0423-4.6087-5.8105-4.9252-13.813-1.3787-22.074s10.997-16.767,21.708-23.251c11.341-6.8668,24.029-10.022,34.664-9.4924,9.452,0.47698,17.221,3.8336,21.172,9.7649z" fill="#000"/>
   <path id="path4217" d="m453.39,625.93c3.1955,7.4422,3.8586,15.646,2.512,24.082-1.3467,8.4357-4.6969,17.109-9.5031,25.606s-11.064,16.821-18.281,24.604c-7.2178,7.7833-15.391,15.027-24.157,21.371-7.9817,5.7763-15.771,10.313-23.21,13.625-12.621,5.5663-24.674,7.6138-35.41,5.8173-5.3683-0.89825-10.4-2.7624-14.935-5.6551-4.5346-2.8926-8.573-6.8142-11.889-11.834-4.2936-6.4991-6.9646-14.233-7.9216-22.721-0.95696-8.4883-0.19398-17.731,2.3892-27.15,2.5832-9.4182,6.9923-19.011,13.251-28.1,6.2583-9.0887,14.372-17.671,24.201-24.982,9.8878-7.3546,20.56-12.705,31.169-15.993,15.788-4.9112,31.52-5.2254,44.334-1.4389,6.4066,1.8932,12.089,4.8014,16.753,8.628,4.6637,3.8266,8.3071,8.5698,10.699,14.14z" fill="#bfd6ec"/>
   <path id="path4219" d="m434.26,625.54c2.7688,5.9786,3.5265,12.641,2.6547,19.546-0.87182,6.9055-3.3686,14.058-7.0893,21.095-3.7207,7.0374-8.6618,13.962-14.463,20.45-5.801,6.4873-12.459,12.538-19.704,17.837-4.9898,3.6494-9.9361,6.7055-14.766,9.1747-11.612,5.8954-22.852,8.4167-32.784,7.3199-4.966-0.5484-9.6-2.0068-13.732-4.4296-4.1317-2.4228-7.7622-5.8107-10.664-10.225-3.505-5.332-5.6099-11.663-6.283-18.59-0.67315-6.9276,0.0896-14.452,2.326-22.102,2.2364-7.6496,5.9504-15.424,11.126-22.788,5.1759-7.3642,11.817-14.317,19.8-20.271,9.8202-7.3245,20.518-12.262,30.902-14.761,11.69-2.8279,23.032-2.5646,32.324,0.51351,9.2925,3.0781,16.516,8.9505,20.351,17.23z" fill="#4f90ca"/>
   <path id="path4221" d="m398.35,630.89c3.1794,6.026,2.584,13.631-0.65055,21.177-3.2346,7.5454-9.0749,15.048-16.54,21.071-0.60238,0.4845-1.216,0.95936-1.8407,1.4238-8.0532,5.9883-16.404,9.1408-23.742,9.3864-7.3377,0.24559-13.696-2.429-17.452-8.3024-3.7562-5.8734-4.1573-13.869-1.4375-22.07,2.7198-8.2004,8.5976-16.595,17.134-22.989,9.0391-6.7709,19.202-9.8829,27.677-9.3574,7.5325,0.45607,13.738,3.7613,16.851,9.6612z" fill="#000"/>
   <path id="path4225" d="m435.16,766.08c2.2637,7.3204,2.5134,15.463,1.2056,23.904-1.3078,8.4412-4.1661,17.186-8.0682,25.801-3.9021,8.6142-8.8426,17.101-14.355,25.053-5.5124,7.9522-11.592,15.371-17.891,21.85-5.7358,5.8993-11.163,10.514-16.224,13.851-4.2933,2.7874-8.4942,4.6535-12.583,5.5741-4.0884,0.92056-8.0654,0.89531-11.871-0.11081-3.8055-1.0061-7.4403-2.9932-10.79-6.0042-3.3495-3.011-6.4146-7.0459-9.0144-12.154-3.3659-6.613-5.6255-14.404-6.6212-22.887-0.99568-8.4831-0.72226-17.659,0.96096-26.967,1.6832-9.3087,4.7813-18.751,9.3419-27.685,4.5606-8.9342,10.589-17.359,17.963-24.556,7.4174-7.2399,15.477-12.533,23.468-15.826,11.892-4.9537,23.978-5.4518,33.788-1.9034,4.9054,1.7742,9.2463,4.5516,12.769,8.254,3.5228,3.7025,6.2263,8.3286,7.9207,13.808z" fill="#bfd6ec"/>
   <path id="path4227" d="m420.41,766.19c1.9873,5.9031,2.3973,12.527,1.5581,19.436-0.83913,6.9089-2.9224,14.106-5.885,21.216-2.9627,7.1101-6.8008,14.135-11.18,20.725-4.3788,6.59-9.2946,12.746-14.499,18.121-3.584,3.7021-7.0739,6.7936-10.433,9.2789-8.0753,5.9029-15.908,8.3108-23.02,7.0431-3.5561-0.63381-6.9252-2.19-9.9864-4.7067s-5.8154-5.9943-8.0832-10.476c-2.7395-5.4143-4.5039-11.787-5.209-18.71-0.70516-6.9239-0.34741-14.4,1.1465-21.97,1.4939-7.5704,4.1273-15.235,7.9095-22.485,3.7822-7.2497,8.7164-14.083,14.697-19.945,7.358-7.2108,15.432-12.092,23.238-14.597,8.787-2.8596,17.43-2.7047,24.487,0.23812s12.506,8.6563,15.258,16.831z" fill="#4f90ca"/>
   <path id="path4229" d="m393.1,772.11c2.3231,5.994,1.7766,13.601-0.68611,21.175-2.4627,7.5744-6.8052,15.13-12.183,21.176-0.434,0.48486-0.8759,0.95983-1.3255,1.4241-5.7968,5.9862-11.785,9.0845-17.125,9.2449-5.3399,0.16045-10.062-2.6262-12.965-8.5626-2.9036-5.9363-3.3893-13.926-1.4963-22.065,1.893-8.1398,6.1984-16.424,12.561-22.728,6.7368-6.675,14.375-9.7433,20.691-9.2223,5.6129,0.43518,10.256,3.689,12.53,9.5576z" fill="#000"/>
   <path id="path4233" d="m750.05,263.9c3.3855,8.4977,3.2386,16.934,0.2202,24.922-3.0184,7.9887-8.909,15.532-17.1,22.302-8.1912,6.7697-18.683,12.767-30.986,17.694-12.303,4.9271-26.415,8.7856-41.942,11.292-4.6761,0.7547-9.348,1.3653-14,1.8379-13.676,1.3773-27.22,1.6413-40.216,0.90866-12.997-0.7326-25.449-2.462-36.917-5.1332s-21.955-6.2857-30.962-10.839c-9.0075-4.5535-16.538-10.049-21.998-16.5-1.1948-1.4052-2.2898-2.8552-3.2782-4.3502-5.5734-8.4301-7.1916-17.456-5.0905-26.542,2.1011-9.0861,7.9323-18.226,17.184-26.639,7.8882-7.1914,18.252-13.854,30.712-19.464,12.461-5.6104,27.018-10.165,43.123-13.148,14.244-2.638,28.583-3.8393,42.405-3.7422s27.126,1.4914,39.375,3.9906c17.527,3.6316,32.954,9.4626,44.935,16.893,11.982,7.4301,20.524,16.453,24.534,26.518z" fill="#bfd6ec"/>
   <path id="path4235" d="m723.2,256.92c2.8931,6.7946,2.9772,13.573,0.74577,20.029-2.2314,6.4558-6.7782,12.59-13.203,18.136-6.425,5.5456-14.728,10.503-24.528,14.625-9.8001,4.1223-21.097,7.4103-33.574,9.6229-0.82349,0.1446-1.6522,0.2848-2.4862,0.42053-12.975,2.1118-25.98,2.9495-38.493,2.6721-12.513-0.27743-24.535-1.6702-35.509-4.091s-20.903-5.8713-29.158-10.321c-8.2552-4.4495-14.839-9.902-19.01-16.338-4.1712-6.4364-5.5219-13.255-4.2376-20.097,1.2844-6.8422,5.2083-13.705,11.519-20.131,6.3103-6.4263,15.01-12.413,25.721-17.454,10.711-5.0412,23.434-9.1336,37.641-11.771,14.354-2.665,28.832-3.5843,42.539-2.9682,13.707,0.61614,26.641,2.7654,38.028,6.1592,10.986,3.3256,20.553,7.7898,28.08,13.127,7.5273,5.3373,13.016,11.546,15.926,18.38z" fill="#4f90ca"/>
   <path id="path4237" d="m669.98,248.84c0.69095,1.4088,1.1495,2.8229,1.3904,4.2315,0.71466,4.3296-0.59681,8.6042-3.5468,12.545-3.1214,4.1376-8.0714,7.9096-14.449,11.028-6.378,3.1182-14.184,5.5839-23.075,7.118-14.504,2.5024-29.182,2.0812-41.421-0.67191s-22.056-7.8593-26.436-14.952c-4.3798-7.0926-2.4231-14.865,4.5604-21.641,6.9835-6.7754,19.013-12.525,34.26-15.35,15.247-2.8251,30.738-2.1605,43.197,1.122s21.884,9.1553,25.521,16.571z" fill="#000"/>
   <path id="path4241" d="m704.62,397.64c2.9003,8.3359,2.5435,16.701-0.45491,24.696-2.9984,7.9954-8.6384,15.624-16.358,22.55-7.7197,6.9268-17.518,13.154-28.894,18.383-11.376,5.2296-24.327,9.4633-38.433,12.42-4.2484,0.8903-8.4814,1.6394-12.684,2.253-12.288,1.787-24.331,2.4537-35.778,2.101-11.447-0.35274-22.301-1.7251-32.214-4.074-9.9125-2.349-18.887-5.6758-26.538-9.9852-7.6513-4.3094-13.983-9.6042-18.521-15.905-0.9911-1.3731-1.8962-2.7938-2.7096-4.2621-4.5869-8.2797-5.7964-17.251-3.8132-26.354,1.9832-9.1028,7.1708-18.331,15.339-26.915,6.9736-7.34,16.115-14.207,27.134-20.077,11.02-5.8706,23.919-10.742,38.248-14.099,12.674-2.9694,25.474-4.5225,37.849-4.7858,12.375-0.26334,24.322,0.7619,35.342,2.8982,15.847,3.1039,29.81,8.4656,40.61,15.512s18.442,15.77,21.877,25.644z" fill="#bfd6ec"/>
   <path id="path4243" d="m680.1,391.43c2.4738,6.658,2.3709,13.375,0.15035,19.835-2.2206,6.4594-6.5583,12.663-12.588,18.337-6.03,5.6742-13.752,10.82-22.782,15.19-9.0307,4.3692-19.369,7.9623-30.691,10.538-0.74326,0.16829-1.4908,0.33234-2.2426,0.49207-11.696,2.4851-23.301,3.6979-34.364,3.7768-11.063,0.079-21.585-0.97597-31.111-3.093-9.5263-2.117-18.061-5.2979-25.101-9.5237-7.0401-4.2258-12.59-9.5005-16.043-15.816-3.4527-6.3153-4.4714-13.081-3.2178-19.928,1.2536-6.8472,4.785-13.773,10.4-20.317,5.6148-6.5438,13.317-12.702,22.809-17.968,9.4923-5.2658,20.776-9.6359,33.416-12.605,12.77-2.9996,25.687-4.2767,37.944-4.0226,12.257,0.25408,23.851,2.0369,34.062,5.0838,9.9024,2.9852,18.517,7.1463,25.258,12.232,6.7417,5.0854,11.611,11.093,14.1,17.79z" fill="#4f90ca"/>
   <path id="path4245" d="m631.78,384.91c0.58488,1.3779,0.96003,2.7674,1.1387,4.1576,0.53493,4.2732-0.76859,8.5502-3.5468,12.545-2.9297,4.1942-7.4957,8.0794-13.309,11.356-5.8131,3.2767-12.872,5.9461-20.838,7.7166-12.995,2.8881-25.961,2.8645-36.652,0.44297-10.692-2.4216-19.135-7.2615-22.787-14.216-3.6525-6.9543-1.7688-14.741,4.5103-21.65,6.279-6.9095,16.98-12.915,30.549-16.101,13.569-3.1861,27.365-2.9218,38.44,0.005,11.075,2.9273,19.418,8.4911,22.496,15.743z" fill="#000"/>
   <path id="path4249" d="m659.19,531.38c2.4151,8.174,1.8485,16.468-1.13,24.47-2.9785,8.0021-8.3677,15.715-15.616,22.799-7.2483,7.0839-16.354,13.541-26.803,19.073s-22.238,10.141-34.925,13.547c-3.8208,1.0259-7.6147,1.9136-11.369,2.668-10.9,2.1966-21.443,3.2662-31.34,3.2933-9.8978,0.0271-19.153-0.98818-27.51-3.0149s-15.819-5.066-22.114-9.1313c-6.2951-4.0653-11.428-9.1594-15.045-15.31-0.78738-1.3411-1.5026-2.7324-2.1411-4.174-3.6003-8.1293-4.4012-17.047-2.5359-26.166,1.8653-9.1195,6.4093-18.437,13.493-27.191,6.0591-7.4887,13.977-14.559,23.556-20.69,9.5787-6.1307,20.819-11.318,33.374-15.05,11.103-3.3008,22.366-5.2057,33.294-5.8295,10.928-0.62378,21.518,0.0324,31.309,1.8059,14.168,2.5762,26.666,7.4686,36.285,14.131,9.6189,6.6627,16.36,15.088,19.22,24.77z" fill="#bfd6ec"/>
   <path id="path4251" d="m637,525.94c2.0544,6.5214,1.7647,13.177-0.44507,19.64-2.2097,6.4629-6.3384,12.735-11.973,18.538-5.635,5.8028-12.775,11.138-21.036,15.754-8.2612,4.6161-17.642,8.5144-27.808,11.453-0.66301,0.19198-1.3293,0.37986-1.9989,0.5636-10.417,2.8585-20.622,4.4462-30.235,4.8816-9.6124,0.43539-18.634-0.28171-26.712-2.095-8.0783-1.8133-15.218-4.7245-21.043-8.7266-5.825-4.0022-10.341-9.0991-13.075-15.293-2.7342-6.1943-3.421-12.906-2.1981-19.759,1.2229-6.8523,4.3618-13.842,9.2812-20.503,4.9194-6.6613,11.624-12.991,19.897-18.482,8.2736-5.4904,18.118-10.138,29.19-13.438,11.186-3.3343,22.543-4.9691,33.35-5.0771,10.807-0.10799,21.061,1.3085,30.097,4.0084,8.819,2.6448,16.481,6.5028,22.437,11.336,5.9562,4.8334,10.207,10.64,12.273,17.199z" fill="#4f90ca"/>
   <path id="path4253" d="m593.59,520.98c0.47882,1.3469,0.77054,2.7119,0.88704,4.0838,0.35519,4.2167-0.94038,8.4962-3.5468,12.545-2.738,4.2507-6.9199,8.2491-12.168,11.684-5.2481,3.4352-11.561,6.3083-18.602,8.3152-11.485,3.2738-22.739,3.6479-31.884,1.5578-9.1446-2.0901-16.214-6.6637-19.139-13.48-2.9251-6.816-1.1145-14.616,4.4601-21.66,5.5746-7.0436,14.947-13.305,26.838-16.852,11.89-3.5471,23.993-3.6832,33.683-1.1111,9.6902,2.5721,16.951,7.8269,19.472,14.916z" fill="#000"/>
   <path id="path4257" d="m613.76,665.12c1.9299,8.0122,1.1534,16.235-1.8051,24.244-2.9585,8.0088-8.0971,15.806-14.874,23.047s-15.19,13.928-24.711,19.762c-9.5218,5.8345-20.149,10.819-31.416,14.675-3.3931,1.1615-6.7481,2.1877-10.054,3.0831-9.5124,2.6063-18.554,4.0786-26.903,4.4856-8.3483,0.40701-16.006-0.25129-22.807-1.9558-6.8015-1.7045-12.752-4.4562-17.69-8.2774-4.9389-3.8212-8.8721-8.7146-11.568-14.716-0.58366-1.309-1.109-2.671-1.5725-4.086-2.6137-7.9789-3.006-16.842-1.2586-25.979,1.7473-9.1362,5.6478-18.542,11.647-27.467,5.1445-7.6373,11.84-14.912,19.978-21.303,8.1377-6.3908,17.72-11.895,28.499-16.001,9.5334-3.6321,19.258-5.8889,28.738-6.8731,9.4801-0.98423,18.714-0.69716,27.276,0.71353,12.488,2.0485,23.522,6.4717,31.959,12.751,8.4376,6.279,14.277,14.406,16.563,23.896z" fill="#bfd6ec"/>
   <path id="path4259" d="m593.91,660.45c1.6351,6.3848,1.1584,12.979-1.0405,19.446-2.1989,6.4664-6.1184,12.807-11.358,18.738-5.24,5.9314-11.799,11.455-19.291,16.318-7.4917,4.863-15.914,9.0664-24.925,12.368-0.58277,0.21566-1.1679,0.42739-1.7552,0.63513-9.1376,3.2319-17.944,5.1946-26.106,5.9864-8.1623,0.7918-15.684,0.41256-22.314-1.097-6.6304-1.5096-12.375-4.151-16.985-7.9296-4.6099-3.7785-8.0917-8.6976-10.107-14.771-2.0156-6.0733-2.3705-12.732-1.1784-19.59,1.1921-6.8573,3.9385-13.91,8.1624-20.689,4.2239-6.7788,9.9308-13.28,16.986-18.995,7.0549-5.715,15.46-10.641,24.964-14.272,9.6024-3.6689,19.398-5.6615,28.755-6.1315,9.3569-0.47005,18.271,0.58011,26.131,2.9329,7.7356,2.3044,14.445,5.8593,19.615,10.441,5.1706,4.5815,8.8016,10.187,10.446,16.609z" fill="#4f90ca"/>
   <path id="path4261" d="m555.39,657.05c0.37274,1.316,0.58104,2.6563,0.63539,4.0099,0.17545,4.1602-1.1122,8.4422-3.5468,12.545-5.0926,8.6146-15.161,16.44-27.392,20.926-9.9763,3.6594-19.518,4.4313-27.115,2.6727-7.5977-1.7586-13.293-6.0658-15.491-12.744-2.1978-6.6778-0.46015-14.492,4.41-21.669,4.8702-7.1777,12.914-13.695,23.127-17.603,10.212-3.9081,20.62-4.4446,28.926-2.2277,8.3058,2.2168,14.485,7.1627,16.447,14.089z" fill="#000"/>
   <path id="path4265" d="m568.33,798.86c1.4447,7.8504,0.45835,16.003-2.4802,24.018-2.9386,8.0155-7.8265,15.897-14.132,23.296-6.3055,7.3982-14.025,14.315-22.62,20.452-8.5948,6.137-18.06,11.496-27.907,15.803-2.9654,1.2971-5.8815,2.4619-8.7393,3.4981-8.1245,3.016-15.666,4.8911-22.465,5.678-6.7988,0.78688-12.858,0.48559-18.104-0.89661-5.2459-1.3822-9.6839-3.8464-13.267-7.4235-3.5827-3.5772-6.3167-8.2698-8.0909-14.121-0.37993-1.277-0.71544-2.6096-1.004-3.9979-1.6271-7.8285-1.6107-16.638,0.0187-25.791,1.6294-9.1529,4.8863-18.647,9.8011-27.742,4.23-7.7859,9.7028-15.265,16.4-21.916,6.6968-6.6509,14.62-12.471,23.624-16.953,7.9632-3.9635,16.15-6.5721,24.182-7.9167,8.0327-1.3447,15.909-1.4267,23.242-0.37882,10.809,1.5208,20.378,5.4747,27.634,11.37,7.2563,5.8954,12.195,13.723,13.906,23.022z" fill="#bfd6ec"/>
   <path id="path4267" d="m550.81,794.96c1.2158,6.2482,0.55217,12.781-1.6359,19.251s-5.8985,12.879-10.744,18.939c-4.8451,6.0601-10.823,11.773-17.545,16.882-6.7223,5.1098-14.187,9.6184-22.041,13.283-0.50253,0.23934-1.0064,0.47492-1.5115,0.70665-7.8586,3.6052-15.265,5.9429-21.977,7.0912-6.7121,1.1482-12.733,1.1068-17.916-0.0991-5.1824-1.2059-9.5323-3.5776-12.927-7.1325-3.3948-3.5549-5.8426-8.2962-7.1397-14.248-1.2971-5.9522-1.32-12.558-0.15861-19.42,1.1614-6.8623,3.5152-13.979,7.0437-20.875,3.5285-6.8962,8.2378-13.569,14.074-19.509,5.8362-5.9396,12.802-11.143,20.739-15.105,8.0184-4.0036,16.253-6.3539,24.16-7.186,7.9068-0.83212,15.482-0.1483,22.166,1.8575,6.6521,1.964,12.409,5.2159,16.794,9.5455s7.3966,9.7341,8.6194,16.019z" fill="#4f90ca"/>
   <path id="path4269" d="m517.19,793.12c0.26667,1.285,0.39154,2.6008,0.38373,3.936-0.004,4.1038-1.284,8.3882-3.5468,12.545-4.7093,8.7278-13.634,16.894-24.015,21.853-8.4672,4.0451-16.296,5.2147-22.347,3.7876-6.0507-1.4271-10.372-5.468-11.842-12.008-1.4704-6.5395,0.19418-14.367,4.3599-21.679,4.1658-7.3119,10.882-14.084,19.416-18.353,8.534-4.2691,17.247-5.2059,24.169-3.3443,6.9215,1.8616,12.019,6.4985,13.423,13.262z" fill="#000"/>
   <path id="path4273" d="m950.05,343.94c1.8533,8.5134,0.63097,16.788-3.0896,24.477s-9.9426,14.793-18.175,20.975c-16.465,12.364-40.942,21.027-70.028,23.406-14.543,1.1896-28.875,0.70265-42.411-1.1866s-26.277-5.1804-37.61-9.6441c-11.333-4.4638-21.259-10.102-29.106-16.722-7.8473-6.62-13.617-14.226-16.544-22.624-2.9268-8.3985-2.7209-16.798,0.29027-24.79,3.0112-7.9911,8.8315-15.57,17.056-22.27s18.855-12.518,31.366-16.979,26.902-7.563,42.519-8.8676c15.617-1.3045,30.962-0.68971,45.208,1.5012s27.391,5.9556,38.731,10.937c11.34,4.9818,20.878,11.179,28.027,18.252,7.1487,7.0729,11.913,15.021,13.766,23.534z" fill="#bfd6ec"/>
   <path id="path4275" d="m927.25,335.59c1.6272,6.9459,0.71168,13.706-2.2808,19.994-2.9925,6.2874-8.0637,12.103-14.806,17.168-13.484,10.13-33.624,17.257-57.584,19.227-23.96,1.9703-47.277-1.5458-65.941-8.8974-9.3318-3.6758-17.495-8.3186-23.93-13.758-6.435-5.4397-11.143-11.678-13.502-18.544-2.3596-6.8651-2.1394-13.709,0.36603-20.201,2.5055-6.492,7.2982-12.63,14.031-18.049,6.7324-5.4188,15.405-10.116,25.594-13.72,10.189-3.6045,21.892-6.1148,34.605-7.1808,12.712-1.066,25.219-0.58733,36.863,1.1687s22.426,4.7881,31.767,8.8174c9.3414,4.0293,17.244,9.0548,23.205,14.805,5.9615,5.7503,9.9849,12.225,11.612,19.171z" fill="#4f90ca"/>
   <path id="path4277" d="m881.23,324.1c2.014,7.5209-1.5793,14.694-8.9244,20.252-7.3451,5.5576-18.446,9.5052-31.683,10.608s-26.136-0.83886-36.399-4.9029c-10.263-4.0641-17.895-10.261-20.355-17.73-2.46-7.4694,0.76203-14.806,8.0969-20.58,7.3348-5.7734,18.788-9.9687,32.471-11.123,13.683-1.1544,26.954,0.95134,37.226,5.2312,10.273,4.2799,17.554,10.724,19.568,18.245z" fill="#000"/>
   <path id="path4281" d="m891.96,472.8c1.6848,8.4231,0.39525,16.659-3.3187,24.351-3.714,7.6927-9.8545,14.843-17.922,21.113-16.136,12.54-39.961,21.542-67.777,24.467-13.908,1.4626-27.506,1.2756-40.242-0.30165-12.737-1.5773-24.614-4.5445-35.086-8.6949s-19.543-9.4855-26.631-15.841c-7.0884-6.3559-12.198-13.736-14.663-21.978-2.4647-8.2419-2.0422-16.569,0.9491-24.567,2.9913-7.9978,8.5559-15.663,16.334-22.514,7.7776-6.8516,17.771-12.886,29.521-17.612s25.258-8.1404,39.946-9.7842,29.151-1.3623,42.611,0.51964,25.914,5.3617,36.676,10.094c10.763,4.7321,19.835,10.715,26.624,17.614,6.7882,6.8987,11.296,14.713,12.98,23.136z" fill="#bfd6ec"/>
   <path id="path4283" d="m870.03,464.89c2.9182,13.731-3.9067,26.885-17.063,37.172-13.157,10.287-32.657,17.715-55.495,20.149-22.838,2.4348-44.727-0.53303-61.992-7.3745-8.6325-3.4207-16.11-7.8194-21.941-13.047-5.8313-5.2278-10.018-11.287-12.015-18.028-1.9965-6.7405-1.6072-13.527,0.88266-20.024,2.4898-6.4974,7.0828-12.704,13.464-18.243,6.3811-5.5393,14.552-10.41,24.135-14.227,9.5832-3.8171,20.579-6.5793,32.535-7.9216,11.957-1.3423,23.733-1.1377,34.714,0.36138s21.165,4.2913,29.995,8.1079c8.8296,3.8166,16.305,8.6565,21.928,14.255,5.6223,5.5981,9.3933,11.954,10.852,18.819z" fill="#4f90ca"/>
   <path id="path4285" d="m826.12,454.33c1.7691,7.4196-1.8003,14.603-8.9075,20.259s-17.752,9.7915-30.297,11.165c-12.546,1.3732-24.638-0.26428-34.158-4.0554-9.5192-3.7911-16.476-9.7471-18.577-17.089-2.1009-7.3422,1.0849-14.692,8.0721-20.589,6.9872-5.8966,17.786-10.324,30.664-11.775,12.878-1.4505,25.354,0.35373,34.993,4.3854,9.6392,4.0317,16.442,10.28,18.211,17.699z" fill="#000"/>
   <path id="path4289" d="m833.87,601.65c3.0326,16.666-5.4109,32.762-21.218,45.477s-38.98,22.057-65.526,25.528c-13.273,1.7355-26.136,1.8486-38.073,0.58328s-22.951-3.9087-32.563-7.7456c-9.6123-3.8369-17.827-8.8693-24.157-14.961-6.3295-6.0917-10.778-13.247-12.781-21.332-2.0026-8.0852-1.3634-16.34,1.6079-24.345,2.9713-8.0045,8.2803-15.755,15.611-22.758,7.3308-7.0031,16.687-13.255,27.676-18.246,10.99-4.9909,23.613-8.7177,37.373-10.701,13.76-1.9831,27.34-2.0348,40.013-0.46195,12.673,1.5729,24.437,4.7679,34.622,9.2504s18.792,10.251,25.22,16.975c6.4278,6.7245,10.678,14.404,12.194,22.737z" fill="#bfd6ec"/>
   <path id="path4291" d="m812.81,594.18c2.582,13.57-4.2109,26.74-17.04,37.184-12.829,10.443-31.689,18.172-53.405,21.072-21.716,2.8994-42.176,0.47979-58.043-5.8516-7.9331-3.1657-14.724-7.3202-19.952-12.336-5.2275-5.0158-8.8942-10.896-10.528-17.512-1.6335-6.6159-1.075-13.345,1.3993-19.848,2.4742-6.5027,6.8675-12.777,12.897-18.437,6.0299-5.6599,13.699-10.703,22.677-14.733,8.9779-4.0296,19.265-7.0437,30.466-8.6623,22.401-3.2371,44.15-0.25542,60.786,6.9524s28.16,18.602,30.742,32.171z" fill="#4f90ca"/>
   <path id="path4293" d="m771.02,584.56c1.5242,7.3182-2.0212,14.511-8.8906,20.266-6.8694,5.7543-17.057,10.078-28.911,11.721-11.854,1.6436-23.141,0.31032-31.916-3.2079-8.7758-3.5182-15.058-9.2336-16.8-16.449-1.7419-7.2151,1.4078-14.578,8.0474-20.597,6.6396-6.0197,16.785-10.68,28.856-12.427,12.072-1.7467,23.754-0.24387,32.76,3.5397,9.0056,3.7836,15.33,9.8357,16.854,17.154z" fill="#000"/>
   <path id="path4297" d="m775.78,730.51c2.6957,16.485-5.7164,32.598-21.195,45.489-15.478,12.891-37.999,22.572-63.275,26.589-12.638,2.0085-24.766,2.4215-35.904,1.4682-11.138-0.95334-21.288-3.2728-30.04-6.7964-8.7521-3.5235-16.111-8.2531-21.682-14.081-5.5705-5.8276-9.3586-12.758-10.899-20.686-1.5404-7.9286-0.6846-16.111,2.2668-24.122,2.9514-8.0112,8.0047-15.847,14.889-23.002,6.8839-7.1547,15.603-13.624,25.831-18.88,10.229-5.2558,21.969-9.2951,34.8-11.617,12.831-2.3223,25.529-2.7074,37.416-1.4435,11.887,1.2638,22.96,4.174,32.567,8.4069,19.215,8.4658,32.529,22.19,35.225,38.675z" fill="#bfd6ec"/>
   <path id="path4299" d="m755.58,723.48c2.2457,13.408-4.515,26.595-17.017,37.195s-30.722,18.63-51.316,21.994c-10.297,1.682-20.214,2.0443-29.354,1.2693-9.1403-0.77501-17.506-2.6874-24.74-5.5981-7.2338-2.9107-13.339-6.821-17.963-11.625-4.6238-4.8039-7.77-10.504-9.0404-16.996-1.2704-6.4914-0.54271-13.163,1.9159-19.671s6.6521-12.85,12.331-18.63c5.6787-5.7805,12.845-10.997,21.218-15.24,8.3725-4.2422,17.952-7.5082,28.397-9.403,20.889-3.7897,41.252-1.3469,56.864,5.4356s26.459,17.861,28.705,31.269z" fill="#4f90ca"/>
   <path id="path4301" d="m715.91,714.79c1.2792,7.2168-2.2421,14.42-8.8737,20.272-6.6316,5.8527-16.362,10.364-27.525,12.278s-21.643,0.8849-29.675-2.3604c-8.0324-3.2453-13.639-8.7202-15.022-15.808-1.3829-7.0879,1.7306-14.463,8.0227-20.606,6.292-6.1429,15.783-11.035,27.049-13.078,11.266-2.0429,22.154-0.84147,30.526,2.694,8.372,3.5354,14.218,9.3915,15.497,16.608z" fill="#000"/>
   <path id="path4305" d="m717.69,859.37c1.1794,8.1521-0.31194,16.272-4.0061,23.975-3.6941,7.7038-9.5905,14.993-17.165,21.526-15.149,13.066-37.018,23.087-61.025,27.65-12.004,2.2814-23.396,2.9945-33.735,2.3531-10.338-0.64137-19.625-2.637-27.517-5.8471s-14.395-7.637-19.207-13.2c-4.8116-5.5634-7.939-12.268-9.0173-20.04s-0.006-15.882,2.9256-23.9c2.9314-8.0179,7.7292-15.94,14.166-23.246,6.437-7.3063,14.518-13.993,23.986-19.514,9.4679-5.5208,20.324-9.8724,32.227-12.534,11.902-2.6616,23.719-3.3799,34.819-2.4251s21.483,3.5802,30.512,7.5634c18.059,7.9665,30.677,21.334,33.036,37.638z" fill="#bfd6ec"/>
   <path id="path4307" d="m698.36,852.77c1.9095,13.247-4.8192,26.449-16.994,37.206-12.174,10.756-29.754,19.088-49.227,22.916-9.7361,1.9142-19.021,2.5286-27.489,2.0124-8.4681-0.51612-16.122-2.1627-22.656-4.8184-6.5345-2.6557-11.953-6.3219-15.974-10.914-4.0201-4.592-6.6458-10.113-7.5531-16.48-0.90733-6.3668-0.0105-12.981,2.4325-19.494,2.443-6.5133,6.4367-12.923,11.764-18.824,5.3275-5.9011,11.992-11.291,19.759-15.746,7.7671-4.4548,16.638-7.9726,26.327-10.144,19.377-4.3423,38.353-2.4383,52.942,3.9188,14.588,6.3571,24.758,17.119,26.667,30.367z" fill="#4f90ca"/>
   <path id="path4309" d="m660.8,845.02c1.0343,7.1154-2.4631,14.328-8.8568,20.28-6.3937,5.9511-15.668,10.65-26.139,12.835-10.471,2.1845-20.145,1.4595-27.434-1.5128s-12.22-8.2067-13.244-15.167c-1.0239-6.9608,2.0535-14.349,7.998-20.615,5.9444-6.266,14.781-11.391,25.242-13.73,10.46-2.3391,20.554-1.4391,28.293,1.8482,7.7383,3.2873,13.106,8.9473,14.141,16.063z" fill="#000"/>
  </g>
 </g>
</svg>
